<svg width="54" height="41" viewBox="0 0 54 41" fill="none" xmlns="http://www.w3.org/2000/svg">
<path d="M53.375 20.1478L33.28 0.0527344L27.0118 6.32095L20.7435 0.0527344L0.648438 20.1478L20.7435 40.2428L27.0118 33.9746L33.28 40.2428L53.375 20.1478ZM25.8326 27.7787C21.6167 23.5628 21.6167 16.7328 25.8326 12.5169L27.0062 11.3433C31.7505 16.2545 31.7505 24.0411 27.0062 28.9522L25.8326 27.7787ZM20.7435 35.226L14.5698 29.0523C9.65313 24.1356 9.65313 16.1599 14.5698 11.2432L20.7435 5.06953L24.5033 8.82936L13.1849 20.1478L24.5033 31.4662L20.7435 35.226ZM40.8386 20.1478L29.5202 8.82936L33.28 5.06953L41.0778 12.8673C45.099 16.8885 45.099 23.407 41.0778 27.4283L33.28 35.226L29.5202 31.4662L40.8386 20.1478Z" fill="white"/>
</svg>
