<svg width="48" height="88" viewBox="0 0 48 88" fill="none" xmlns="http://www.w3.org/2000/svg">
<path d="M20.2178 29.4275L20.2187 29.4281C20.5048 29.6206 20.8013 29.7893 21.1057 29.9342L20.8908 30.3856C21.5594 30.7038 22.2639 30.9155 22.9804 31.0213L23.0535 30.5267C23.7285 30.6264 24.4152 30.6254 25.0907 30.5243L25.1647 31.0188C25.8812 30.9116 26.5857 30.6992 27.2544 30.3826L27.0404 29.9307C27.3455 29.7862 27.6427 29.6184 27.9294 29.4273C27.9296 29.4272 27.9298 29.427 27.93 29.4269L28.6309 28.9566L28.9095 29.3718L30.3137 28.4295L30.0351 28.0143L31.4393 27.0721L31.7179 27.4873L33.1221 26.545L32.8435 26.1298L34.2477 25.1875L34.5263 25.6027L35.9305 24.6605L35.6519 24.2453L36.354 23.7741L36.3545 23.7738L37.3191 23.1281L37.5972 23.5437L39.5264 22.2523L39.2483 21.8368L41.1774 20.5454L41.4555 20.9609L43.3847 19.6696L43.1066 19.2541L44.0705 18.6089C44.0707 18.6088 44.0708 18.6086 44.071 18.6085C44.3077 18.4495 44.5327 18.2773 44.7451 18.0934L45.0723 18.4715C45.5356 18.0704 45.9436 17.6172 46.2901 17.1238L45.881 16.8364C46.2069 16.3723 46.4746 15.8701 46.6781 15.3414L47.1447 15.521C47.3616 14.9576 47.5104 14.3662 47.5851 13.7588L47.0888 13.6978C47.1231 13.4186 47.1406 13.1357 47.1406 12.8506L47.1406 11.7836L47.6406 11.7836L47.6406 9.64976L47.1406 9.64976L47.1406 7.51587L47.6406 7.51587L47.6406 5.38198L47.1406 5.38198L47.1406 3.2481L47.6406 3.2481L47.6406 1.11422L47.1406 1.11422L47.1406 0.915615L47.0791 0.956827L46.8009 0.541374L45.1841 1.62406L45.4623 2.03952L43.8454 3.12221L43.5672 2.70675L41.9504 3.78944L42.2286 4.2049L40.6118 5.28759L40.3336 4.87214L38.7167 5.95483L38.9949 6.37028L37.3781 7.45297L37.0999 7.03752L35.4831 8.12021L35.7613 8.53566L34.1445 9.61835L33.8663 9.2029L32.2494 10.2856L32.5276 10.701L30.9108 11.7837L30.6326 11.3683L29.0158 12.451L29.294 12.8664L28.4856 13.4078L28.4847 13.4083C28.1571 13.6267 27.8173 13.8184 27.4682 13.9833L27.2546 13.5313C26.586 13.8471 25.8816 14.058 25.1651 14.164L25.2383 14.6586C24.4661 14.7729 23.6808 14.7729 22.9087 14.6586L22.9818 14.164C22.2653 14.058 21.5609 13.8471 20.8923 13.5313L20.6787 13.9833C20.3297 13.8184 19.9898 13.6267 19.6622 13.4083L19.6615 13.4079L18.8524 12.8665L19.1305 12.451L17.5124 11.3683L17.2343 11.7838L15.6162 10.7011L15.8942 10.2856L14.2761 9.2029L13.9981 9.61845L12.3799 8.53576L12.658 8.12021L11.0399 7.03752L10.7618 7.45307L9.14369 6.37038L9.42174 5.95483L7.80362 4.87213L7.52557 5.28769L5.90744 4.205L6.18549 3.78945L4.56737 2.70676L4.28932 3.12231L2.6712 2.03962L2.94925 1.62406L1.33112 0.541376L1.05307 0.956933L0.990532 0.915088L0.990532 1.11421L0.490532 1.11421L0.490532 3.2481L0.990532 3.2481L0.990532 5.38198L0.490532 5.38198L0.490532 7.51587L0.990532 7.51587L0.990532 9.64975L0.490532 9.64975L0.490532 11.7836L0.990532 11.7836L0.990532 12.8506C0.990532 13.1357 1.00804 13.4186 1.04236 13.6978L0.546097 13.7588C0.620747 14.3662 0.769596 14.9576 0.986431 15.521L1.45306 15.3414C1.65655 15.8701 1.92423 16.3723 2.25021 16.8364L1.84104 17.1238C2.18758 17.6172 2.59556 18.0704 3.05883 18.4715L3.38608 18.0934C3.59848 18.2773 3.82338 18.4494 4.06012 18.6085C4.0603 18.6086 4.06048 18.6087 4.06067 18.6089L5.02457 19.2541L4.74644 19.6696L6.67561 20.9609L6.95374 20.5454L8.8829 21.8368L8.60477 22.2523L10.5339 23.5436L10.8121 23.1281L11.7767 23.7738L11.7768 23.7739L12.4802 24.245L12.2019 24.6605L13.6088 25.6027L13.887 25.1873L15.2939 26.1296L15.0156 26.545L16.4225 27.4873L16.7007 27.0718L18.1075 28.0141L17.8293 28.4295L19.2361 29.3718L19.5144 28.9564L20.2178 29.4275Z" stroke="#FEED01" stroke-dasharray="2 2"/>
<path d="M20.2178 57.1902L20.2187 57.1908C22.552 58.761 25.5918 58.7481 27.9294 57.19C27.9296 57.1899 27.9298 57.1897 27.93 57.1896L36.354 51.5368L36.3545 51.5365L44.0705 46.3716C44.0707 46.3715 44.0708 46.3713 44.071 46.3712C45.9952 45.0784 47.1406 42.9193 47.1406 40.6133L47.1406 28.6783L28.4856 41.1705L28.4847 41.171C25.8128 42.9523 22.3341 42.9523 19.6622 41.171L19.6615 41.1706L0.990532 28.6778L0.990532 40.6133C0.990532 42.9193 2.13592 45.0783 4.06012 46.3712C4.0603 46.3713 4.06048 46.3714 4.06067 46.3716L11.7767 51.5365L11.7768 51.5366L20.2178 57.1902Z" stroke="#FEED01"/>
<path d="M20.2178 85.8377L20.2187 85.8383C22.552 87.4085 25.5918 87.3956 27.9294 85.8375C27.9296 85.8373 27.9298 85.8372 27.93 85.8371L36.354 80.1843L36.3545 80.184L44.0705 75.019C44.0707 75.0189 44.0708 75.0188 44.071 75.0187C45.9952 73.7258 47.1406 71.5667 47.1406 69.2607L47.1406 57.3258L28.4856 69.8179L28.4847 69.8185C25.8128 71.5998 22.3341 71.5998 19.6622 69.8185L19.6615 69.818L0.990532 57.3252L0.990532 69.2607C0.990532 71.5667 2.13592 73.7258 4.06012 75.0187C4.0603 75.0188 4.06048 75.0189 4.06067 75.019L11.7767 80.184L11.7768 80.1841L20.2178 85.8377Z" fill="#FEED01" stroke="#FEED01"/>
</svg>
