<svg width="212" height="96" viewBox="0 0 212 96" fill="none" xmlns="http://www.w3.org/2000/svg">
<g clip-path="url(#clip0_1_3720)">
<path d="M161.366 3.01168L159.62 3.01269L134.7 28.4154L136.445 28.4144L161.366 3.01168ZM169.296 3.0071L167.549 3.00811L142.628 28.4108L144.376 28.4098L169.296 3.0071ZM137.578 3.02544L135.832 3.02645L110.911 28.4291L112.658 28.4281L137.578 3.02544ZM177.225 3.00251L175.478 3.00352L150.558 28.4062L152.304 28.4052L177.225 3.00251ZM145.507 3.02085L143.761 3.02186L118.841 28.4245L120.587 28.4235L145.507 3.02085ZM153.437 3.01627L151.691 3.01728L126.77 28.42L128.517 28.4189L153.437 3.01627ZM204.503 23.6678L204.502 21.8862L198.135 28.3787L199.881 28.3777L204.503 23.6678ZM182.277 28.3879L184.022 28.3868L204.494 7.52179L204.493 5.75028L182.277 28.3879ZM201.013 2.98875L199.267 2.98976L174.347 28.3924L176.093 28.3914L201.013 2.98875ZM193.084 2.99334L191.337 2.99435L166.418 28.397L168.163 28.396L193.084 2.99334ZM204.498 15.5898L204.497 13.8082L190.205 28.3833L191.952 28.3823L204.498 15.5898ZM185.155 2.99793L183.408 2.99894L158.488 28.4016L160.234 28.4006L185.155 2.99793ZM42.4245 3.08047L40.6787 3.08148L36.056 7.79131L36.0571 9.5729L42.4245 3.08047ZM129.648 3.03003L127.902 3.03103L102.982 28.4337L104.728 28.4327L129.648 3.03003ZM74.1424 3.06212L72.3966 3.06313L47.4761 28.4658L49.2219 28.4648L74.1424 3.06212ZM82.072 3.05754L80.3253 3.05855L55.4047 28.4612L57.1514 28.4602L82.072 3.05754ZM58.2835 3.0713L56.5377 3.07231L36.0654 23.9374L36.0664 25.719L58.2835 3.0713ZM50.354 3.07588L48.6082 3.07689L36.0607 15.8694L36.0617 17.6511L50.354 3.07588ZM39.5466 28.4704L41.2924 28.4694L66.213 3.06671L64.4672 3.06772L39.5466 28.4704ZM121.719 3.03461L119.973 3.03562L95.0522 28.4383L96.7989 28.4373L121.719 3.03461ZM113.79 3.0392L112.043 3.04021L87.1236 28.4429L88.8694 28.4419L113.79 3.0392ZM105.86 3.04378L104.114 3.04479L79.1932 28.4475L80.9399 28.4465L105.86 3.04378ZM97.9309 3.04837L96.1843 3.04938L71.2637 28.4521L73.0104 28.451L97.9309 3.04837ZM65.0818 28.4556L63.3342 28.4566L88.2547 3.05396L90.0015 3.05295L65.0818 28.4556Z" fill="#BDBCBC"/>
<mask id="path-2-inside-1_1_3720" fill="white">
<path fill-rule="evenodd" clip-rule="evenodd" d="M147.702 25.6196L123.716 27.2188L104.184 24.3056L102.173 7.56928L76.8493 3.38974L71.948 26.9404L40.9743 28.2764L37.1487 4.02311L7.23171 6.70345L9.87797 37.1793L1.6458 40.8778L5.14002 55.7313L9.78643 54.1991L9.68092 73.8141L72.649 74.1528L72.5463 93.2488L119.5 93.5014L120.966 74.4127L150.486 74.5715L165.831 82.5494L168.684 74.6694L182.952 74.7461L182.506 91.7913L192.18 93.8923L210.934 91.9442L207.066 50.1787L205.33 23.0954L175.454 23.1259L168.484 21.4994L152.015 21.4109"/>
</mask>
<path fill-rule="evenodd" clip-rule="evenodd" d="M147.702 25.6196L123.716 27.2188L104.184 24.3056L102.173 7.56928L76.8493 3.38974L71.948 26.9404L40.9743 28.2764L37.1487 4.02311L7.23171 6.70345L9.87797 37.1793L1.6458 40.8778L5.14002 55.7313L9.78643 54.1991L9.68092 73.8141L72.649 74.1528L72.5463 93.2488L119.5 93.5014L120.966 74.4127L150.486 74.5715L165.831 82.5494L168.684 74.6694L182.952 74.7461L182.506 91.7913L192.18 93.8923L210.934 91.9442L207.066 50.1787L205.33 23.0954L175.454 23.1259L168.484 21.4994L152.015 21.4109" fill="black"/>
<path d="M148.749 26.6933L153.063 22.4845L150.968 20.3372L146.654 24.546L148.749 26.6933ZM104.184 24.3056L101.206 24.6635L101.479 26.9352L103.742 27.2727L104.184 24.3056ZM102.173 7.56928L105.152 7.21136L104.883 4.97596L102.662 4.60932L102.173 7.56928ZM76.8493 3.38974L77.3378 0.429778L74.4986 -0.0388274L73.9122 2.77849L76.8493 3.38974ZM71.948 26.9404L72.0773 29.9376L74.4095 29.837L74.8851 27.5516L71.948 26.9404ZM40.9743 28.2764L38.0109 28.7438L38.4282 31.389L41.1036 31.2736L40.9743 28.2764ZM37.1487 4.02311L40.112 3.55568L39.6749 0.784757L36.8809 1.03508L37.1487 4.02311ZM7.23171 6.70345L6.96401 3.71542L3.98415 3.9824L4.24296 6.96297L7.23171 6.70345ZM9.87797 37.1793L11.1074 39.9158L13.0511 39.0426L12.8667 36.9198L9.87797 37.1793ZM1.6458 40.8778L0.416347 38.1413L-1.84124 39.1556L-1.27448 41.5648L1.6458 40.8778ZM5.14002 55.7313L2.21974 56.4183L2.96962 59.6059L6.07956 58.5804L5.14002 55.7313ZM9.78643 54.1991L12.7864 54.2152L12.8088 50.0435L8.84689 51.35L9.78643 54.1991ZM9.68092 73.8141L6.68097 73.798L6.66483 76.7979L9.66479 76.8141L9.68092 73.8141ZM72.649 74.1528L75.649 74.1689L75.6651 71.169L72.6652 71.1529L72.649 74.1528ZM72.5463 93.2488L69.5463 93.2327L69.5302 96.2326L72.5302 96.2488L72.5463 93.2488ZM119.5 93.5014L119.483 96.5013L122.277 96.5163L122.491 93.7312L119.5 93.5014ZM120.966 74.4127L120.983 71.4127L118.189 71.3977L117.975 74.1828L120.966 74.4127ZM150.486 74.5715L151.87 71.9097L151.227 71.5754L150.502 71.5715L150.486 74.5715ZM165.831 82.5494L164.447 85.2112L167.486 86.7912L168.652 83.5706L165.831 82.5494ZM168.684 74.6694L168.7 71.6694L166.583 71.658L165.863 73.6482L168.684 74.6694ZM182.952 74.7461L185.951 74.8246L186.031 71.7626L182.968 71.7462L182.952 74.7461ZM182.506 91.7913L179.507 91.7127L179.442 94.1958L181.869 94.7229L182.506 91.7913ZM192.18 93.8923L191.544 96.824L192.013 96.9258L192.49 96.8762L192.18 93.8923ZM210.934 91.9442L211.244 94.9281L214.195 94.6216L213.922 91.6675L210.934 91.9442ZM207.066 50.1787L204.073 50.3707L204.075 50.4131L204.079 50.4553L207.066 50.1787ZM205.33 23.0954L208.323 22.9034L208.143 20.0925L205.327 20.0954L205.33 23.0954ZM175.454 23.1259L174.772 26.0475L175.11 26.1263L175.457 26.1259L175.454 23.1259ZM168.484 21.4994L169.166 18.5779L168.838 18.5013L168.5 18.4995L168.484 21.4994ZM123.716 27.2188L123.273 30.186L123.593 30.2337L123.915 30.2122L123.716 27.2188ZM107.163 23.9476L105.152 7.21136L99.1945 7.9272L101.206 24.6635L107.163 23.9476ZM102.662 4.60932L77.3378 0.429778L76.3608 6.34969L101.685 10.5292L102.662 4.60932ZM73.9122 2.77849L69.011 26.3291L74.8851 27.5516L79.7864 4.00098L73.9122 2.77849ZM71.8188 23.9432L40.845 25.2792L41.1036 31.2736L72.0773 29.9376L71.8188 23.9432ZM43.9376 27.809L40.112 3.55568L34.1853 4.49054L38.0109 28.7438L43.9376 27.809ZM36.8809 1.03508L6.96401 3.71542L7.49942 9.69149L37.4164 7.01114L36.8809 1.03508ZM4.24296 6.96297L6.88922 37.4388L12.8667 36.9198L10.2205 6.44394L4.24296 6.96297ZM8.64852 34.4428L0.416347 38.1413L2.87525 43.6143L11.1074 39.9158L8.64852 34.4428ZM-1.27448 41.5648L2.21974 56.4183L8.0603 55.0443L4.56608 40.1909L-1.27448 41.5648ZM6.07956 58.5804L10.726 57.0481L8.84689 51.35L4.20048 52.8822L6.07956 58.5804ZM6.78647 54.1829L6.68097 73.798L12.6809 73.8303L12.7864 54.2152L6.78647 54.1829ZM9.66479 76.8141L72.6329 77.1528L72.6652 71.1529L9.69706 70.8142L9.66479 76.8141ZM69.6491 74.1367L69.5463 93.2327L75.5463 93.265L75.649 74.1689L69.6491 74.1367ZM72.5302 96.2488L119.483 96.5013L119.516 90.5014L72.5624 90.2489L72.5302 96.2488ZM122.491 93.7312L123.958 74.6426L117.975 74.1828L116.508 93.2715L122.491 93.7312ZM120.95 77.4127L150.47 77.5714L150.502 71.5715L120.983 71.4127L120.95 77.4127ZM149.102 77.2332L164.447 85.2112L167.215 79.8877L151.87 71.9097L149.102 77.2332ZM168.652 83.5706L171.504 75.6905L165.863 73.6482L163.01 81.5283L168.652 83.5706ZM168.667 77.6693L182.936 77.7461L182.968 71.7462L168.7 71.6694L168.667 77.6693ZM179.953 74.6676L179.507 91.7127L185.505 91.8698L185.951 74.8246L179.953 74.6676ZM181.869 94.7229L191.544 96.824L192.817 90.9606L183.143 88.8596L181.869 94.7229ZM192.49 96.8762L211.244 94.9281L210.624 88.9602L191.87 90.9084L192.49 96.8762ZM213.922 91.6675L210.054 49.9021L204.079 50.4553L207.947 92.2208L213.922 91.6675ZM210.06 49.9867L208.323 22.9034L202.336 23.2874L204.073 50.3707L210.06 49.9867ZM205.327 20.0954L175.451 20.126L175.457 26.1259L205.333 26.0954L205.327 20.0954ZM176.136 20.2044L169.166 18.5779L167.803 24.421L174.772 26.0475L176.136 20.2044ZM168.5 18.4995L152.031 18.4109L151.999 24.4108L168.468 24.4994L168.5 18.4995ZM147.502 22.6263L123.516 24.2255L123.915 30.2122L147.901 28.613L147.502 22.6263ZM124.158 24.2517L104.627 21.3384L103.742 27.2727L123.273 30.186L124.158 24.2517Z" fill="#FEED01" mask="url(#path-2-inside-1_1_3720)"/>
<path d="M117.052 56.2282C117.296 56.5027 117.513 56.7771 117.757 57.0243L117.948 57.0253C116.621 55.2424 115.348 53.4051 114.157 51.6775C114.103 51.6772 114.075 51.759 114.02 51.7861L114.021 51.6768L113.966 51.7585L114.047 51.8682L114.102 51.8685C114.102 51.8685 114.102 51.8685 114.047 51.8682L114.372 52.3344C114.859 53.1019 115.373 53.8697 116.023 54.8567C116.158 55.0486 116.51 55.515 117.025 56.2007L117.052 56.2282ZM125.272 64.9874C124.539 64.3551 123.833 63.723 123.127 63.0362L122.663 63.0337L122.744 63.1434L122.553 63.3063C123.176 64.02 123.773 64.7062 124.369 65.447C125.318 66.5176 126.24 67.588 127.162 68.6585L126.915 68.903C126.02 67.8874 125.125 66.8444 124.258 65.8289L122.956 64.3739C123.632 65.4704 124.037 66.3194 123.872 66.5098C123.625 66.7817 122.809 66.3129 121.126 64.8012C120.583 64.3065 120.04 63.7845 119.524 63.2627L112.429 63.6616L107.895 64.4568L103.175 64.4315L103.12 64.5131C103.038 64.5946 102.956 64.7035 102.873 64.785C102.791 64.8665 102.736 65.0028 102.653 65.0843C102.653 65.1936 102.787 65.5495 102.76 65.522C102.76 65.522 102.433 65.411 102.378 65.52C102.296 65.6015 102.214 65.683 102.159 65.792C102.076 65.8735 102.022 65.9005 101.939 66.0094C101.884 66.0637 101.829 66.1454 101.747 66.1996C101.665 66.2811 101.528 66.2804 101.447 66.198C101.338 66.1154 101.094 65.9775 100.902 66.0311C100.465 66.1927 100.683 66.1392 100.056 66.1085C99.9183 66.3536 99.8079 66.5989 99.6701 66.8441C99.6701 66.8441 99.6681 67.2265 99.6682 67.1992C99.5867 67.1441 99.4212 67.4711 99.4211 67.4984C99.4206 67.5804 99.3386 67.6072 99.3382 67.6892C99.3382 67.6892 99.3382 67.6892 99.3385 67.6346C99.2559 67.7707 99.1177 68.0978 99.1177 68.0978C99.1182 68.0159 99.0354 68.1793 99.0081 68.1792L99.063 68.1248C99.0626 68.2068 99.0623 68.2614 99.063 68.1248C99.063 68.1248 99.1176 68.1251 99.1451 68.0706C99.1449 68.1253 99.1447 68.1526 99.0898 68.2069L99.0353 68.2066C99.2804 68.2899 100.591 68.1331 100.507 68.5151C100.507 68.5151 100.507 68.5151 100.507 68.5697L100.506 68.6244C98.5179 68.0126 98.8437 68.3149 99.0913 67.9337C99.0913 67.9337 99.1739 67.7976 99.0922 67.7698C99.1472 67.6882 99.2563 67.6888 99.2296 67.5793C99.2299 67.5247 99.1755 67.4971 99.2302 67.4701C99.3672 67.3615 99.3124 67.4159 99.3948 67.307C99.3951 67.2524 99.45 67.198 99.4774 67.1709C99.5322 67.1165 99.4774 67.1709 99.4778 67.0889C99.4784 66.9796 99.7248 66.817 99.7253 66.7351C99.7257 66.6531 99.6742 66.0791 99.8107 66.0799L99.8102 66.1618C99.8102 66.1618 99.8105 66.1072 99.8107 66.0799L99.7561 66.0796C99.7561 66.0796 99.7561 66.0796 99.8107 66.0799C99.8111 65.9979 99.8118 65.8613 99.7303 65.8062C99.5139 65.4499 99.5701 65.1497 99.3263 64.8206C99.3263 64.8206 99.3812 64.7662 99.4362 64.6845L95.1231 65.1258C94.8502 65.1243 94.5778 65.0409 94.3606 64.8485C94.1434 64.6561 94.063 64.3824 94.0918 64.1094L94.3996 57.6089L94.5187 35.4532C94.5202 35.18 94.6032 34.9619 94.8225 34.7718C95.0418 34.5818 95.2605 34.501 95.5606 34.5026L97.7692 34.7604C97.2813 34.1567 96.7935 33.553 96.2785 32.9219C95.5735 32.0985 95.3587 31.469 95.5801 30.8692C95.8015 30.2966 96.4862 29.8086 97.6083 29.1589L97.6902 29.1594C99.5176 29.2512 100.879 29.8049 101.911 30.6027C102.674 30.9073 103 31.1003 103.027 31.2371C103.08 31.3739 103.025 31.4556 102.916 31.5097C103.811 32.4434 104.542 33.5674 105.272 34.7461C105.434 35.0201 105.624 35.3217 105.813 35.5959L105.868 35.6508L122.255 37.4328C122.338 37.324 122.42 37.1878 122.502 37.1336C122.721 36.9982 122.94 36.8628 123.132 36.6999C123.187 36.6182 123.215 36.5364 123.243 36.4546C123.051 36.5355 122.86 36.6165 122.641 36.7246C122.641 36.6426 122.833 36.4797 122.888 36.4527C122.888 36.4527 122.833 36.4524 122.806 36.4523C122.807 36.343 122.725 36.3972 122.862 36.2613C123.054 36.0711 122.998 36.2074 122.998 36.344C123.217 36.2359 123.408 36.1277 123.627 36.0196C123.709 35.938 123.764 35.8291 123.847 35.7475C123.984 35.6117 124.149 35.3667 124.259 35.2307C124.341 35.0945 124.451 34.9585 124.534 34.8224C124.616 34.7408 124.699 34.6047 124.781 34.5232C124.863 34.4143 124.919 34.278 125.028 34.1693C125.029 34.0601 124.813 33.6491 124.813 33.6764C124.813 33.6764 125.248 33.8427 125.331 33.7612C125.413 33.6523 125.523 33.5436 125.578 33.462C125.66 33.3531 125.742 33.3263 125.825 33.2174C125.907 33.1359 125.989 33.0271 126.072 32.9729C126.154 32.8914 126.345 32.9197 126.454 32.9749C126.617 33.0851 126.943 33.2781 127.189 33.2521C127.735 33.0911 127.49 33.1171 128.253 33.2578C128.445 32.9857 128.638 32.7135 128.83 32.4413C128.83 32.4413 128.833 31.9496 128.914 31.9773C129.023 32.0599 129.545 31.3524 129.6 31.298C129.6 31.2434 129.655 31.2164 129.682 31.2165C129.737 31.1349 129.792 31.0532 129.847 30.9715C129.902 30.9172 129.93 30.89 129.957 30.8355C129.957 30.8355 130.203 30.7276 130.121 30.8364L130.121 30.891C130.066 30.9727 129.874 31.1629 129.874 31.1629C129.874 31.1629 129.764 31.3535 129.791 31.381C129.681 31.517 129.545 31.4617 129.571 31.6257L129.571 31.7077C129.57 31.7896 129.434 31.7889 129.324 31.8703C129.324 31.9522 129.242 32.0337 129.159 32.1153C129.077 32.1695 129.159 32.1153 129.159 32.1972C129.158 32.2792 129.104 32.2789 129.076 32.3334C128.994 32.3876 128.966 32.4421 128.884 32.4963C128.83 32.496 128.802 32.5505 128.802 32.5778C128.802 32.5778 128.802 32.5778 128.747 32.6321C128.747 32.6321 128.747 32.6321 128.802 32.5778C128.802 32.6597 128.798 33.37 128.689 33.3694C128.771 33.2879 128.581 33.1776 128.526 33.1227C128.526 33.2046 128.471 33.259 128.443 33.3408C128.525 33.3412 128.607 33.3417 128.689 33.3421C128.607 33.4236 128.47 33.4502 128.524 33.5871C128.523 33.6691 128.468 33.7234 128.441 33.8052C128.44 33.8872 128.437 34.5975 128.437 34.5975C128.437 34.5975 128.052 35.0325 128.106 35.0875C128.188 35.1972 127.858 35.5506 127.776 35.6867C127.638 35.8772 127.501 36.0404 127.391 36.2584C127.308 36.3945 126.952 36.7478 126.787 36.9381C126.512 37.2645 126.21 37.5907 125.936 37.9444L130.408 38.4329C130.871 38.49 131.251 38.9018 131.248 39.3936L131.128 61.7952C131.125 62.2869 130.714 62.6945 130.222 62.7465L126.729 62.9463L127.19 63.4405L126.971 63.6306L127.865 64.6735L127.92 64.6738L127.673 64.9457C127.402 64.6437 127.076 64.2595 126.724 63.8478C126.507 63.5734 126.263 63.2989 125.992 62.997L125.91 62.9965C126.425 63.573 126.941 64.1768 127.456 64.7533C128.757 66.2356 130.059 67.6905 131.252 69.0903L131.005 69.3348L130.951 69.2525C130.029 68.2368 129.134 67.1938 128.212 66.178L127.965 66.3952C127.287 65.6266 126.582 64.8306 125.877 64.0072L125.795 64.0614C126.228 64.8013 126.443 65.3489 126.333 65.5122C126.168 65.7299 125.814 65.6187 125.162 65.1508L125.272 64.9874ZM110.849 42.8627L111.959 44.5079L112.879 45.8788C113.15 46.2628 113.448 46.6469 113.746 47.0309C113.994 46.5678 114.269 46.1595 114.489 45.7236C114.49 45.6689 114.435 45.7233 114.49 45.6416C114.6 45.4783 114.655 45.4513 114.819 45.3429C114.819 45.3429 114.818 45.4248 114.873 45.4524C114.873 45.3705 114.955 45.3163 114.956 45.2343C114.956 45.2343 114.874 45.1793 114.874 45.1519C114.82 45.1516 114.792 45.2061 114.738 45.2332C114.738 45.1785 114.848 45.0152 114.903 44.9882C114.958 44.9338 114.985 44.9067 115.012 44.9068C115.012 44.9068 115.012 44.9614 115.066 44.9617C115.177 44.7438 115.259 44.6349 115.451 44.4447C115.452 44.3901 115.534 44.3632 115.534 44.3086L115.533 44.4725C115.533 44.4725 115.615 44.3636 115.67 44.282C115.725 44.2003 116.028 43.8195 116.11 43.738C116.247 43.6294 116.794 43.3865 116.767 43.3863C116.848 43.3868 116.876 43.3869 116.958 43.3874L110.794 42.8898L110.849 42.8627ZM120.165 55.8351C120.354 56.082 120.571 56.3291 120.788 56.6308L120.87 56.6312C120.626 56.3567 120.409 56.0823 120.165 55.8078L120.165 55.8351ZM106.057 46.088C105.434 45.2104 104.811 44.3329 104.27 43.483C104 43.0718 103.702 42.6604 103.431 42.2491L102.559 42.1625L101.737 42.6498L101.656 57.7299C101.656 57.8119 101.656 57.8392 101.737 57.8943C101.791 57.9492 101.846 57.9768 101.928 57.9773L104.466 57.827C104.548 57.7182 104.685 57.6096 104.768 57.5281C104.905 57.4196 105.042 57.311 105.206 57.1753C105.343 57.0668 105.453 56.9034 105.509 56.7125C105.509 56.7125 105.866 56.3046 106.003 56.1141C106.086 55.978 106.387 55.7337 106.387 55.7337C106.634 55.4345 106.909 55.1082 107.183 54.8091C107.183 54.8091 107.348 54.5368 107.458 54.4008C107.98 53.7206 108.502 53.0404 109.052 52.3877C109.244 52.1429 109.792 51.6267 109.792 51.6267L109.875 51.5179C108.575 49.7078 107.302 47.8705 106.057 46.0607L106.057 46.088ZM120.966 43.7094L120.912 43.7638C120.5 44.2533 120.088 44.7429 119.649 45.2049C119.484 45.3953 119.018 45.7753 119.018 45.7753C118.963 45.8569 118.936 45.9114 118.881 45.9658C118.634 46.2376 118.36 46.4547 118.113 46.7266C118.113 46.7266 117.729 47.0524 117.701 47.1888C117.7 47.2981 117.618 47.3796 117.536 47.4884C117.096 48.0598 117.069 48.005 116.521 48.4938C116.356 48.6842 116.164 48.9017 115.999 49.092L115.917 49.0916L115.642 49.4999L115.886 49.8291C117.675 52.1062 119.491 54.3289 121.47 56.5798L124.337 56.2127L124.401 44.247C124.402 44.1104 124.321 44.0007 124.184 43.9999L120.939 43.7093L120.966 43.7094ZM114.372 57.4978C113.504 56.4277 112.637 55.3029 111.825 54.2057C111.661 54.2048 111.359 54.4764 111.277 54.5579C110.783 55.047 110.153 55.6174 109.714 56.1068C109.329 56.5691 108.999 57.1137 108.614 57.5761L113.227 57.3277L113.852 57.7409L114.399 57.4979L114.372 57.4978ZM100.643 68.4885C100.644 68.4339 100.726 68.4343 100.643 68.4885V68.4885ZM100.836 68.189L100.754 68.2705C100.754 68.2523 100.754 68.2523 100.754 68.2705C100.754 68.2705 100.754 68.2705 100.699 68.2702C100.699 68.2702 100.754 68.2159 100.754 68.1886C100.754 68.1886 100.836 68.1344 100.836 68.189ZM98.8995 68.0966L98.9545 68.015C98.954 68.0969 99.0086 68.0972 98.9545 68.015L98.954 68.0969C98.954 68.0969 98.8717 68.1784 98.8719 68.1511L98.8995 68.0966ZM130.066 30.8361C130.066 30.8361 130.066 30.8361 130.121 30.7818L130.067 30.7815C130.094 30.727 130.067 30.7268 130.066 30.8361C130.066 30.8361 130.012 30.8358 129.984 30.8903C129.984 30.9723 130.066 30.8907 130.066 30.8361ZM99.282 67.9894C99.2279 67.9072 99.283 67.7982 99.338 67.7165C99.3376 67.7985 99.3374 67.8258 99.3917 67.8807C99.3917 67.8807 99.3363 68.0443 99.3094 67.9622L99.282 67.9894ZM130.533 30.3469L130.478 30.4012C130.478 30.4012 130.478 30.4012 130.533 30.4015C130.533 30.4015 130.587 30.3471 130.587 30.4018L130.533 30.3469ZM130.175 30.9186L130.093 31.0002C130.094 30.8636 130.093 31.0548 130.093 31.0002C130.093 31.0002 130.093 31.0002 130.038 30.9999C130.038 30.9999 130.093 30.9182 130.121 30.9184C130.121 30.9184 130.203 30.8368 130.202 30.9188L130.175 30.9186ZM103.795 86.236C104.968 86.2423 109.033 86.2642 110.045 85.8052C110.537 85.5346 110.791 84.1427 110.876 83.5421C111.414 79.8022 111.076 81.8767 110.987 78.0788C110.989 77.7509 111.078 76.3308 110.916 76.0021C110.728 75.5639 109.882 75.5867 109.417 75.6662C102.702 76.395 95.9043 77.1234 89.107 77.8245L93.1918 13.317C93.1943 12.8526 93.5245 12.3353 93.3352 12.0064C93.0649 11.5405 91.9741 11.4527 91.4013 11.4223C86.682 11.2876 86.7362 11.3426 82.0164 11.3172C77.2965 11.2918 81.2519 11.4223 81.1138 11.7221C80.8934 12.1307 81.0485 13.7161 81.1005 14.2081C81.6444 19.5931 80.2754 76.3017 80.1917 81.7106C80.181 83.7049 79.5714 85.45 81.9447 85.5174C89.2011 85.6931 96.5374 86.2243 103.795 86.2633L103.795 86.236ZM165.095 26.3801L156.01 26.3313C155.901 26.3307 155.791 26.4121 155.763 26.5485L152.957 51.2305C152.955 51.4764 152.736 51.6392 152.518 51.6653C152.299 51.6641 152.082 51.5264 152.056 51.3077L147.412 32.1315C147.358 32.0219 147.276 31.9395 147.167 31.9389L137.153 32.1583C137.044 32.1577 136.934 32.239 136.906 32.3755L133.589 65.7971C133.588 65.8791 133.588 65.9337 133.67 65.9888C133.724 66.0437 133.751 66.0712 133.833 66.0716L142.427 66.1179C142.536 66.1184 142.646 66.0371 142.674 65.9006L145.055 49.3303C145.055 49.2483 145.137 49.1668 145.247 49.1128C145.329 49.1132 145.438 49.1138 145.492 49.196L160.658 70.2046C160.901 70.5338 161.31 70.6725 161.692 70.5653C162.075 70.4581 162.35 70.1044 162.379 69.7221L165.312 26.6272C165.312 26.5452 165.312 26.5179 165.231 26.4628C165.149 26.4078 165.149 26.3804 165.068 26.38L165.095 26.3801ZM170.241 68.8355L191.225 63.3205L190.819 88.0974L202.065 86.9558L200.159 35.6389L167.965 35.5477C167.719 35.5464 167.5 35.7638 167.499 36.0096L167.089 66.4964C167.081 67.9443 169.312 69.2403 170.269 68.781L170.241 68.8355ZM174.404 45.6634L190.83 45.3146L191 54.3857L174.719 58.041L174.377 45.6359L174.404 45.6634Z" fill="white"/>
<path fill-rule="evenodd" clip-rule="evenodd" d="M16.2713 65.708L16.3552 50.1089C14.468 50.9729 10.5858 52.4546 10.155 51.3869C9.69694 50.3189 8.00914 44.5454 7.20551 41.7817L15.1013 39.7479L15.2449 13.0572L27.8271 12.196L27.6967 36.4553L48.1888 30.9376L51.5588 33.3872L51.3839 65.8969L16.2713 65.708ZM55.1055 33.4063L52.3186 64.5906L75.5906 64.7157L75.6442 54.7443L60.265 53.159L68.9014 50.3915L60.3246 42.0674L74.3953 43.4545L75.7585 33.4901L55.1057 33.379L55.1055 33.4063ZM27.3536 49.5123L42.9657 43.3127L42.8994 55.6336L27.3211 55.5498L27.3536 49.5123Z" fill="#FEED01"/>
</g>
<defs>
<clipPath id="clip0_1_3720">
<rect width="210.492" height="93.1282" fill="white" transform="translate(1.00586 0.870605) rotate(0.308179)"/>
</clipPath>
</defs>
</svg>
