<svg width="40" height="40" viewBox="0 0 40 40" fill="none" xmlns="http://www.w3.org/2000/svg">
<g clip-path="url(#clip0_2066_3882)">
<path d="M23.9883 20C23.9883 22.1143 22.3173 23.8281 20.2559 23.8281C18.1945 23.8281 16.5234 22.1143 16.5234 20C16.5234 17.8857 18.1945 16.1719 20.2559 16.1719C22.3173 16.1719 23.9883 17.8857 23.9883 20Z" fill="#B3B3B3"/>
<path d="M28.9868 13.2278C28.8074 12.7292 28.5212 12.2778 28.1493 11.9073C27.788 11.5259 27.3483 11.2323 26.8618 11.0483C26.4672 10.8911 25.8745 10.704 24.7828 10.6531C23.6019 10.5978 23.2478 10.5859 20.258 10.5859C17.268 10.5859 16.9139 10.5975 15.7332 10.6528C14.6415 10.704 14.0485 10.8911 13.6543 11.0483C13.1678 11.2323 12.7277 11.5259 12.3668 11.9073C11.9949 12.2778 11.7086 12.7289 11.5289 13.2278C11.3757 13.6325 11.1933 14.2407 11.1436 15.3604C11.0897 16.5714 11.0781 16.9345 11.0781 20.0012C11.0781 23.0676 11.0897 23.4308 11.1436 24.642C11.1933 25.7617 11.3757 26.3696 11.5289 26.7743C11.7086 27.2733 11.9946 27.7243 12.3665 28.0948C12.7277 28.4763 13.1675 28.7698 13.654 28.9539C14.0485 29.1113 14.6415 29.2984 15.7332 29.3494C16.9139 29.4046 17.2677 29.4162 20.2577 29.4162C23.2481 29.4162 23.6022 29.4046 24.7825 29.3494C25.8742 29.2984 26.4672 29.1113 26.8618 28.9539C27.8383 28.5675 28.6102 27.7759 28.9868 26.7743C29.1401 26.3696 29.3225 25.7617 29.3725 24.642C29.4263 23.4308 29.4376 23.0676 29.4376 20.0012C29.4376 16.9345 29.4263 16.5714 29.3725 15.3604C29.3228 14.2407 29.1404 13.6325 28.9868 13.2278ZM20.258 25.8981C17.0823 25.8981 14.5079 23.2581 14.5079 20.0009C14.5079 16.7438 17.0823 14.1037 20.258 14.1037C23.4334 14.1037 26.0078 16.7438 26.0078 20.0009C26.0078 23.2581 23.4334 25.8981 20.258 25.8981ZM26.2351 15.2487C25.4931 15.2487 24.8914 14.6317 24.8914 13.8705C24.8914 13.1094 25.4931 12.4924 26.2351 12.4924C26.9772 12.4924 27.5789 13.1094 27.5789 13.8705C27.5786 14.6317 26.9772 15.2487 26.2351 15.2487Z" fill="#B3B3B3"/>
<path d="M20.2559 0C9.48795 0 0.755859 8.95599 0.755859 20C0.755859 31.044 9.48795 40 20.2559 40C31.0238 40 39.7559 31.044 39.7559 20C39.7559 8.95599 31.0238 0 20.2559 0ZM31.3856 24.7348C31.3314 25.9573 31.1419 26.792 30.8652 27.5226C30.2835 29.0652 29.0945 30.2847 27.5904 30.8813C26.8783 31.1652 26.0643 31.3593 24.8726 31.4151C23.6785 31.4709 23.2971 31.4844 20.2562 31.4844C17.2149 31.4844 16.8338 31.4709 15.6394 31.4151C14.4478 31.3593 13.6337 31.1652 12.9216 30.8813C12.1742 30.593 11.4976 30.141 10.9382 29.5566C10.3687 28.9832 9.92802 28.2889 9.64684 27.5226C9.37012 26.7923 9.18059 25.9573 9.12643 24.7351C9.07139 23.5101 9.05859 23.1189 9.05859 20C9.05859 16.8811 9.07139 16.4899 9.12614 15.2652C9.18029 14.0427 9.36953 13.208 9.64625 12.4774C9.92743 11.7111 10.3684 11.0168 10.9382 10.4434C11.4973 9.85901 12.1742 9.40704 12.9213 9.11865C13.6337 8.83484 14.4475 8.64075 15.6394 8.5849C16.8335 8.52905 17.2149 8.51562 20.2559 8.51562C23.2968 8.51562 23.6782 8.52905 24.8723 8.58521C26.0643 8.64075 26.8781 8.83484 27.5904 9.11835C28.3375 9.40674 29.0144 9.85901 29.5738 10.4434C30.1433 11.0172 30.5843 11.7111 30.8652 12.4774C31.1422 13.208 31.3314 14.0427 31.3859 15.2652C31.4403 16.4899 31.4531 16.8811 31.4531 20C31.4531 23.1189 31.4403 23.5101 31.3856 24.7348Z" fill="#B3B3B3"/>
</g>
<defs>
<clipPath id="clip0_2066_3882">
<rect width="39" height="40" fill="white" transform="translate(0.755859)"/>
</clipPath>
</defs>
</svg>
