<svg width="31" height="30" viewBox="0 0 31 30" fill="none" xmlns="http://www.w3.org/2000/svg">
<path d="M30.123 7.16292V2.88279C30.123 1.3145 28.8534 0.0449219 27.2851 0.0449219H23.0051C21.4368 0.0449219 20.1672 1.3145 20.1672 2.88279V6.89219C20.1672 8.46048 18.8976 9.73006 17.3293 9.73006H13.5906C12.0223 9.73006 10.7528 8.46048 10.7528 6.89219V2.88279C10.7528 1.3145 9.48316 0.0449219 7.91487 0.0449219H3.63477C2.06648 0.0449219 0.796875 1.3145 0.796875 2.88279V7.16292C0.796875 8.73121 2.06648 10.0008 3.63477 10.0008H7.64417C9.21247 10.0008 10.482 11.2703 10.482 12.8386V16.5773C10.482 18.1456 9.21247 19.4152 7.64417 19.4152H3.63477C2.06648 19.4152 0.796875 20.6848 0.796875 22.2531V26.5332C0.796875 28.1015 2.06648 29.3711 3.63477 29.3711H7.91487C9.48316 29.3711 10.7528 28.1015 10.7528 26.5332V22.5238C10.7528 20.9555 12.0223 19.6859 13.5906 19.6859H17.3293C18.8976 19.6859 20.1672 20.9555 20.1672 22.5238V26.5332C20.1672 28.1015 21.4368 29.3711 23.0051 29.3711H27.2851C28.8534 29.3711 30.123 28.1015 30.123 26.5332V22.2531C30.123 20.6848 28.8534 19.4152 27.2851 19.4152H23.2758C21.7075 19.4152 20.4379 18.1456 20.4379 16.5773V12.8386C20.4379 11.2703 21.7075 10.0008 23.2758 10.0008H27.2851C28.8534 10.0008 30.123 8.73121 30.123 7.16292Z" fill="white"/>
</svg>
