<svg width="40" height="40" viewBox="0 0 40 40" fill="none" xmlns="http://www.w3.org/2000/svg">
<path fill-rule="evenodd" clip-rule="evenodd" d="M19.8779 39.7558C30.8562 39.7558 39.7558 30.8562 39.7558 19.8779C39.7558 8.89964 30.8562 0 19.8779 0C8.89964 0 0 8.89964 0 19.8779C0 30.8562 8.89964 39.7558 19.8779 39.7558ZM22.0763 20.744L22.0758 20.7434L21.4176 19.8868L20.8557 19.1557L20.5032 18.6969L19.9413 17.9658L17.927 15.3447L16.3051 13.2341L15.2094 11.8083L14.2334 10.5384H13.3622H11.1043L11.9335 11.6174L12.2661 12.0502L13.1759 13.2341L13.8745 14.1432L14.2334 14.6102L16.2008 17.1702L17.9613 19.4612L18.5232 20.1924L18.8758 20.6511L19.4377 21.3823L21.4577 24.0109L21.4579 24.0112L24.5494 28.034L25.5078 29.2811H26.3125H28.6369L27.7832 28.1702L27.4751 27.7693L25.8179 25.6128L25.5078 25.2093L23.9899 23.2341L23.1843 22.1858L23.184 22.1854L22.0763 20.744ZM22.0763 18.2348L24.2272 21.0823L25.1319 22.2801L26.6433 24.2811L27.6492 25.6128L28.6158 26.8926L28.6369 26.9206L29.7651 28.4141L31.4258 30.6128H28.6369H26.904H25.5078H25.1598H24.5494L24.2649 30.2362L21.3089 26.3227L20.4044 25.1252L18.2531 22.277L17.5334 23.0381L15.8071 24.8636L14.7695 25.9608L10.3702 30.6128H8.33293L9.29475 29.5958L10.3702 28.4586L14.8939 23.6752L16.6202 21.8498L17.1778 21.2602L17.3486 21.0796L15.1973 18.2313L13.1633 15.5384L12.1095 14.1432L11.1668 12.895L11.1043 12.8123L10.0175 11.3735L8.33293 9.14315H11.1043H12.9198H14.2334H14.5989H15.2094L15.5177 9.5514L18.1156 12.991L18.2992 13.2341L19.0203 14.1887L21.1714 17.0367L21.8514 16.3176L22.0758 16.0803L22.0763 16.0797L23.5777 14.4921L24.655 13.353L28.636 9.14315H30.6732L29.7115 10.1602L28.636 11.2974L24.491 15.6806L22.7648 17.5061L22.2469 18.0538L22.0776 18.2327L22.0763 18.2341H22.0758L22.0763 18.2348Z" fill="#B3B3B3"/>
</svg>
