<svg width="41" height="40" viewBox="0 0 41 40" fill="none" xmlns="http://www.w3.org/2000/svg">
<path fill-rule="evenodd" clip-rule="evenodd" d="M40.7559 20C40.7559 31.0457 31.8016 40 20.7559 40C9.71017 40 0.755859 31.0457 0.755859 20C0.755859 8.95431 9.71017 0 20.7559 0C31.8016 0 40.7559 8.95431 40.7559 20ZM21.4726 14.7651C19.5273 15.5742 15.6394 17.2489 9.80901 19.7891C8.86225 20.1656 8.36629 20.5339 8.32114 20.894C8.24484 21.5027 9.00705 21.7424 10.045 22.0687C10.1862 22.1131 10.3325 22.1591 10.4824 22.2079C11.5036 22.5398 12.8772 22.9282 13.5913 22.9436C14.2391 22.9576 14.9621 22.6905 15.7603 22.1424C21.2078 18.4652 24.0198 16.6066 24.1964 16.5665C24.3209 16.5382 24.4935 16.5027 24.6105 16.6066C24.7274 16.7106 24.7159 16.9074 24.7035 16.9602C24.628 17.2821 21.6361 20.0637 20.0877 21.5032C19.605 21.9519 19.2626 22.2702 19.1927 22.3429C19.0359 22.5058 18.8761 22.6598 18.7225 22.8079C17.7738 23.7224 17.0624 24.4082 18.7619 25.5282C19.5786 26.0664 20.2321 26.5114 20.8841 26.9554C21.5962 27.4403 22.3063 27.924 23.2252 28.5263C23.4593 28.6798 23.6829 28.8392 23.9007 28.9944C24.7293 29.5852 25.4738 30.1159 26.3935 30.0313C26.9279 29.9821 27.48 29.4796 27.7603 27.9808C28.4229 24.4388 29.7252 16.7643 30.0262 13.6018C30.0526 13.3248 30.0194 12.9702 29.9928 12.8145C29.9661 12.6588 29.9105 12.437 29.7081 12.2729C29.4685 12.0784 29.0986 12.0374 28.9331 12.0403C28.1809 12.0536 27.0268 12.4549 21.4726 14.7651Z" fill="#B3B3B3"/>
</svg>
