<svg width="25" height="36" viewBox="0 0 25 36" fill="none" xmlns="http://www.w3.org/2000/svg">
<path fill-rule="evenodd" clip-rule="evenodd" d="M21.1588 24.9854C20.9674 25.4829 20.8683 26.0121 20.8683 26.5447C20.8683 26.545 20.8683 26.5444 20.8683 26.5447C20.8682 26.61 20.8569 26.6737 20.8362 26.7321C20.8133 26.7965 20.779 26.8555 20.7357 26.9066C20.7163 26.9295 20.6951 26.9508 20.6723 26.9703C20.5744 27.0542 20.4472 27.105 20.308 27.105H9.43669C9.30517 27.105 9.18398 27.0591 9.08809 26.9815C9.06036 26.9591 9.03475 26.934 9.01161 26.9066C8.97115 26.8587 8.93827 26.8038 8.91491 26.7437C8.90152 26.7093 8.89126 26.6731 8.88449 26.6356C8.88434 26.6348 8.88418 26.6339 8.88403 26.633C8.88395 26.6326 8.88386 26.6321 8.88378 26.6316C8.75815 25.9126 8.45249 25.2334 7.99112 24.6604C7.95053 24.61 7.90873 24.5604 7.86574 24.5117C7.86583 24.5118 7.86565 24.5116 7.86574 24.5117C7.86531 24.5112 7.86438 24.5101 7.86395 24.5097L7.8658 24.5106L2.15367 18.0431C2.14884 18.0382 2.14404 18.0334 2.13927 18.0285C1.76101 17.6425 1.57187 17.1406 1.57187 16.6386C1.57187 16.1303 1.76581 15.622 2.15367 15.2341C2.15383 15.234 2.15352 15.2343 2.15367 15.2341C2.54172 14.8464 3.05065 14.6521 3.55905 14.6523C4.06704 14.6526 4.57495 14.8465 4.96259 15.2341L7.18068 17.4522V3.1673C7.18068 3.16637 7.18068 3.16545 7.18068 3.16452C7.18218 2.06831 8.07106 1.18127 9.16671 1.18127C9.16702 1.18127 9.1664 1.18127 9.16671 1.18127C10.2628 1.18177 11.1512 2.06954 11.1527 3.16452C11.1527 3.16545 11.1527 3.16637 11.1527 3.1673V10.6075C11.1527 9.96607 11.4567 9.39579 11.9284 9.03265C11.9995 8.97788 12.0744 8.92782 12.1527 8.88294C12.2381 8.834 12.3275 8.79122 12.4202 8.75521C12.627 8.67487 12.8506 8.62818 13.0842 8.62185C13.0897 8.6217 13.0953 8.62157 13.1008 8.62147C13.1009 8.62146 13.1007 8.62147 13.1008 8.62147C13.1134 8.62123 13.1262 8.62111 13.1388 8.62111C14.0537 8.6215 14.8259 9.26965 15.0559 10.1241C15.0756 10.1974 15.0914 10.2721 15.1029 10.3481C15.1179 10.4474 15.1257 10.5489 15.1257 10.6519V12.5575C15.1257 11.9429 15.4048 11.3936 15.843 11.0293C15.9311 10.956 16.0257 10.8902 16.1257 10.8329C16.19 10.796 16.2566 10.7627 16.3252 10.7331C16.5506 10.6357 16.7977 10.5788 17.0572 10.5718C17.0627 10.5717 17.0683 10.5715 17.0738 10.5714C17.0741 10.5714 17.0735 10.5714 17.0738 10.5714C17.0862 10.5712 17.0994 10.5711 17.1117 10.5711C18.0748 10.5715 18.8796 11.2895 19.0606 12.2105C19.079 12.3038 19.0909 12.3993 19.0959 12.4962C19.0978 12.5312 19.0987 12.5665 19.0987 12.6018V14.7238C19.0987 14.0977 19.3883 13.5394 19.8407 13.1754C19.9217 13.1102 20.0079 13.0512 20.0987 12.9992C20.1724 12.9569 20.2492 12.9193 20.3285 12.8866C20.546 12.7969 20.7829 12.7447 21.0311 12.7381C21.0363 12.738 21.0415 12.7378 21.0468 12.7378C21.0477 12.7377 21.0485 12.7377 21.0494 12.7377C21.0615 12.7375 21.0736 12.7374 21.0856 12.7374C22.1811 12.7384 23.0716 13.6679 23.0716 14.7682V19.2182C23.0716 19.7514 22.9738 20.279 22.7817 20.7762L21.1588 24.9854ZM22.0232 25.3187C22.0232 25.3185 22.0231 25.3188 22.0232 25.3187C21.8717 25.7112 21.7949 26.1245 21.7948 26.5447C21.7948 26.545 21.7948 26.5444 21.7948 26.5447C21.7948 26.5809 21.7935 26.6178 21.7909 26.6534C21.783 26.7642 21.7629 26.8718 21.7318 26.9745C21.7252 26.9963 21.7181 27.0179 21.7106 27.0393C21.7097 27.0418 21.7088 27.0442 21.7079 27.0467L21.7088 27.0477C21.7101 27.0479 21.7114 27.0482 21.7127 27.0485C21.7352 27.0532 21.7576 27.0582 21.78 27.0634C22.0391 27.1238 22.2859 27.217 22.5156 27.3383C23.4975 27.8567 24.1682 28.8887 24.1682 30.0739V32.2411C24.1682 32.2412 24.1682 32.241 24.1682 32.2411C24.168 33.9459 22.7812 35.3329 21.0764 35.3329H8.79687C7.09192 35.3329 5.70503 33.946 5.70503 32.2411V30.0739C5.70503 28.8879 6.37538 27.8561 7.35752 27.3378C7.55286 27.2346 7.76055 27.1518 7.97774 27.0922C8.00256 27.0854 8.02751 27.0788 8.05257 27.0726C8.04356 27.049 8.03506 27.025 8.02712 27.0008C8.00494 26.933 7.98716 26.863 7.97491 26.7916C7.97484 26.7912 7.97478 26.7908 7.97471 26.7904C7.97465 26.7901 7.97458 26.7897 7.97452 26.7893C7.96462 26.7328 7.95331 26.6766 7.94063 26.6208C7.93092 26.5782 7.92041 26.5357 7.9091 26.4936C7.87405 26.3629 7.83133 26.2348 7.78125 26.1097C7.63712 25.7499 7.43202 25.4159 7.17328 25.1227L1.47872 18.6746C1.47253 18.6682 1.46637 18.6619 1.46024 18.6555C0.936599 18.1107 0.648438 17.4072 0.648438 16.6386C0.648438 15.8612 0.95061 15.131 1.50045 14.5809C1.5006 14.5808 1.5003 14.5811 1.50045 14.5809C2.04966 14.0317 2.78147 13.728 3.55905 13.728C4.17712 13.728 4.76539 13.919 5.25701 14.2737C5.38372 14.3651 5.50401 14.4673 5.61673 14.58C5.61689 14.5802 5.61658 14.5798 5.61673 14.58L6.25701 15.2203V3.16452C6.25701 1.55974 7.56204 0.254407 9.16671 0.253906C9.16702 0.253906 9.1664 0.253906 9.16671 0.253906C10.7718 0.253906 12.0782 1.55943 12.0782 3.16452V7.89659C12.1029 7.88676 12.1278 7.87727 12.1527 7.86811C12.4433 7.76161 12.7542 7.70081 13.0782 7.69421C13.0799 7.69418 13.0815 7.69415 13.0831 7.69412C13.0834 7.69411 13.0839 7.6941 13.0842 7.6941H13.1388C14.1588 7.6941 15.0583 8.22918 15.5787 9.03749C15.7315 9.27472 15.8515 9.53548 15.9324 9.81317C15.9397 9.83803 15.9466 9.86303 15.9532 9.88816C15.9753 9.87844 15.9975 9.86898 16.0199 9.8598C16.2734 9.7557 16.5439 9.68668 16.8259 9.65863C16.9019 9.65108 16.9786 9.6465 17.0561 9.64501C17.0562 9.64501 17.056 9.64501 17.0561 9.64501C17.0564 9.645 17.0569 9.64499 17.0572 9.64499H17.1117C18.1785 9.64499 19.1127 10.2292 19.6202 11.0991C19.7737 11.3622 19.8882 11.6514 19.9556 11.9584C19.9612 11.9842 19.9665 12.01 19.9715 12.036C19.9941 12.0265 20.0168 12.0173 20.0397 12.0084C20.3241 11.8975 20.6295 11.8305 20.9472 11.8151C20.9744 11.8138 21.0017 11.8128 21.0291 11.8123C21.0292 11.8123 21.029 11.8123 21.0291 11.8123C21.0297 11.8123 21.0305 11.8122 21.0311 11.8122H21.0856C22.6916 11.8122 23.9981 13.1381 23.9981 14.7682V19.2182C23.9981 19.8673 23.8797 20.5043 23.6458 21.1099L22.0232 25.3187ZM8.68131 27.9096C8.54193 27.917 8.40605 27.9374 8.27488 27.9699C7.32986 28.2036 6.62963 29.0573 6.62963 30.0739V32.2411C6.62963 33.4384 7.60045 34.4083 8.79687 34.4083H21.0755C21.0758 34.4083 21.0751 34.4083 21.0755 34.4083C22.2724 34.4078 23.2427 33.4372 23.2427 32.2411L23.2436 30.0739C23.2436 29.0288 22.504 28.157 21.5204 27.9521C21.402 27.9275 21.2801 27.9125 21.1556 27.908C21.1293 27.9071 21.1029 27.9066 21.0764 27.9066H8.79687C8.7581 27.9066 8.71957 27.9076 8.68131 27.9096Z" fill="#FDDA04"/>
</svg>
