<svg width="359" height="106" viewBox="0 0 359 106" fill="none" xmlns="http://www.w3.org/2000/svg">
<rect x="0.679688" y="1.2168" width="103.93" height="103.93" stroke="white"/>
<path d="M40.3203 22.8568C39.9803 23.2768 39.5003 23.6168 38.8803 23.8768C38.2803 24.1368 37.7003 24.2668 37.1403 24.2668V20.1568C38.0203 20.0168 38.8903 19.6668 39.7503 19.1068C40.6303 18.5468 41.2603 17.8168 41.6403 16.9168H45.7803V42.7168H40.3203V22.8568ZM54.1219 43.0768C52.0619 43.0768 50.4219 42.5768 49.2019 41.5768C47.9819 40.5568 47.3719 39.0568 47.3719 37.0768V33.2668H52.7419V35.4568C52.7419 36.3368 52.8319 37.0268 53.0119 37.5268C53.1919 38.0268 53.5619 38.2768 54.1219 38.2768C54.6419 38.2768 54.9919 38.1068 55.1719 37.7668C55.3719 37.4268 55.4719 36.9268 55.4719 36.2668V31.1968C55.4719 30.3768 55.3819 29.7268 55.2019 29.2468C55.0419 28.7468 54.6919 28.4968 54.1519 28.4968C53.1719 28.4968 52.6819 29.2068 52.6819 30.6268H47.9719V16.9168H60.2419V21.7468H52.8619V25.3768C53.1219 25.0368 53.4719 24.7568 53.9119 24.5368C54.3519 24.3168 54.8519 24.2068 55.4119 24.2068C57.5719 24.2068 59.0419 24.9668 59.8219 26.4868C60.6219 28.0068 61.0219 30.1568 61.0219 32.9368C61.0219 35.2368 60.8519 37.1068 60.5119 38.5468C60.1919 39.9668 59.5319 41.0768 58.5319 41.8768C57.5319 42.6768 56.0619 43.0768 54.1219 43.0768ZM65.1661 38.3068V35.2468H62.1361V31.8568H65.1661V28.8268H68.5561V31.8568H71.6161V35.2468H68.5561V38.3068H65.1661Z" fill="#FDDA04"/>
<path d="M36.7444 54.5168H38.0084L33.9604 61.1248V65.7168H32.8404V61.0928L28.8084 54.5168H30.0724L33.4164 60.0048L36.7444 54.5168ZM40.5641 60.5968V64.6608H46.0041V65.7168H39.4441V54.5168H45.9241V55.5728H40.5641V59.5408H45.5241V60.5968H40.5641ZM56.7247 65.7168H55.5407L54.5007 62.9648H49.1887L48.1487 65.7168H46.9647L51.2687 54.5168H52.4207L56.7247 65.7168ZM51.8447 55.9088L49.5887 61.9088H54.1007L51.8447 55.9088ZM66.3228 65.7168H65.0428L62.4188 61.2368H59.2828V65.7168H58.1628V54.5168H62.6428C63.5601 54.5168 64.3495 54.8475 65.0108 55.5088C65.6721 56.1701 66.0028 56.9595 66.0028 57.8768C66.0028 58.6448 65.7735 59.3221 65.3148 59.9088C64.8775 60.4848 64.3015 60.8795 63.5868 61.0928L66.3228 65.7168ZM62.6428 55.5728H59.2828V60.1808H62.6428C63.2615 60.1808 63.7895 59.9568 64.2268 59.5088C64.6641 59.0395 64.8828 58.4955 64.8828 57.8768C64.8828 57.2475 64.6641 56.7035 64.2268 56.2448C63.7895 55.7968 63.2615 55.5728 62.6428 55.5728ZM71.2922 65.9088C70.2682 65.9088 69.3882 65.6688 68.6522 65.1888C67.9269 64.6981 67.4202 64.0261 67.1322 63.1728L68.0922 62.6128C68.2949 63.3168 68.6682 63.8608 69.2122 64.2448C69.7669 64.6288 70.4655 64.8208 71.3082 64.8208C72.1295 64.8208 72.7749 64.6395 73.2442 64.2768C73.7135 63.9141 73.9482 63.4235 73.9482 62.8048C73.9482 62.2181 73.7349 61.7755 73.3082 61.4768C72.8922 61.1781 72.1882 60.8688 71.1962 60.5488C70.0122 60.1541 69.2442 59.8448 68.8922 59.6208C68.0389 59.1088 67.6122 58.3675 67.6122 57.3968C67.6122 56.4475 67.9429 55.7008 68.6042 55.1568C69.2549 54.6021 70.0709 54.3248 71.0522 54.3248C71.8949 54.3248 72.6415 54.5488 73.2922 54.9968C73.9429 55.4341 74.4282 56.0155 74.7482 56.7408L73.8042 57.2688C73.2922 56.0315 72.3749 55.4128 71.0522 55.4128C70.3482 55.4128 69.7829 55.5888 69.3562 55.9408C68.9402 56.2821 68.7322 56.7515 68.7322 57.3488C68.7322 57.9141 68.9242 58.3301 69.3082 58.5968C69.7029 58.8741 70.3375 59.1568 71.2122 59.4448L72.0762 59.7488C72.2575 59.8021 72.5135 59.8981 72.8442 60.0368C73.2069 60.1755 73.4575 60.2928 73.5962 60.3888C74.1615 60.7301 74.5189 61.0448 74.6682 61.3328C74.9349 61.7595 75.0682 62.2395 75.0682 62.7728C75.0682 63.7221 74.7215 64.4848 74.0282 65.0608C73.3349 65.6261 72.4229 65.9088 71.2922 65.9088ZM10.1266 78.5968V82.6608H15.5666V83.7168H9.00656V72.5168H15.4866V73.5728H10.1266V77.5408H15.0866V78.5968H10.1266ZM21.4909 77.9408L25.1709 83.7168H23.8909L20.8509 78.9328L17.8109 83.7168H16.5309L20.2109 77.9408L16.7709 72.5168H18.0349L20.8509 76.9328L23.6669 72.5168H24.9309L21.4909 77.9408ZM26.7722 72.5168H30.7722C31.7749 72.5168 32.6122 72.8528 33.2842 73.5248C33.9562 74.1968 34.2922 75.0341 34.2922 76.0368C34.2922 77.0395 33.9562 77.8768 33.2842 78.5488C32.6122 79.2208 31.7749 79.5568 30.7722 79.5568H27.8922V83.7168H26.7722V72.5168ZM27.8922 78.5008H30.7722C31.4655 78.5008 32.0362 78.2715 32.4842 77.8128C32.9429 77.3541 33.1722 76.7621 33.1722 76.0368C33.1722 75.3221 32.9429 74.7355 32.4842 74.2768C32.0362 73.8075 31.4655 73.5728 30.7722 73.5728H27.8922V78.5008ZM37.3297 78.5968V82.6608H42.7697V83.7168H36.2097V72.5168H42.6897V73.5728H37.3297V77.5408H42.2897V78.5968H37.3297ZM52.8541 83.7168H51.5741L48.9501 79.2368H45.8141V83.7168H44.6941V72.5168H49.1741C50.0914 72.5168 50.8807 72.8475 51.5421 73.5088C52.2034 74.1701 52.5341 74.9595 52.5341 75.8768C52.5341 76.6448 52.3047 77.3221 51.8461 77.9088C51.4087 78.4848 50.8327 78.8795 50.1181 79.0928L52.8541 83.7168ZM49.1741 73.5728H45.8141V78.1808H49.1741C49.7927 78.1808 50.3207 77.9568 50.7581 77.5088C51.1954 77.0395 51.4141 76.4955 51.4141 75.8768C51.4141 75.2475 51.1954 74.7035 50.7581 74.2448C50.3207 73.7968 49.7927 73.5728 49.1741 73.5728ZM54.4597 83.7168V72.5168H55.5797V83.7168H54.4597ZM59.2672 78.5968V82.6608H64.7072V83.7168H58.1472V72.5168H64.6272V73.5728H59.2672V77.5408H64.2272V78.5968H59.2672ZM73.8316 81.6368V72.5168H74.9516V83.7168H73.9916L67.7516 74.5968V83.7168H66.6316V72.5168H67.5916L73.8316 81.6368ZM82.7386 83.9088C81.0319 83.9088 79.6292 83.3488 78.5306 82.2288C77.4212 81.0981 76.8666 79.7275 76.8666 78.1168C76.8666 76.5061 77.4212 75.1355 78.5306 74.0048C79.6292 72.8848 81.0319 72.3248 82.7386 72.3248C83.7626 72.3248 84.7066 72.5755 85.5706 73.0768C86.4346 73.5675 87.1066 74.2341 87.5866 75.0768L86.5946 75.6528C86.2426 74.9701 85.7199 74.4261 85.0266 74.0208C84.3332 73.6155 83.5706 73.4128 82.7386 73.4128C81.3306 73.4128 80.1892 73.8661 79.3146 74.7728C78.4292 75.6901 77.9866 76.8048 77.9866 78.1168C77.9866 79.4288 78.4292 80.5435 79.3146 81.4608C80.1892 82.3675 81.3306 82.8208 82.7386 82.8208C83.5706 82.8208 84.3332 82.6181 85.0266 82.2128C85.7199 81.8075 86.2426 81.2635 86.5946 80.5808L87.5866 81.1408C87.1279 81.9835 86.4612 82.6555 85.5866 83.1568C84.7119 83.6581 83.7626 83.9088 82.7386 83.9088ZM90.5484 78.5968V82.6608H95.9884V83.7168H89.4284V72.5168H95.9084V73.5728H90.5484V77.5408H95.5084V78.5968H90.5484Z" fill="white"/>
<rect x="127.609" y="1.2168" width="103.93" height="103.93" stroke="white"/>
<path d="M156.909 47.8403C156.909 46.5817 157.101 45.419 157.485 44.3523C157.891 43.2857 158.381 42.3257 158.957 41.4723C159.533 40.619 160.291 39.6163 161.229 38.4643C162.189 37.2697 162.947 36.2563 163.501 35.4243C164.077 34.5923 164.557 33.643 164.941 32.5763C165.347 31.4883 165.549 30.315 165.549 29.0563C165.549 28.3097 165.443 27.7337 165.229 27.3283C165.016 26.9017 164.632 26.6883 164.077 26.6883C163.16 26.6883 162.701 27.5097 162.701 29.1523V32.5123H156.909L156.845 30.8163C156.845 28.7257 157.059 27.0083 157.485 25.6643C157.912 24.3203 158.659 23.2963 159.725 22.5923C160.792 21.8883 162.264 21.5363 164.141 21.5363C166.445 21.5363 168.227 22.187 169.485 23.4883C170.744 24.7683 171.373 26.5923 171.373 28.9603C171.373 30.475 171.16 31.851 170.733 33.0883C170.328 34.3043 169.816 35.371 169.197 36.2883C168.6 37.2057 167.8 38.283 166.797 39.5203C166.072 40.395 165.464 41.1737 164.973 41.8563C164.504 42.539 164.077 43.243 163.693 43.9683H171.181V49.1523H156.909V47.8403ZM179.666 49.5363C177.468 49.5363 175.719 49.003 174.418 47.9363C173.116 46.8483 172.466 45.2483 172.466 43.1363V39.0723H178.194V41.4083C178.194 42.347 178.29 43.083 178.482 43.6163C178.674 44.1497 179.068 44.4163 179.666 44.4163C180.22 44.4163 180.594 44.235 180.786 43.8723C180.999 43.5097 181.106 42.9763 181.106 42.2723V36.8643C181.106 35.9897 181.01 35.2963 180.818 34.7843C180.647 34.251 180.274 33.9843 179.698 33.9843C178.652 33.9843 178.13 34.7417 178.13 36.2563H173.106V21.6323H186.194V26.7843H178.322V30.6563C178.599 30.2937 178.972 29.995 179.442 29.7603C179.911 29.5257 180.444 29.4083 181.042 29.4083C183.346 29.4083 184.914 30.219 185.746 31.8403C186.599 33.4617 187.026 35.755 187.026 38.7203C187.026 41.1737 186.844 43.1683 186.482 44.7043C186.14 46.219 185.436 47.403 184.37 48.2563C183.303 49.1097 181.735 49.5363 179.666 49.5363ZM195.478 49.4083C193.153 49.4083 191.361 48.7577 190.102 47.4563C188.844 46.1337 188.214 44.2563 188.214 41.8243V29.4083C188.214 26.8057 188.822 24.8217 190.038 23.4563C191.254 22.091 193.068 21.4083 195.478 21.4083C197.91 21.4083 199.734 22.091 200.95 23.4563C202.166 24.8217 202.774 26.8057 202.774 29.4083V41.8243C202.774 44.2777 202.145 46.155 200.886 47.4563C199.628 48.7577 197.825 49.4083 195.478 49.4083ZM195.478 44.3523C195.884 44.3523 196.214 44.171 196.47 43.8083C196.726 43.4243 196.854 42.9763 196.854 42.4643V28.8963C196.854 28.107 196.758 27.5097 196.566 27.1043C196.396 26.6777 196.033 26.4643 195.478 26.4643C194.924 26.4643 194.561 26.6777 194.39 27.1043C194.22 27.5097 194.134 28.107 194.134 28.8963V42.4643C194.134 42.9763 194.252 43.4243 194.486 43.8083C194.742 44.171 195.073 44.3523 195.478 44.3523ZM207.259 44.4483V41.1843H204.027V37.5683H207.259V34.3363H210.875V37.5683H214.139V41.1843H210.875V44.4483H207.259Z" fill="#FDDA04"/>
<path d="M142.725 67.8176H146.725C147.728 67.8176 148.565 68.1536 149.237 68.8256C149.909 69.4976 150.245 70.3349 150.245 71.3376C150.245 72.3402 149.909 73.1776 149.237 73.8496C148.565 74.5216 147.728 74.8576 146.725 74.8576H143.845V79.0176H142.725V67.8176ZM143.845 73.8016H146.725C147.419 73.8016 147.989 73.5722 148.437 73.1136C148.896 72.6549 149.125 72.0629 149.125 71.3376C149.125 70.6229 148.896 70.0362 148.437 69.5776C147.989 69.1082 147.419 68.8736 146.725 68.8736H143.845V73.8016ZM160.323 79.0176H159.043L156.419 74.5376H153.283V79.0176H152.163V67.8176H156.643C157.56 67.8176 158.349 68.1482 159.011 68.8096C159.672 69.4709 160.003 70.2602 160.003 71.1776C160.003 71.9456 159.773 72.6229 159.315 73.2096C158.877 73.7856 158.301 74.1802 157.587 74.3936L160.323 79.0176ZM156.643 68.8736H153.283V73.4816H156.643C157.261 73.4816 157.789 73.2576 158.227 72.8096C158.664 72.3402 158.883 71.7962 158.883 71.1776C158.883 70.5482 158.664 70.0042 158.227 69.5456C157.789 69.0976 157.261 68.8736 156.643 68.8736ZM171.192 77.5296C170.072 78.6496 168.702 79.2096 167.08 79.2096C165.459 79.2096 164.088 78.6496 162.968 77.5296C161.848 76.3882 161.288 75.0176 161.288 73.4176C161.288 71.8069 161.848 70.4416 162.968 69.3216C164.088 68.1909 165.459 67.6256 167.08 67.6256C168.702 67.6256 170.072 68.1909 171.192 69.3216C172.312 70.4416 172.872 71.8069 172.872 73.4176C172.872 75.0176 172.312 76.3882 171.192 77.5296ZM162.408 73.4176C162.408 74.7402 162.856 75.8549 163.752 76.7616C164.648 77.6682 165.758 78.1216 167.08 78.1216C168.403 78.1216 169.512 77.6682 170.408 76.7616C171.304 75.8549 171.752 74.7402 171.752 73.4176C171.752 72.1056 171.304 70.9962 170.408 70.0896C169.512 69.1722 168.403 68.7136 167.08 68.7136C165.758 68.7136 164.648 69.1722 163.752 70.0896C162.856 70.9962 162.408 72.1056 162.408 73.4176ZM176.915 79.2096C176.115 79.2096 175.411 79.0442 174.803 78.7136C174.195 78.3829 173.763 77.9082 173.507 77.2896L174.451 76.7296C174.803 77.6576 175.625 78.1216 176.915 78.1216C177.715 78.1216 178.339 77.9296 178.787 77.5456C179.246 77.1616 179.475 76.5962 179.475 75.8496V67.8176H180.595V75.8496C180.595 76.9376 180.243 77.7696 179.539 78.3456C178.846 78.9216 177.971 79.2096 176.915 79.2096ZM184.111 73.8976V77.9616H189.551V79.0176H182.991V67.8176H189.471V68.8736H184.111V72.8416H189.071V73.8976H184.111ZM196.629 79.2096C194.923 79.2096 193.52 78.6496 192.421 77.5296C191.312 76.3989 190.757 75.0282 190.757 73.4176C190.757 71.8069 191.312 70.4362 192.421 69.3056C193.52 68.1856 194.923 67.6256 196.629 67.6256C197.653 67.6256 198.597 67.8762 199.461 68.3776C200.325 68.8682 200.997 69.5349 201.477 70.3776L200.485 70.9536C200.133 70.2709 199.611 69.7269 198.917 69.3216C198.224 68.9162 197.461 68.7136 196.629 68.7136C195.221 68.7136 194.08 69.1669 193.205 70.0736C192.32 70.9909 191.877 72.1056 191.877 73.4176C191.877 74.7296 192.32 75.8442 193.205 76.7616C194.08 77.6682 195.221 78.1216 196.629 78.1216C197.461 78.1216 198.224 77.9189 198.917 77.5136C199.611 77.1082 200.133 76.5642 200.485 75.8816L201.477 76.4416C201.019 77.2842 200.352 77.9562 199.477 78.4576C198.603 78.9589 197.653 79.2096 196.629 79.2096ZM202.203 67.8176H210.203V68.8736H206.763V79.0176H205.643V68.8736H202.203V67.8176ZM215.011 79.2096C213.987 79.2096 213.107 78.9696 212.371 78.4896C211.646 77.9989 211.139 77.3269 210.851 76.4736L211.811 75.9136C212.014 76.6176 212.387 77.1616 212.931 77.5456C213.486 77.9296 214.184 78.1216 215.027 78.1216C215.848 78.1216 216.494 77.9402 216.963 77.5776C217.432 77.2149 217.667 76.7242 217.667 76.1056C217.667 75.5189 217.454 75.0762 217.027 74.7776C216.611 74.4789 215.907 74.1696 214.915 73.8496C213.731 73.4549 212.963 73.1456 212.611 72.9216C211.758 72.4096 211.331 71.6682 211.331 70.6976C211.331 69.7482 211.662 69.0016 212.323 68.4576C212.974 67.9029 213.79 67.6256 214.771 67.6256C215.614 67.6256 216.36 67.8496 217.011 68.2976C217.662 68.7349 218.147 69.3162 218.467 70.0416L217.523 70.5696C217.011 69.3322 216.094 68.7136 214.771 68.7136C214.067 68.7136 213.502 68.8896 213.075 69.2416C212.659 69.5829 212.451 70.0522 212.451 70.6496C212.451 71.2149 212.643 71.6309 213.027 71.8976C213.422 72.1749 214.056 72.4576 214.931 72.7456L215.795 73.0496C215.976 73.1029 216.232 73.1989 216.563 73.3376C216.926 73.4762 217.176 73.5936 217.315 73.6896C217.88 74.0309 218.238 74.3456 218.387 74.6336C218.654 75.0602 218.787 75.5402 218.787 76.0736C218.787 77.0229 218.44 77.7856 217.747 78.3616C217.054 78.9269 216.142 79.2096 215.011 79.2096Z" fill="white"/>
<rect x="254.539" y="1.2168" width="103.93" height="103.93" stroke="white"/>
<path d="M304.839 42.7021V38.6221H297.189V34.6021L302.049 16.9021H310.089V34.3321H311.469V38.6221H310.089V42.7021H304.839ZM301.779 34.3321H304.839V21.3421L301.779 34.3321Z" fill="#FDDA04"/>
<path d="M268.62 54.5168H272.62C273.623 54.5168 274.46 54.8528 275.132 55.5248C275.804 56.1968 276.14 57.0341 276.14 58.0368C276.14 59.0395 275.804 59.8768 275.132 60.5488C274.46 61.2208 273.623 61.5568 272.62 61.5568H269.74V65.7168H268.62V54.5168ZM269.74 60.5008H272.62C273.313 60.5008 273.884 60.2715 274.332 59.8128C274.791 59.3541 275.02 58.7621 275.02 58.0368C275.02 57.3221 274.791 56.7355 274.332 56.2768C273.884 55.8075 273.313 55.5728 272.62 55.5728H269.74V60.5008ZM279.177 60.5968V64.6608H284.617V65.7168H278.057V54.5168H284.537V55.5728H279.177V59.5408H284.137V60.5968H279.177ZM294.702 65.7168H293.422L290.798 61.2368H287.662V65.7168H286.542V54.5168H291.022C291.939 54.5168 292.728 54.8475 293.39 55.5088C294.051 56.1701 294.382 56.9595 294.382 57.8768C294.382 58.6448 294.152 59.3221 293.694 59.9088C293.256 60.4848 292.68 60.8795 291.966 61.0928L294.702 65.7168ZM291.022 55.5728H287.662V60.1808H291.022C291.64 60.1808 292.168 59.9568 292.606 59.5088C293.043 59.0395 293.262 58.4955 293.262 57.8768C293.262 57.2475 293.043 56.7035 292.606 56.2448C292.168 55.7968 291.64 55.5728 291.022 55.5728ZM299.671 65.9088C298.647 65.9088 297.767 65.6688 297.031 65.1888C296.306 64.6981 295.799 64.0261 295.511 63.1728L296.471 62.6128C296.674 63.3168 297.047 63.8608 297.591 64.2448C298.146 64.6288 298.844 64.8208 299.687 64.8208C300.508 64.8208 301.154 64.6395 301.623 64.2768C302.092 63.9141 302.327 63.4235 302.327 62.8048C302.327 62.2181 302.114 61.7755 301.687 61.4768C301.271 61.1781 300.567 60.8688 299.575 60.5488C298.391 60.1541 297.623 59.8448 297.271 59.6208C296.418 59.1088 295.991 58.3675 295.991 57.3968C295.991 56.4475 296.322 55.7008 296.983 55.1568C297.634 54.6021 298.45 54.3248 299.431 54.3248C300.274 54.3248 301.02 54.5488 301.671 54.9968C302.322 55.4341 302.807 56.0155 303.127 56.7408L302.183 57.2688C301.671 56.0315 300.754 55.4128 299.431 55.4128C298.727 55.4128 298.162 55.5888 297.735 55.9408C297.319 56.2821 297.111 56.7515 297.111 57.3488C297.111 57.9141 297.303 58.3301 297.687 58.5968C298.082 58.8741 298.716 59.1568 299.591 59.4448L300.455 59.7488C300.636 59.8021 300.892 59.8981 301.223 60.0368C301.586 60.1755 301.836 60.2928 301.975 60.3888C302.54 60.7301 302.898 61.0448 303.047 61.3328C303.314 61.7595 303.447 62.2395 303.447 62.7728C303.447 63.7221 303.1 64.4848 302.407 65.0608C301.714 65.6261 300.802 65.9088 299.671 65.9088ZM314.556 64.2288C313.436 65.3488 312.065 65.9088 310.444 65.9088C308.822 65.9088 307.452 65.3488 306.332 64.2288C305.212 63.0875 304.652 61.7168 304.652 60.1168C304.652 58.5061 305.212 57.1408 306.332 56.0208C307.452 54.8901 308.822 54.3248 310.444 54.3248C312.065 54.3248 313.436 54.8901 314.556 56.0208C315.676 57.1408 316.236 58.5061 316.236 60.1168C316.236 61.7168 315.676 63.0875 314.556 64.2288ZM305.772 60.1168C305.772 61.4395 306.22 62.5541 307.116 63.4608C308.012 64.3675 309.121 64.8208 310.444 64.8208C311.766 64.8208 312.876 64.3675 313.772 63.4608C314.668 62.5541 315.116 61.4395 315.116 60.1168C315.116 58.8048 314.668 57.6955 313.772 56.7888C312.876 55.8715 311.766 55.4128 310.444 55.4128C309.121 55.4128 308.012 55.8715 307.116 56.7888C306.22 57.6955 305.772 58.8048 305.772 60.1168ZM325.351 63.6368V54.5168H326.471V65.7168H325.511L319.271 56.5968V65.7168H318.151V54.5168H319.111L325.351 63.6368ZM337.666 65.7168H336.482L335.442 62.9648H330.13L329.09 65.7168H327.906L332.21 54.5168H333.362L337.666 65.7168ZM332.786 55.9088L330.53 61.9088H335.042L332.786 55.9088ZM340.224 54.5168V64.6608H345.344V65.7168H339.104V54.5168H340.224ZM274.398 83.9088C273.374 83.9088 272.494 83.6688 271.758 83.1888C271.032 82.6981 270.526 82.0261 270.238 81.1728L271.198 80.6128C271.4 81.3168 271.774 81.8608 272.318 82.2448C272.872 82.6288 273.571 82.8208 274.414 82.8208C275.235 82.8208 275.88 82.6395 276.35 82.2768C276.819 81.9141 277.054 81.4235 277.054 80.8048C277.054 80.2181 276.84 79.7755 276.414 79.4768C275.998 79.1781 275.294 78.8688 274.302 78.5488C273.118 78.1541 272.35 77.8448 271.998 77.6208C271.144 77.1088 270.718 76.3675 270.718 75.3968C270.718 74.4475 271.048 73.7008 271.71 73.1568C272.36 72.6021 273.176 72.3248 274.158 72.3248C275 72.3248 275.747 72.5488 276.398 72.9968C277.048 73.4341 277.534 74.0155 277.854 74.7408L276.91 75.2688C276.398 74.0315 275.48 73.4128 274.158 73.4128C273.454 73.4128 272.888 73.5888 272.462 73.9408C272.046 74.2821 271.838 74.7515 271.838 75.3488C271.838 75.9141 272.03 76.3301 272.414 76.5968C272.808 76.8741 273.443 77.1568 274.318 77.4448L275.182 77.7488C275.363 77.8021 275.619 77.8981 275.95 78.0368C276.312 78.1755 276.563 78.2928 276.702 78.3888C277.267 78.7301 277.624 79.0448 277.774 79.3328C278.04 79.7595 278.174 80.2395 278.174 80.7728C278.174 81.7221 277.827 82.4848 277.134 83.0608C276.44 83.6261 275.528 83.9088 274.398 83.9088ZM278.73 72.5168H286.73V73.5728H283.29V83.7168H282.17V73.5728H278.73V72.5168ZM296.174 83.7168H294.99L293.95 80.9648H288.638L287.598 83.7168H286.414L290.718 72.5168H291.87L296.174 83.7168ZM291.294 73.9088L289.038 79.9088H293.55L291.294 73.9088ZM305.772 83.7168H304.492L301.868 79.2368H298.732V83.7168H297.612V72.5168H302.092C303.009 72.5168 303.799 72.8475 304.46 73.5088C305.121 74.1701 305.452 74.9595 305.452 75.8768C305.452 76.6448 305.223 77.3221 304.764 77.9088C304.327 78.4848 303.751 78.8795 303.036 79.0928L305.772 83.7168ZM302.092 73.5728H298.732V78.1808H302.092C302.711 78.1808 303.239 77.9568 303.676 77.5088C304.113 77.0395 304.332 76.4955 304.332 75.8768C304.332 75.2475 304.113 74.7035 303.676 74.2448C303.239 73.7968 302.711 73.5728 302.092 73.5728ZM306.183 72.5168H314.183V73.5728H310.743V83.7168H309.623V73.5728H306.183V72.5168ZM315.624 79.9088V72.5168H316.744V79.9088C316.744 80.8155 317.011 81.5301 317.544 82.0528C318.088 82.5648 318.835 82.8208 319.784 82.8208C320.733 82.8208 321.475 82.5648 322.008 82.0528C322.552 81.5301 322.824 80.8155 322.824 79.9088V72.5168H323.944V79.9088C323.944 81.1248 323.56 82.0955 322.792 82.8208C322.013 83.5461 321.011 83.9088 319.784 83.9088C318.557 83.9088 317.555 83.5461 316.776 82.8208C316.008 82.0955 315.624 81.1248 315.624 79.9088ZM326.346 72.5168H330.346C331.349 72.5168 332.186 72.8528 332.858 73.5248C333.53 74.1968 333.866 75.0341 333.866 76.0368C333.866 77.0395 333.53 77.8768 332.858 78.5488C332.186 79.2208 331.349 79.5568 330.346 79.5568H327.466V83.7168H326.346V72.5168ZM327.466 78.5008H330.346C331.04 78.5008 331.61 78.2715 332.058 77.8128C332.517 77.3541 332.746 76.7621 332.746 76.0368C332.746 75.3221 332.517 74.7355 332.058 74.2768C331.61 73.8075 331.04 73.5728 330.346 73.5728H327.466V78.5008ZM338.991 83.9088C337.967 83.9088 337.087 83.6688 336.351 83.1888C335.626 82.6981 335.119 82.0261 334.831 81.1728L335.791 80.6128C335.994 81.3168 336.367 81.8608 336.911 82.2448C337.466 82.6288 338.165 82.8208 339.007 82.8208C339.829 82.8208 340.474 82.6395 340.943 82.2768C341.413 81.9141 341.647 81.4235 341.647 80.8048C341.647 80.2181 341.434 79.7755 341.007 79.4768C340.591 79.1781 339.887 78.8688 338.895 78.5488C337.711 78.1541 336.943 77.8448 336.591 77.6208C335.738 77.1088 335.311 76.3675 335.311 75.3968C335.311 74.4475 335.642 73.7008 336.303 73.1568C336.954 72.6021 337.77 72.3248 338.751 72.3248C339.594 72.3248 340.341 72.5488 340.991 72.9968C341.642 73.4341 342.127 74.0155 342.447 74.7408L341.503 75.2688C340.991 74.0315 340.074 73.4128 338.751 73.4128C338.047 73.4128 337.482 73.5888 337.055 73.9408C336.639 74.2821 336.431 74.7515 336.431 75.3488C336.431 75.9141 336.623 76.3301 337.007 76.5968C337.402 76.8741 338.037 77.1568 338.911 77.4448L339.775 77.7488C339.957 77.8021 340.213 77.8981 340.543 78.0368C340.906 78.1755 341.157 78.2928 341.295 78.3888C341.861 78.7301 342.218 79.0448 342.367 79.3328C342.634 79.7595 342.767 80.2395 342.767 80.7728C342.767 81.7221 342.421 82.4848 341.727 83.0608C341.034 83.6261 340.122 83.9088 338.991 83.9088Z" fill="white"/>
</svg>
