<svg width="543" height="208" viewBox="0 0 543 208" fill="none" xmlns="http://www.w3.org/2000/svg">
<g clip-path="url(#clip0_1_6765)">
<path d="M-164.05 206.653L-154.219 206.653L-13.8161 -0.70701L-23.6464 -0.70701L-164.05 206.653ZM-208.703 206.653L-198.863 206.653L-58.4599 -0.707012L-68.3 -0.707013L-208.703 206.653ZM-30.1033 206.653L-20.273 206.653L120.13 -0.707002L110.295 -0.707003L-30.1033 206.653ZM-253.347 206.653L-243.512 206.653L-103.109 -0.707014L-112.944 -0.707015L-253.347 206.653ZM-74.7521 206.653L-64.9219 206.653L75.4812 -0.707005L65.6509 -0.707005L-74.7521 206.653ZM-119.401 206.653L-109.57 206.653L30.8327 -0.707007L20.9974 -0.707008L-119.401 206.653ZM-406.875 37.739L-406.875 52.2903L-371.001 -0.707029L-380.836 -0.70703L-406.875 37.739ZM-281.708 -0.707024L-291.539 -0.707025L-406.875 169.613L-406.875 184.082L-281.708 -0.707024ZM-387.293 206.653L-377.458 206.653L-237.06 -0.707022L-246.89 -0.707022L-387.293 206.653ZM-342.645 206.653L-332.809 206.653L-192.411 -0.707019L-202.241 -0.70702L-342.645 206.653ZM-406.875 103.717L-406.875 118.268L-326.352 -0.707027L-336.187 -0.707027L-406.875 103.717ZM-297.996 206.653L-288.16 206.653L-147.762 -0.707017L-157.593 -0.707017L-297.996 206.653ZM505.676 206.653L515.507 206.653L541.551 168.207L541.551 153.656L505.676 206.653ZM14.5455 206.653L24.3758 206.653L164.779 -0.707L154.944 -0.707L14.5455 206.653ZM327.082 206.653L336.912 206.653L477.315 -0.706982L467.485 -0.706983L327.082 206.653ZM282.433 206.653L292.268 206.653L432.671 -0.706985L422.836 -0.706985L282.433 206.653ZM416.379 206.653L426.209 206.653L541.551 36.3333L541.551 21.782L416.379 206.653ZM461.028 206.653L470.858 206.653L541.551 102.229L541.551 87.677L461.028 206.653ZM521.964 -0.70698L512.133 -0.706981L371.73 206.653L381.56 206.653L521.964 -0.70698ZM59.1893 206.653L69.0243 206.653L209.427 -0.706997L199.592 -0.706998L59.1893 206.653ZM103.838 206.653L113.673 206.653L254.071 -0.706995L244.241 -0.706995L103.838 206.653ZM148.487 206.653L158.322 206.653L298.725 -0.706992L288.89 -0.706993L148.487 206.653ZM193.135 206.653L202.971 206.653L343.374 -0.70699L333.539 -0.70699L193.135 206.653ZM378.182 -0.706988L388.022 -0.706987L247.619 206.653L237.784 206.653L378.182 -0.706988Z" fill="#FEED01"/>
</g>
<defs>
<clipPath id="clip0_1_6765">
<rect width="542" height="207" fill="white" transform="translate(0.335938 0.25)"/>
</clipPath>
</defs>
</svg>
