<svg width="234" height="190" viewBox="0 0 234 190" fill="none" xmlns="http://www.w3.org/2000/svg">
<path d="M233.11 189.559H0.140625V0.375977H233.11V189.559ZM0.677385 189.003H232.573V0.921886H0.677385V189.003Z" fill="#727272"/>
<path d="M0.409005 189.558C0.353486 189.558 0.307075 189.54 0.260809 189.512C0.186783 189.456 0.140625 189.373 0.140625 189.281V0.653386C0.140625 0.560854 0.186783 0.477575 0.260809 0.422055C0.334835 0.366536 0.427385 0.357256 0.510664 0.394269L198.114 81.5637C198.216 81.61 198.28 81.7025 198.28 81.8228V108.121C198.28 108.232 198.216 108.333 198.114 108.38L0.510664 189.549C0.510664 189.549 0.446018 189.568 0.409005 189.568V189.558ZM0.677385 1.06053V188.874L197.743 107.926V82.0079L0.677385 1.06053Z" fill="#727272"/>
<path d="M0.40581 172.412C0.294771 172.412 0.183479 172.338 0.146466 172.227C0.1002 172.079 0.174623 171.931 0.322675 171.875L197.925 105.465C198.064 105.419 198.222 105.493 198.268 105.641C198.314 105.789 198.24 105.937 198.092 105.992L0.488944 172.403C0.488944 172.403 0.43357 172.412 0.40581 172.412Z" fill="#727272"/>
<path d="M0.408726 155.266C0.288434 155.266 0.177142 155.183 0.149383 155.062C0.11237 154.914 0.195613 154.766 0.343665 154.729L197.947 103.078C198.086 103.041 198.234 103.133 198.271 103.272C198.308 103.42 198.225 103.568 198.077 103.605L0.473337 155.257C0.473337 155.257 0.427233 155.257 0.408726 155.257V155.266Z" fill="#727272"/>
<path d="M0.404552 138.11C0.275006 138.11 0.163714 138.018 0.145208 137.888C0.117448 137.74 0.219216 137.592 0.358014 137.564L197.961 100.672C198.109 100.644 198.248 100.746 198.276 100.894C198.303 101.042 198.202 101.19 198.063 101.218L0.460125 138.11C0.460125 138.11 0.422841 138.11 0.413588 138.11H0.404552Z" fill="#727272"/>
<path d="M0.411026 120.963C0.272228 120.963 0.161153 120.862 0.142646 120.714C0.12414 120.566 0.234962 120.427 0.383014 120.408L197.986 98.2745C198.134 98.256 198.264 98.367 198.282 98.5151C198.301 98.6631 198.19 98.8019 198.042 98.8204L0.438587 120.954C0.438587 120.954 0.42028 120.954 0.411026 120.954V120.963Z" fill="#727272"/>
<path d="M0.409005 103.818C0.260953 103.818 0.149878 103.698 0.140625 103.55C0.140625 103.402 0.251465 103.272 0.399517 103.263L198.003 95.8882C198.151 95.8789 198.271 95.9993 198.28 96.1566C198.28 96.3046 198.169 96.4342 198.021 96.4434L0.418042 103.818C0.418042 103.818 0.418258 103.818 0.409005 103.818Z" fill="#727272"/>
<path d="M197.997 94.0467C197.997 94.0467 197.996 94.0467 197.987 94.0467L0.384344 86.6719C0.236292 86.6719 0.125 86.5424 0.125 86.3851C0.125 86.237 0.254816 86.1074 0.402868 86.1167L198.006 93.4915C198.154 93.4915 198.265 93.6211 198.265 93.7784C198.265 93.9264 198.145 94.0467 197.997 94.0467Z" fill="#727272"/>
<path d="M197.997 91.6593C197.997 91.6593 197.978 91.6593 197.969 91.6593L0.366401 69.5255C0.218349 69.507 0.116329 69.3775 0.125582 69.2202C0.144088 69.0721 0.273923 68.9611 0.421975 68.9796L198.025 91.1133C198.173 91.1319 198.275 91.2614 198.266 91.4187C198.247 91.5575 198.136 91.6685 197.997 91.6685V91.6593Z" fill="#727272"/>
<path d="M198 89.2625C198 89.2625 197.972 89.2625 197.953 89.2625L0.350529 52.3699C0.202477 52.3421 0.109963 52.2033 0.137722 52.046C0.165482 51.8979 0.304136 51.7961 0.452188 51.8239L198.055 88.7166C198.203 88.7443 198.296 88.8832 198.268 89.0405C198.24 89.17 198.129 89.2625 198.009 89.2625H198Z" fill="#727272"/>
<path d="M198.004 86.8756C198.004 86.8756 197.957 86.8756 197.939 86.8756L0.335852 35.224C0.1878 35.187 0.104557 35.0389 0.14157 34.8909C0.178583 34.7428 0.326725 34.6503 0.465524 34.6966L198.068 86.3482C198.216 86.3852 198.3 86.5332 198.263 86.6813C198.235 86.8016 198.124 86.8849 198.004 86.8849V86.8756Z" fill="#727272"/>
<path d="M198 84.4872C198 84.4872 197.944 84.4872 197.916 84.478L0.313613 18.0675C0.174814 18.0212 0.0915891 17.8639 0.137855 17.7159C0.184122 17.5678 0.332282 17.4938 0.480334 17.5401L198.083 83.9506C198.222 83.9969 198.305 84.1542 198.259 84.3022C198.222 84.4225 198.12 84.4872 198 84.4872Z" fill="#727272"/>
<path d="M195.526 109.407C195.378 109.407 195.258 109.286 195.258 109.129V80.8049C195.258 80.6569 195.378 80.5273 195.526 80.5273C195.674 80.5273 195.795 80.6476 195.795 80.8049V109.129C195.795 109.277 195.674 109.407 195.526 109.407Z" fill="#727272"/>
<path d="M192.643 110.59C192.495 110.59 192.375 110.47 192.375 110.313V79.6107C192.375 79.4626 192.495 79.333 192.643 79.333C192.791 79.333 192.912 79.4533 192.912 79.6107V110.313C192.912 110.461 192.791 110.59 192.643 110.59Z" fill="#727272"/>
<path d="M189.222 111.998C189.073 111.998 188.953 111.877 188.953 111.72V78.2141C188.953 78.0661 189.073 77.9365 189.222 77.9365C189.37 77.9365 189.49 78.0568 189.49 78.2141V111.72C189.49 111.868 189.37 111.998 189.222 111.998Z" fill="#727272"/>
<path d="M185.128 113.682C184.98 113.682 184.859 113.562 184.859 113.405V76.5305C184.859 76.3825 184.98 76.2529 185.128 76.2529C185.276 76.2529 185.396 76.3732 185.396 76.5305V113.405C185.396 113.553 185.276 113.682 185.128 113.682Z" fill="#727272"/>
<path d="M180.112 115.736C179.964 115.736 179.844 115.615 179.844 115.458V74.4661C179.844 74.3181 179.964 74.1885 180.112 74.1885C180.26 74.1885 180.381 74.3088 180.381 74.4661V115.458C180.381 115.606 180.26 115.736 180.112 115.736Z" fill="#727272"/>
<path d="M173.831 118.317C173.683 118.317 173.562 118.197 173.562 118.039V71.884C173.562 71.736 173.683 71.6064 173.831 71.6064C173.979 71.6064 174.099 71.7267 174.099 71.884V118.039C174.099 118.187 173.979 118.317 173.831 118.317Z" fill="#727272"/>
<path d="M165.737 121.649C165.589 121.649 165.469 121.529 165.469 121.372V68.5726C165.469 68.4245 165.589 68.2949 165.737 68.2949C165.885 68.2949 166.006 68.4153 166.006 68.5726V121.372C166.006 121.52 165.885 121.649 165.737 121.649Z" fill="#727272"/>
<path d="M154.925 126.09C154.777 126.09 154.656 125.97 154.656 125.812V64.1301C154.656 63.9821 154.777 63.8525 154.925 63.8525C155.073 63.8525 155.193 63.9728 155.193 64.1301V125.812C155.193 125.96 155.073 126.09 154.925 126.09Z" fill="#727272"/>
<path d="M139.737 132.326C139.589 132.326 139.469 132.206 139.469 132.049V57.884C139.469 57.736 139.589 57.6064 139.737 57.6064C139.885 57.6064 140.006 57.7267 140.006 57.884V132.049C140.006 132.197 139.885 132.326 139.737 132.326Z" fill="#727272"/>
<path d="M116.847 141.729C116.698 141.729 116.578 141.608 116.578 141.451V48.4836C116.578 48.3356 116.698 48.2061 116.847 48.2061C116.995 48.2061 117.115 48.3263 117.115 48.4836V141.451C117.115 141.599 116.995 141.729 116.847 141.729Z" fill="#727272"/>
<path d="M78.4012 157.515C78.2531 157.515 78.1328 157.395 78.1328 157.237V32.6887C78.1328 32.5407 78.2531 32.4111 78.4012 32.4111C78.5492 32.4111 78.6696 32.5314 78.6696 32.6887V157.237C78.6696 157.385 78.5492 157.515 78.4012 157.515Z" fill="#727272"/>
<path d="M232.838 0.375473H194.104H0.405787C0.276242 0.375473 0.16495 0.467997 0.146444 0.597542C0.118684 0.727087 0.192872 0.856649 0.313165 0.902915L154.833 64.3709L185.036 76.7795L197.916 82.0723C197.916 82.0723 197.981 82.0909 198.018 82.0909H232.856C233.005 82.0909 233.125 81.9706 233.125 81.8133V0.643797C233.125 0.495745 233.005 0.366211 232.856 0.366211L232.838 0.375473ZM227.212 81.5449L226.943 80.8787L229.47 80.8602L229.608 81.5449H227.212ZM224.279 81.5449L223.881 80.8971L226.361 80.8787L226.629 81.5449H224.279ZM221.355 81.5449L220.846 80.9157L223.261 80.8971L223.649 81.5449H221.355ZM218.431 81.5449L217.81 80.9342L220.142 80.9157L220.651 81.5356H218.431V81.5449ZM215.516 81.5449L214.794 80.9527L217.043 80.9342L217.653 81.5356H215.516V81.5449ZM212.601 81.5449L211.787 80.9712L213.943 80.9527L214.655 81.5356H212.601V81.5449ZM209.686 81.5449L208.789 80.9897H210.843L211.648 81.5449H209.686ZM206.781 81.5449L205.809 81.0174H207.762L208.641 81.5449H206.772H206.781ZM203.866 81.5449L202.829 81.036H204.68L205.633 81.5449H203.866ZM200.96 81.5449L199.859 81.0545H201.608L202.635 81.5449H200.97H200.96ZM194.011 79.8793L195.881 79.8608L197.324 80.5085H195.575L194.002 79.8793H194.011ZM190.597 78.4821L192.753 78.4635L194.668 79.3241L192.688 79.3426L190.597 78.4821ZM186.498 76.798L188.987 76.7795L191.55 77.9269L189.283 77.9454L186.498 76.798ZM181.399 74.7067L184.267 74.6697L187.774 76.2428L185.184 76.2613L181.408 74.7067H181.399ZM175.135 72.1251L178.411 72.0326L183.074 74.1238L180.103 74.1608L175.135 72.1158V72.1251ZM167.02 68.7939L170.878 68.6644L177.254 71.5236L173.886 71.6162L167.029 68.8032L167.02 68.7939ZM156.138 64.3246L160.607 64.0563L169.731 68.1462L165.779 68.285L156.138 64.3246ZM140.851 58.0509L146.024 57.5327L159.525 63.5844L154.972 63.8527L140.861 58.0602L140.851 58.0509ZM117.931 48.6311L124.473 47.8723L145.015 57.0793L139.778 57.6068L117.94 48.6311H117.931ZM79.4559 32.8266L88.3021 31.6607L123.492 47.4282L116.885 48.1962L79.4654 32.8266H79.4559ZM39.0842 0.930645L97.7681 29.8563L88.3857 31.0962L21.0683 0.930645H39.0936H39.0842ZM58.4419 0.930645L108.641 28.422L98.749 29.7267L40.3244 0.930645H58.4514H58.4419ZM77.8091 0.930645L119.994 26.923L109.557 28.3018L59.58 0.930645H77.8H77.8091ZM97.1668 0.930645L131.848 25.3592L120.846 26.812L78.8455 0.930645H97.1668ZM116.524 0.930645L144.257 23.7121L132.644 25.2482L98.1106 0.930645H116.524ZM135.883 0.930645L157.257 22.0003L145.006 23.6196L117.385 0.930645H135.883ZM155.231 0.930645L170.869 20.2052L157.933 21.917L136.65 0.939907H155.231V0.930645ZM174.58 0.930645L185.156 18.3175L171.498 20.1219L155.925 0.930645H174.57H174.58ZM193.919 0.930645L200.165 16.3281L185.739 18.2342L175.209 0.930645H193.919ZM213.249 0.930645L215.951 14.2461L200.72 16.254L194.502 0.930645H213.249ZM232.57 79.0465L229.645 79.065L229.47 78.2137L232.561 78.1952V79.0373L232.57 79.0465ZM206.66 70.7001L202.459 70.8204L198.666 67.7021L203.449 67.5355L206.66 70.7001ZM204.199 67.5077L209.131 67.3412L211.75 70.5613L207.419 70.6816L204.199 67.5077ZM198.018 67.1746L191.966 62.2056L197.685 61.8633L202.904 67.0081L198.018 67.1746ZM197.194 67.2024L192.466 67.3689L185.665 62.5757L191.171 62.2519L197.194 67.2024ZM197.842 67.7298L201.627 70.8389L197.564 70.9499L193.216 67.8871L197.842 67.7298ZM196.649 70.9777L192.716 71.0887L187.821 68.0722L192.299 67.9149L196.639 70.9777H196.649ZM197.407 71.5144L200.785 73.8925L197.343 73.9387L193.576 71.6254L197.407 71.5236V71.5144ZM198.314 71.4866L202.275 71.3756L205.254 73.8277L201.701 73.874L198.305 71.4866H198.314ZM205.92 74.3644L208.002 76.0762L204.874 76.104L202.478 74.4199L205.92 74.3736V74.3644ZM206.772 74.3552L210.325 74.3088L212.092 76.0485L208.863 76.0762L206.772 74.3644V74.3552ZM206.105 73.8185L203.107 71.3571L207.197 71.246L209.76 73.7722L206.105 73.8185ZM207.956 71.2183L212.175 71.098L214.285 73.6982L210.528 73.7537L207.956 71.2183ZM212.86 71.0795L217.2 70.9592L218.828 73.6426L214.979 73.6982L212.86 71.0887V71.0795ZM212.425 70.5428L209.806 67.3134L214.877 67.1376L216.876 70.4133L212.425 70.5336V70.5428ZM209.372 66.7767L205.032 61.4191L211.185 61.0582L214.553 66.6009L209.372 66.7767ZM208.696 66.8045L203.663 66.9803L198.425 61.817L204.366 61.4653L208.696 66.8045ZM197.897 61.2988L189.607 53.1282L196.991 52.3787L203.94 60.938L197.897 61.2988ZM197.167 61.345L191.347 61.6875L181.88 53.9055L188.913 53.1929L197.176 61.3358L197.167 61.345ZM190.541 61.7337L184.943 62.0668L174.422 54.655L181.112 53.9795L190.55 61.7337H190.541ZM184.064 62.1223L178.679 62.4462L167.233 55.3952L173.59 54.7567L184.064 62.1316V62.1223ZM184.786 62.6313L191.559 67.3967L186.979 67.554L179.493 62.9366L184.786 62.622V62.6313ZM185.998 67.591L181.575 67.7483L173.46 63.3068L178.54 63.0014L185.989 67.591H185.998ZM186.84 68.1092L191.717 71.1165L187.923 71.2183L182.509 68.2572L186.831 68.1092H186.84ZM192.577 71.6439L196.315 73.948L192.993 73.9943L188.894 71.7457L192.586 71.6439H192.577ZM197.194 74.4847L199.878 76.141L196.954 76.1595L193.974 74.5309L197.194 74.4847ZM198.212 74.4754L201.544 74.4291L203.931 76.1132L200.905 76.141L198.212 74.4847V74.4754ZM204.708 76.6499L206.365 77.8159L203.672 77.8343L201.784 76.6685L204.699 76.6499H204.708ZM205.652 76.6499L208.668 76.6222L210.103 77.7973L207.317 77.8159L205.652 76.6499ZM209.52 76.6129L212.638 76.5852L213.832 77.7695L210.945 77.7881L209.511 76.6129H209.52ZM213.406 76.5852L216.617 76.5574L217.579 77.7418L214.609 77.7603L213.415 76.5759L213.406 76.5852ZM212.851 76.0392L211.083 74.2996L214.739 74.2533L216.173 76.0207L212.851 76.0485V76.0392ZM215.423 74.2349L219.171 74.1793L220.263 75.9745L216.867 76.0022L215.433 74.2349H215.423ZM219.8 74.1793L223.622 74.1238L224.362 75.9467L220.892 75.9745L219.8 74.1793ZM219.467 73.6334L217.829 70.9407L222.28 70.8204L223.399 73.5779L219.467 73.6334ZM217.496 70.404L215.497 67.1191L220.707 66.9433L222.058 70.2837L217.496 70.4133V70.404ZM215.174 66.5824L211.796 61.0305L218.162 60.6511L220.494 66.3973L215.183 66.5824H215.174ZM218.717 60.6141L225.278 60.2254L226.49 66.1845L221.059 66.3696L218.717 60.6048V60.6141ZM225.824 60.1884L232.57 59.7905V65.9717L227.036 66.166L225.824 60.1884ZM225.713 59.6425L223.696 49.6767L232.579 48.7792V59.2353L225.722 59.6425H225.713ZM225.167 59.6795L218.495 60.0774L214.646 50.602L223.141 49.7415L225.158 59.6795H225.167ZM217.931 60.1051L211.463 60.4845L205.976 51.4626L214.1 50.6391L217.94 60.0959L217.931 60.1051ZM210.852 60.5308L204.597 60.9009L197.63 52.3139L205.374 51.5274L210.852 60.5215V60.5308ZM197.222 51.805L188.015 40.4605L197.944 39.3039L205.069 51.0184L197.222 51.8142V51.805ZM196.575 51.8697L189.098 52.6285L177.948 41.6356L187.377 40.5345L196.575 51.8697ZM188.395 52.6933L181.279 53.4151L168.306 42.7553L177.254 41.7097L188.395 52.6933ZM180.511 53.489L173.737 54.1738L159.052 43.8379L167.547 42.8478L180.511 53.4983V53.489ZM172.905 54.2571L166.464 54.9048L150.17 44.865L158.238 43.9212L172.905 54.2478V54.2571ZM165.567 54.9973L159.441 55.6173L141.638 45.8644L149.29 44.9669L165.567 54.9973ZM166.335 55.4785L177.726 62.5017L172.553 62.8071L160.293 56.0892L166.335 55.4785ZM171.526 62.8626L166.566 63.1587L153.593 56.7647L159.33 56.1818L171.526 62.8626ZM172.442 63.3623L180.511 67.7853L176.245 67.9334L167.566 63.6584L172.433 63.3715L172.442 63.3623ZM181.455 68.2942L186.849 71.246L183.194 71.3478L177.281 68.4331L181.445 68.285L181.455 68.2942ZM187.802 71.7735L191.874 74.0035L188.663 74.0498L184.249 71.8752L187.802 71.7735ZM192.864 74.5494L195.834 76.178L193.021 76.1965L189.764 74.5957L192.864 74.5494ZM196.824 76.7147L198.943 77.8714L196.463 77.8898L194.122 76.7332L196.824 76.7147ZM197.944 76.7055L200.757 76.6869L202.645 77.8529L200.063 77.8714L197.944 76.7147V76.7055ZM203.533 78.3896L204.921 79.2501L202.617 79.2686L201.053 78.408L203.533 78.3896ZM204.569 78.3896L207.151 78.371L208.363 79.2223L205.957 79.2408L204.569 78.3896ZM208.085 78.3618L210.76 78.3433L211.796 79.1946L209.288 79.2131L208.076 78.3618H208.085ZM211.611 78.3433L214.387 78.3248L215.247 79.1761L212.648 79.1946L211.611 78.3433ZM215.155 78.3155L218.014 78.297L218.708 79.1483L216.015 79.1668L215.155 78.3155ZM218.717 78.2878L221.66 78.2693L222.178 79.1205L219.411 79.1391L218.717 78.2878ZM218.273 77.7418L217.311 76.5574L220.605 76.5296L221.327 77.7233L218.273 77.7418ZM221.225 76.5296L224.584 76.5019L225.065 77.6956L221.947 77.714L221.225 76.5204V76.5296ZM225.167 76.4927L228.581 76.4649L228.822 77.6678L225.648 77.6863L225.167 76.4927ZM224.945 75.9467L224.205 74.1146L228.091 74.059L228.47 75.9097L224.945 75.9374V75.9467ZM223.973 73.5686L222.854 70.8019L227.397 70.6723L227.97 73.5131L223.973 73.5686ZM222.632 70.2559L221.271 66.9155L226.592 66.7304L227.276 70.1264L222.622 70.2559H222.632ZM227.147 66.712L232.57 66.5269V69.9876L227.832 70.1172L227.138 66.7212L227.147 66.712ZM232.57 48.2332L223.575 49.1401L221.031 36.6019L232.561 35.2602V48.2332H232.57ZM223.048 49.1956L214.443 50.0654L209.529 37.9436L220.513 36.6667L223.057 49.1956H223.048ZM213.878 50.1209L205.652 50.9537L198.518 39.2298L208.955 38.0084L213.869 50.1209H213.878ZM198.212 38.7116L186.063 18.7431L200.387 16.8555L208.752 37.4809L198.212 38.7116ZM197.62 38.7764L187.599 39.9423L171.915 20.6123L185.48 18.8172L197.63 38.7764H197.62ZM186.96 40.0256L177.439 41.136L158.432 22.3982L171.276 20.7048L186.96 40.0256ZM176.754 41.2192L167.714 42.2741L145.589 24.1007L157.757 22.4907L176.754 41.2192ZM166.955 42.3574L158.368 43.3568L133.31 25.7109L144.839 24.184L166.955 42.3482V42.3574ZM157.563 43.4586L149.411 44.4116L121.586 27.2747L132.514 25.8312L157.554 43.4678L157.563 43.4586ZM148.541 44.5042L140.805 45.411L110.381 28.7459L120.735 27.3764L148.541 44.5042ZM139.861 45.522L132.523 46.3826L99.6373 30.1709L109.464 28.8754L139.87 45.5313L139.861 45.522ZM140.694 45.9754L158.479 55.7099L152.659 56.2928L133.43 46.8175L140.694 45.9662V45.9754ZM151.631 56.4038L146.107 56.959L125.537 47.7428L132.431 46.9378L151.631 56.4038ZM152.566 56.8665L165.465 63.2235L160.709 63.5103L147.125 57.4217L152.575 56.8758L152.566 56.8665ZM166.464 63.7139L175.088 67.9611L170.98 68.1L161.792 63.9823L166.455 63.7047L166.464 63.7139ZM176.134 68.4793L182.028 71.3848L178.521 71.4866L172.128 68.6274L176.134 68.4886V68.4793ZM183.083 71.9123L187.469 74.0775L184.379 74.1238L179.669 72.0141L183.083 71.9215V71.9123ZM188.552 74.6049L191.791 76.2058L189.089 76.2243L185.563 74.642L188.552 74.6049ZM192.901 76.7424L195.242 77.8991L192.873 77.9176L190.31 76.7702L192.91 76.7517L192.901 76.7424ZM196.343 78.4451L198.083 79.3056L195.992 79.3241L194.076 78.4635L196.343 78.4451ZM197.564 78.4358L199.933 78.4173L201.497 79.2778L199.304 79.2964L197.564 78.4358ZM202.487 79.8238L203.681 80.4808H201.719L200.396 79.8423L202.487 79.8238ZM203.616 79.8145L205.809 79.796L206.883 80.453H204.819L203.616 79.8053V79.8145ZM206.836 79.7868L209.131 79.7683L210.075 80.4345L207.91 80.453L206.836 79.796V79.7868ZM210.075 79.759L212.471 79.7405L213.286 80.4068L211.019 80.4253L210.075 79.759ZM213.313 79.7405L215.803 79.722L216.488 80.3975L214.128 80.416L213.313 79.7498V79.7405ZM216.58 79.7128L219.162 79.6942L219.708 80.3698L217.265 80.3882L216.58 79.7128ZM219.846 79.685L222.502 79.6665L222.918 80.3512L220.392 80.3698L219.846 79.6942V79.685ZM223.131 79.6665L225.852 79.648L226.129 80.3327L223.539 80.3512L223.122 79.6665H223.131ZM222.798 79.1205L222.28 78.2693L225.287 78.2507L225.63 79.102L222.798 79.1205ZM225.87 78.2415L228.933 78.223L229.109 79.0743L226.222 79.0928L225.879 78.2415H225.87ZM232.57 77.6493L229.368 77.6678L229.127 76.4649L232.579 76.4371V77.6493H232.57ZM229.016 75.9189L228.637 74.059L232.57 74.0035V75.8819L229.007 75.9097L229.016 75.9189ZM228.526 73.5131L227.952 70.6723L232.579 70.5428V73.4576L228.535 73.5131H228.526ZM232.57 34.705L220.929 36.0652L216.599 14.718L232.57 12.6082V34.705ZM220.392 36.1208L209.307 37.4162L200.933 16.7815L216.062 14.7828L220.392 36.1208ZM98.6564 30.2912L131.524 46.4936L124.556 47.3079L89.3386 31.5311L98.6564 30.3004V30.2912ZM197.203 79.8608L199.184 79.8423L200.507 80.49H198.656L197.213 79.8515L197.203 79.8608ZM226.722 80.3234L226.444 79.6387L229.22 79.6202L229.358 80.3142L226.722 80.3327V80.3234ZM229.766 79.611L232.57 79.5925V80.2865L229.905 80.305L229.766 79.611ZM232.57 12.0438L216.488 14.172L213.804 0.930645H232.579V12.0531L232.57 12.0438ZM19.7174 0.930645L87.3397 31.235L78.429 32.4102L1.79377 0.930645H19.7174ZM196.898 81.073H198.536L199.619 81.5449H198.055L196.898 81.073ZM230.155 81.5449L230.016 80.8602L232.57 80.8416V81.5449H230.155Z" fill="#727272"/>
<path d="M232.836 107.843H197.998C197.998 107.843 197.933 107.843 197.896 107.861L189.124 111.461C189.124 111.461 189.124 111.461 189.115 111.461L179.963 115.218C179.963 115.218 179.945 115.218 179.936 115.227L173.736 117.771C173.736 117.771 173.727 117.771 173.717 117.771L165.639 121.093C165.639 121.093 165.639 121.093 165.63 121.093L0.302651 189.003C0.182359 189.049 0.117424 189.179 0.13593 189.308C0.16369 189.438 0.27453 189.53 0.394822 189.53H232.827C232.975 189.53 233.095 189.41 233.095 189.253V108.083C233.095 107.935 232.975 107.806 232.827 107.806L232.836 107.843ZM194.5 189.003L200.718 173.679L215.949 175.687L213.247 189.003H194.5ZM175.216 189.003L185.747 171.699L200.173 173.605L193.927 189.003H175.216ZM155.933 189.003L171.506 169.812L185.164 171.616L174.587 189.003H155.942H155.933ZM136.658 189.003L157.941 168.026L170.877 169.738L155.239 189.012H136.658V189.003ZM117.384 189.003L145.005 166.314L157.256 167.933L135.881 189.003H117.384ZM98.1186 189.003L132.652 164.685L144.264 166.221L116.532 189.003H98.1186ZM78.8531 189.003L120.854 163.122L131.856 164.574L97.1653 189.003H78.8441H78.8531ZM59.588 189.003L109.565 161.632L120.002 163.011L77.8171 189.003H59.597H59.588ZM40.3229 189.003L98.7476 160.207L108.639 161.511L58.4404 189.003H40.3134H40.3229ZM21.0574 189.003L88.3747 158.837L97.7667 160.077L39.0827 189.003H21.0574ZM116.884 141.737L123.491 142.505L88.3006 158.273L79.4545 157.107L116.875 141.737H116.884ZM139.777 132.327L145.014 132.854L124.472 142.061L117.93 141.302L139.767 132.327H139.777ZM154.97 126.09L159.523 126.358L146.023 132.41L140.859 131.892L154.97 126.099V126.09ZM165.778 121.649L169.729 121.787L160.606 125.877L156.136 125.609L165.778 121.649ZM173.875 118.317L177.243 118.41L170.867 121.269L167.009 121.14L173.866 118.327L173.875 118.317ZM180.102 115.763L183.073 115.8L178.409 117.892L175.133 117.799L180.102 115.754V115.763ZM185.173 113.682L187.764 113.7L184.257 115.273L181.388 115.236L185.164 113.682H185.173ZM189.282 111.997L191.548 112.016L188.985 113.163L186.496 113.145L189.282 111.997ZM192.696 110.591L194.676 110.609L192.761 111.47L190.605 111.451L192.696 110.591ZM195.583 109.406H197.332L195.888 110.063L194.019 110.045L195.592 109.397L195.583 109.406ZM202.625 108.389L201.597 108.898H199.849L200.95 108.389H202.615H202.625ZM205.641 108.389L204.688 108.916H202.837L203.874 108.389H205.641ZM208.648 108.389L207.77 108.935H205.817L206.789 108.389H208.658H208.648ZM211.656 108.389L210.85 108.953H208.797L209.694 108.389H211.656ZM214.654 108.389L213.941 108.972L211.785 108.953L212.599 108.379H214.654V108.389ZM217.652 108.389L217.041 108.99L214.793 108.972L215.514 108.379H217.652V108.389ZM220.65 108.389L220.141 109.018L217.809 108.999L218.429 108.389H220.65ZM223.648 108.389L223.259 109.036L220.844 109.018L221.353 108.389H223.648ZM226.628 108.389L226.359 109.055L223.879 109.036L224.277 108.389H226.628ZM229.607 108.389L229.468 109.073L226.942 109.055L227.21 108.389H229.607ZM218.151 129.292L211.785 128.912L215.163 123.36L220.474 123.545L218.142 129.292H218.151ZM221.057 123.564L226.489 123.749L225.277 129.708L218.716 129.319L221.057 123.555V123.564ZM207.205 118.697L203.115 118.586L206.113 116.124L209.768 116.171L207.205 118.697ZM210.527 116.18L214.284 116.235L212.174 118.836L207.954 118.715L210.527 116.18ZM206.77 115.578L208.861 113.867L212.091 113.894L210.333 115.634L206.779 115.588L206.77 115.578ZM205.919 115.569L202.476 115.523L204.873 113.839L208.001 113.867L205.919 115.578V115.569ZM205.262 116.106L202.282 118.558L198.322 118.447L201.718 116.06L205.271 116.106H205.262ZM197.406 118.419L193.575 118.317L197.332 116.004L200.774 116.05L197.397 118.428L197.406 118.419ZM196.647 118.956L192.298 122.019L187.82 121.861L192.715 118.845L196.647 118.956ZM197.563 118.974L201.625 119.085L197.841 122.194L193.214 122.037L197.563 118.974ZM197.193 122.731L191.169 127.682L185.663 127.358L192.465 122.565L197.193 122.731ZM198.017 122.759L202.902 122.925L197.683 128.07L191.965 127.728L198.017 122.759ZM198.664 122.231L202.458 119.113L206.659 119.233L203.448 122.398L198.664 122.231ZM207.409 119.252L211.739 119.372L209.12 122.592L204.188 122.426L207.409 119.252ZM212.424 119.391L216.875 119.511L214.876 122.787L209.805 122.611L212.424 119.381V119.391ZM212.859 118.854L214.978 116.245L218.836 116.3L217.208 118.984L212.868 118.863L212.859 118.854ZM215.422 115.699L216.856 113.931L220.252 113.959L219.16 115.754L215.413 115.699H215.422ZM214.737 115.689L211.082 115.643L212.849 113.904L216.171 113.931L214.737 115.699V115.689ZM213.405 113.348L214.598 112.164L217.569 112.182L216.606 113.367L213.395 113.339L213.405 113.348ZM212.637 113.339L209.518 113.311L210.953 112.136L213.84 112.155L212.646 113.339H212.637ZM208.667 113.311L205.651 113.284L207.316 112.118L210.101 112.136L208.667 113.311ZM204.707 113.284L201.792 113.265L203.679 112.099L206.372 112.118L204.716 113.284H204.707ZM203.929 113.82L201.542 115.504L198.211 115.458L200.903 113.802L203.929 113.83V113.82ZM197.193 115.449L193.973 115.403L196.953 113.774L199.876 113.793L197.193 115.449ZM196.314 115.986L192.575 118.29L188.884 118.188L192.983 115.939L196.305 115.986H196.314ZM191.724 118.817L186.848 121.824L182.526 121.676L187.94 118.715L191.734 118.817H191.724ZM185.996 122.343L178.548 126.932L173.467 126.627L181.583 122.185L186.006 122.343H185.996ZM186.987 122.38L191.567 122.537L184.794 127.302L179.501 126.988L186.987 122.37V122.38ZM184.063 127.82L173.588 135.195L167.231 134.557L178.677 127.506L184.063 127.83V127.82ZM184.941 127.867L190.54 128.2L181.101 135.954L174.411 135.279L184.932 127.867H184.941ZM191.345 128.246L197.165 128.588L188.902 136.731L181.87 136.019L191.336 128.237L191.345 128.246ZM197.896 128.635L203.939 128.996L196.989 137.555L189.605 136.805L197.896 128.635ZM198.424 128.117L203.661 122.953L208.695 123.129L204.364 128.468L198.424 128.117ZM209.37 123.157L214.552 123.333L211.184 128.875L205.031 128.514L209.37 123.157ZM215.496 122.814L217.494 119.53L222.056 119.659L220.706 122.999L215.496 122.824V122.814ZM217.827 118.993L219.465 116.309L223.398 116.365L222.278 119.122L217.827 119.002V118.993ZM219.799 115.754L220.89 113.959L224.36 113.987L223.62 115.81L219.799 115.754ZM221.224 113.404L221.945 112.21L225.064 112.229L224.583 113.422L221.224 113.395V113.404ZM220.594 113.404L217.3 113.376L218.263 112.192L221.316 112.21L220.594 113.404ZM218.716 111.646L219.41 110.794L222.177 110.813L221.658 111.664L218.716 111.646ZM218.022 111.637L215.163 111.618L216.023 110.767L218.716 110.785L218.022 111.637ZM214.386 111.618L211.61 111.6L212.646 110.748L215.246 110.767L214.386 111.618ZM210.758 111.59L208.084 111.572L209.296 110.72L211.804 110.739L210.767 111.59H210.758ZM207.14 111.562L204.558 111.544L205.946 110.693L208.352 110.711L207.14 111.562ZM203.531 111.544L201.051 111.525L202.615 110.665L204.919 110.683L203.531 111.544ZM202.652 112.081L200.765 113.247L197.952 113.228L200.071 112.071L202.652 112.09V112.081ZM196.823 113.219L194.121 113.2L196.462 112.044L198.942 112.062L196.823 113.219ZM195.833 113.765L192.862 115.393L189.763 115.347L193.02 113.746L195.833 113.765ZM191.881 115.921L187.81 118.151L184.257 118.049L188.671 115.875L191.881 115.921ZM186.848 118.678L181.453 121.63L177.289 121.482L183.202 118.567L186.857 118.669L186.848 118.678ZM180.5 122.157L172.431 126.58L167.564 126.294L176.243 122.019L180.51 122.167L180.5 122.157ZM171.524 127.071L159.329 133.752L153.592 133.169L166.565 126.775L171.524 127.071ZM172.552 127.136L177.724 127.441L166.333 134.464L160.291 133.854L172.552 127.136ZM165.565 134.936L149.289 144.967L141.636 144.069L159.44 134.316L165.565 134.936ZM166.463 135.029L172.903 135.676L158.237 146.003L150.168 145.059L166.463 135.019V135.029ZM173.736 135.76L180.51 136.444L167.546 147.095L159.051 146.105L173.736 135.769V135.76ZM181.268 136.519L188.384 137.24L177.243 148.224L168.295 147.178L181.268 136.519ZM189.096 137.314L196.573 138.073L187.375 149.408L177.946 148.307L189.096 137.314ZM197.22 138.129L205.067 138.924L197.942 150.639L188.014 149.482L197.22 138.138V138.129ZM197.637 137.62L204.605 129.033L210.86 129.403L205.382 138.397L197.637 137.61V137.62ZM211.461 129.44L217.93 129.819L214.089 139.276L205.965 138.452L211.452 129.43L211.461 129.44ZM218.503 129.856L225.175 130.254L223.158 140.192L214.663 139.331L218.512 129.856H218.503ZM225.711 130.291L232.568 130.698V141.154L223.685 140.257L225.702 130.291H225.711ZM225.822 129.745L227.035 123.768L232.568 123.962V130.143L225.822 129.745ZM232.568 123.407L227.146 123.222L227.84 119.816L232.578 119.946V123.407H232.568ZM226.6 123.203L221.279 123.018L222.639 119.678L227.294 119.807L226.609 123.203H226.6ZM222.852 119.132L223.972 116.365L227.969 116.42L227.396 119.261L222.852 119.132ZM224.203 115.819L224.944 113.987L228.469 114.015L228.09 115.865L224.203 115.81V115.819ZM225.165 113.441L225.647 112.247L228.821 112.266L228.58 113.469L225.165 113.441ZM225.869 111.692L226.211 110.841L229.098 110.859L228.922 111.711L225.859 111.692H225.869ZM225.295 111.692L222.288 111.674L222.806 110.822L225.638 110.841L225.295 111.692ZM223.13 110.267L223.546 109.582L226.137 109.601L225.859 110.286L223.139 110.267H223.13ZM222.501 110.267L219.845 110.249L220.391 109.573L222.917 109.592L222.501 110.276V110.267ZM219.151 110.239L216.569 110.221L217.254 109.545L219.697 109.564L219.151 110.239ZM215.801 110.212L213.312 110.193L214.126 109.527L216.486 109.545L215.801 110.221V110.212ZM212.461 110.193L210.064 110.174L211.008 109.508L213.275 109.527L212.461 110.193ZM209.13 110.165L206.835 110.147L207.908 109.49L210.073 109.508L209.13 110.174V110.165ZM205.808 110.137L203.615 110.119L204.818 109.462H206.881L205.808 110.137ZM202.486 110.119L200.395 110.1L201.718 109.444H203.679L202.486 110.11V110.119ZM201.496 110.656L199.932 111.516L197.563 111.498L199.302 110.637L201.496 110.656ZM196.342 111.488L194.074 111.47L195.99 110.609L198.081 110.628L196.342 111.488ZM195.231 112.034L192.89 113.191L190.29 113.173L192.853 112.025L195.222 112.044L195.231 112.034ZM191.798 113.728L188.56 115.329L185.571 115.292L189.096 113.709L191.798 113.728ZM187.468 115.865L183.082 118.03L179.667 117.938L184.377 115.828L187.468 115.875V115.865ZM182.018 118.549L176.123 121.454L172.117 121.315L178.511 118.456L182.027 118.558L182.018 118.549ZM175.087 121.963L166.463 126.21L161.799 125.933L170.988 121.815L175.096 121.954L175.087 121.963ZM165.464 126.71L152.565 133.067L147.114 132.521L160.698 126.432L165.454 126.719L165.464 126.71ZM151.63 133.53L132.429 142.996L125.536 142.191L146.106 132.974L151.63 133.53ZM152.657 133.631L158.478 134.214L140.693 143.949L133.429 143.098L152.657 133.622V133.631ZM139.86 144.411L109.454 161.067L99.6268 159.772L132.513 143.56L139.85 144.421L139.86 144.411ZM140.804 144.523L148.539 145.429L120.733 162.557L110.379 161.188L140.804 144.523ZM149.409 145.531L157.561 146.484L132.522 164.121L121.594 162.677L149.419 145.54L149.409 145.531ZM158.375 146.577L166.963 147.576L144.848 165.74L133.318 164.213L158.375 146.568V146.577ZM167.712 147.659L176.753 148.714L157.756 167.443L145.588 165.833L167.712 147.659ZM177.437 148.798L186.959 149.908L171.275 169.229L158.431 167.535L177.437 148.798ZM187.597 149.982L197.619 151.148L185.469 171.107L171.904 169.312L187.588 149.982H187.597ZM198.211 151.222L208.75 152.453L200.385 173.078L186.061 171.19L198.211 151.231V151.222ZM198.525 150.704L205.66 138.98L213.886 139.813L208.972 151.925L198.535 150.704H198.525ZM214.441 139.868L223.046 140.738L220.502 153.267L209.518 151.99L214.432 139.868H214.441ZM223.583 140.793L232.578 141.7V154.673L221.048 153.332L223.592 140.793H223.583ZM227.951 119.27L228.524 116.43L232.568 116.485V119.4L227.941 119.27H227.951ZM228.635 115.875L229.015 114.015L232.578 114.042V115.921L228.645 115.865L228.635 115.875ZM229.126 113.469L229.366 112.266L232.568 112.284V113.496L229.117 113.469H229.126ZM229.478 111.72L229.653 110.868L232.578 110.887V111.729L229.487 111.711L229.478 111.72ZM232.568 110.341L229.765 110.323L229.903 109.629L232.568 109.647V110.341ZM229.218 110.313L226.442 110.295L226.72 109.61L229.357 109.629L229.218 110.323V110.313ZM200.506 109.434L199.182 110.082L197.202 110.063L198.655 109.416H200.506V109.434ZM124.555 142.626L131.522 143.44L98.6549 159.642L89.3371 158.412L124.555 142.635V142.626ZM200.931 173.152L209.305 152.517L220.391 153.813L216.06 175.151L200.931 173.152ZM220.927 153.878L232.568 155.238V177.335L216.597 175.225L220.927 153.878ZM232.568 109.092L230.014 109.073L230.153 108.389H232.568V109.092ZM198.054 108.389H199.617L198.535 108.87H196.897L198.054 108.389ZM78.437 157.523L87.3477 158.698L19.725 189.003H1.80133L78.437 157.523ZM213.803 189.003L216.486 175.761L232.568 177.89V189.012H213.793L213.803 189.003Z" fill="#727272"/>
<path d="M155.593 43.7357C155.593 43.7357 150.096 43.3286 150.994 51.5455C150.994 51.5455 153.631 59.4663 151.53 60.6969C149.43 61.9369 143.036 61.8443 142.814 65.0275C142.592 68.2106 142.638 78.056 142.287 82.3588C141.935 86.6615 141.657 96.9974 141.306 99.4958C140.954 101.994 140.464 106.019 144.257 107.962C144.257 107.962 144.822 107.898 144.183 106.371C143.554 104.844 144.109 104.631 144.322 102.966C144.535 101.309 144.6 100.338 144.396 97.9042C144.183 95.4798 146.645 89.9927 146.709 86.8096C146.774 83.6264 146.848 75.5761 146.848 75.5761C146.848 75.5761 148.236 80.4711 148.31 82.8307C148.384 85.1903 145.701 95.3133 145.701 97.4601C145.701 99.6068 148.967 116.559 150.022 120.417C151.077 124.276 152.03 137.434 154.353 144.226C154.353 144.226 155.167 147.52 154.279 151.712C153.381 155.904 151.225 157.31 153.307 158.041C155.389 158.772 158.748 156.274 159.118 155.321C159.488 154.368 158.22 149.065 158.22 146.345C158.22 143.624 156.879 127.7 156.814 124.674C156.758 121.648 154.889 103.317 155.796 102.429C156.694 101.541 159.183 122.416 159.183 122.416C159.183 122.416 159.84 124.72 160.728 127.339C161.616 129.957 161.45 133.455 163.143 141.237C164.837 149.019 162.422 158.43 166.364 158.171C170.305 157.911 168.057 154.497 167.733 149.093C167.409 143.689 167.252 134.714 166.04 123.758C164.892 113.348 167.307 91.7508 164.096 85.1902C163.597 84.1539 163.31 83.0342 163.31 81.8868C163.319 79.7401 163.81 76.3071 166.114 72.1339C166.114 72.1339 167.076 71.6528 167.242 75.3078C167.4 78.9628 167.566 96.1183 167.242 98.0245C166.918 99.9307 166.521 104.853 167.964 104.853C167.964 104.853 167.566 108.823 169.408 107.796C171.259 106.76 171.101 103.586 170.777 99.4587C170.453 95.3318 171.175 86.5875 171.666 82.22C172.147 77.8525 172.471 62.6771 167.483 61.8073C162.496 60.9375 157.304 60.0585 159.821 53.4702C162.338 46.8819 159.386 43.7543 155.593 43.7543V43.7357Z" fill="#727272"/>
<path d="M102.557 18.2439C102.557 18.2439 94.8119 17.6702 96.0703 29.2552C96.0703 29.2552 99.7899 40.4239 96.8289 42.1635C93.8679 43.9031 84.8459 43.7829 84.5313 48.2707C84.2167 52.7585 84.2909 66.6476 83.7912 72.7085C83.2916 78.7694 82.9029 93.3432 82.4032 96.8687C81.9036 100.394 81.2188 106.066 86.5672 108.805C86.5672 108.805 87.3627 108.704 86.4651 106.557C85.5768 104.401 86.3633 104.095 86.6594 101.754C86.9555 99.4134 87.0576 98.0439 86.7615 94.6202C86.4654 91.1964 89.9259 83.47 90.0277 78.9729C90.1295 74.4759 90.222 63.1314 90.222 63.1314C90.222 63.1314 92.1836 70.0343 92.2854 73.3562C92.3872 76.6781 88.6026 90.9559 88.6026 93.9817C88.6026 97.0075 93.2016 120.909 94.6913 126.349C96.1811 131.8 97.5229 150.343 100.799 159.92C100.799 159.92 101.946 164.565 100.687 170.478C99.429 176.391 96.3754 178.362 99.318 179.408C102.26 180.444 106.989 176.918 107.516 175.567C108.044 174.217 106.258 166.749 106.258 162.909C106.258 159.069 104.361 136.621 104.278 132.355C104.194 128.089 101.566 102.245 102.834 100.996C104.102 99.7372 107.609 129.181 107.609 129.181C107.609 129.181 108.534 132.429 109.783 136.121C111.033 139.813 110.801 144.745 113.189 155.719C115.576 166.694 112.171 179.963 117.723 179.602C123.275 179.241 120.101 174.42 119.648 166.805C119.194 159.189 118.963 146.531 117.269 131.078C115.65 116.393 119.055 85.9499 114.54 76.6966C113.827 75.2439 113.429 73.6523 113.439 72.0423C113.457 69.0165 114.151 64.1677 117.389 58.2827C117.389 58.2827 118.75 57.6072 118.981 62.7612C119.212 67.9153 119.435 92.1033 118.981 94.796C118.528 97.4887 117.963 104.429 119.999 104.429C119.999 104.429 119.435 110.027 122.044 108.574C124.653 107.121 124.422 102.643 123.969 96.8132C123.515 90.9929 124.533 78.6675 125.218 72.5141C125.903 66.3515 126.356 44.9673 119.324 43.7273C112.291 42.4966 104.972 41.2659 108.516 31.9664C112.06 22.6669 107.896 18.2624 102.557 18.2624V18.2439Z" fill="#727272"/>
<path d="M195.004 70.3018C195.004 70.3018 191.784 70.0612 192.302 74.8821C192.302 74.8821 193.847 79.5272 192.617 80.2582C191.386 80.98 187.629 80.9337 187.5 82.8029C187.37 84.672 187.398 90.4553 187.194 92.9814C186.991 95.5076 186.824 101.578 186.621 103.04C186.417 104.502 186.13 106.871 188.351 108.009C188.351 108.009 188.684 107.972 188.314 107.074C187.944 106.177 188.277 106.047 188.398 105.075C188.518 104.104 188.564 103.53 188.434 102.105C188.305 100.68 189.758 97.46 189.795 95.5909C189.832 93.7217 189.878 88.9933 189.878 88.9933C189.878 88.9933 190.692 91.8711 190.738 93.2498C190.775 94.6378 189.202 100.578 189.202 101.837C189.202 103.095 191.118 113.042 191.738 115.319C192.358 117.586 192.913 125.312 194.282 129.291C194.282 129.291 194.763 131.225 194.236 133.686C193.708 136.148 192.441 136.971 193.672 137.406C194.893 137.841 196.864 136.37 197.086 135.805C197.308 135.241 196.559 132.132 196.559 130.531C196.559 128.93 195.772 119.585 195.735 117.808C195.698 116.031 194.606 105.27 195.134 104.752C195.661 104.233 197.123 116.485 197.123 116.485C197.123 116.485 197.512 117.836 198.03 119.372C198.548 120.908 198.456 122.962 199.446 127.533C200.436 132.104 199.02 137.628 201.334 137.48C203.647 137.332 202.323 135.324 202.138 132.15C201.953 128.977 201.852 123.711 201.148 117.28C200.473 111.164 201.889 98.4871 200.01 94.6378C199.714 94.0363 199.548 93.3701 199.548 92.6946C199.548 91.4361 199.843 89.4189 201.194 86.9668C201.194 86.9668 201.759 86.6892 201.851 88.836C201.944 90.9828 202.036 101.05 201.851 102.17C201.666 103.29 201.426 106.177 202.277 106.177C202.277 106.177 202.037 108.508 203.129 107.898C204.221 107.287 204.118 105.427 203.933 103.003C203.748 100.578 204.174 95.4521 204.452 92.8889C204.738 90.3258 204.924 81.4149 202 80.906C199.076 80.397 196.022 79.8789 197.503 76.011C198.983 72.1432 197.243 70.3018 195.023 70.3018H195.004Z" fill="#727272"/>
<path d="M219.701 96.7385C222.097 94.7675 220.895 91.0848 218.267 89.6135C217.314 89.1231 216.111 88.8732 214.917 89.1231C210.364 90.3538 208.218 96.0075 210.605 99.9401C209.171 97.9692 208.93 95.5171 209.883 93.0557C210.836 90.3538 213.474 88.3828 216.351 88.3828C218.989 88.3828 221.616 90.3538 222.098 93.2963C222.338 95.7577 220.904 98.2098 218.507 98.7002C217.313 98.95 216.351 98.4504 215.398 97.7194C217.313 99.4405 219.951 99.4404 221.866 96.9791C222.819 95.5078 223.3 93.7867 222.588 91.8158C222.107 90.3445 221.153 89.3544 219.719 88.3736C217.563 87.1429 215.167 87.1429 212.539 88.1237C215.176 86.4026 218.526 86.8931 221.154 88.864C222.829 90.0947 223.31 91.8158 223.55 93.7775C223.791 95.989 222.828 97.9599 220.913 99.1813C218.044 100.902 214.214 99.9216 213.492 96.2296C213.492 95.2487 213.973 94.2586 214.445 93.2778C213.964 93.7682 213.492 94.2587 213.251 94.9989C212.77 97.4603 213.973 99.6718 216.601 100.653C219.71 101.393 222.829 99.6718 224.022 96.4701C224.975 94.2586 224.263 92.0471 223.782 89.8356C225.216 92.7874 225.457 96.72 222.829 99.4219C219.96 102.124 214.926 102.374 212.77 98.4411C211.817 96.2296 211.817 93.2778 214.204 91.8065C215.639 91.0663 217.313 90.8257 218.757 92.2969C217.804 91.3161 216.361 90.5758 214.445 91.3161C213.011 92.0563 211.808 93.0372 211.577 95.4986C211.336 96.7292 211.817 98.2005 212.298 99.4312C213.492 101.402 215.407 102.383 217.804 102.383C219.238 102.633 220.673 101.643 222.116 101.643C220.922 102.383 219.247 102.873 217.804 102.873C214.454 102.624 211.336 100.412 210.864 96.7293C210.383 93.0372 213.501 89.6043 217.091 89.8449C218.766 90.0947 220.2 91.5659 220.682 93.5369C220.922 94.5177 220.682 95.7484 219.729 96.7293L219.701 96.7385Z" fill="#727272"/>
</svg>
