<svg width="120" height="121" viewBox="0 0 120 121" fill="none" xmlns="http://www.w3.org/2000/svg">
<path d="M15.6094 15V1.25H19.3359C20.3359 1.25 21.0625 1.49479 21.5156 1.98438C21.974 2.46875 22.2031 3.27083 22.2031 4.39062V4.99219C22.2031 5.63802 22.0859 6.16146 21.8516 6.5625C21.6224 6.96354 21.2708 7.22656 20.7969 7.35156C21.4167 7.50781 21.8307 7.875 22.0391 8.45312C22.2526 9.02604 22.3594 9.72656 22.3594 10.5547C22.3594 11.4453 22.276 12.224 22.1094 12.8906C21.9427 13.5573 21.6406 14.0755 21.2031 14.4453C20.7656 14.8151 20.1432 15 19.3359 15H15.6094ZM18.2969 6.42969H18.8594C19.1146 6.42969 19.2786 6.33073 19.3516 6.13281C19.4245 5.9349 19.4609 5.69792 19.4609 5.42188V4.03906C19.4609 3.59635 19.2656 3.375 18.875 3.375H18.2969V6.42969ZM18.5703 12.5781C19.2839 12.5781 19.6406 12.2396 19.6406 11.5625V9.84375C19.6406 9.45312 19.5807 9.14583 19.4609 8.92188C19.3464 8.69271 19.1276 8.57812 18.8047 8.57812H18.2969V12.5625C18.4115 12.5729 18.5026 12.5781 18.5703 12.5781ZM23.2656 15V1.25H28.7656V3.90625H26.0625V6.58594H28.6562V9.17188H26.0625V12.3203H28.9453V15H23.2656ZM29.8594 15V1.25H32.6094V12.6562H35.4375V15H29.8594ZM39.5 15.125C38.401 15.125 37.5599 14.7943 36.9766 14.1328C36.3984 13.4661 36.1094 12.5052 36.1094 11.25V4.71875C36.1094 3.54167 36.3958 2.64844 36.9688 2.03906C37.5469 1.42969 38.3906 1.125 39.5 1.125C40.6094 1.125 41.4505 1.42969 42.0234 2.03906C42.6016 2.64844 42.8906 3.54167 42.8906 4.71875V11.25C42.8906 12.5052 42.599 13.4661 42.0156 14.1328C41.4375 14.7943 40.599 15.125 39.5 15.125ZM39.5234 12.5938C39.9401 12.5938 40.1484 12.1901 40.1484 11.3828V4.67188C40.1484 3.99479 39.9453 3.65625 39.5391 3.65625C39.0807 3.65625 38.8516 4.0026 38.8516 4.69531V11.3984C38.8516 11.8255 38.9036 12.1328 39.0078 12.3203C39.112 12.5026 39.2839 12.5938 39.5234 12.5938ZM44 15V1.25H46.8281L48.0938 7.83594V1.25H50.75V15H48.0625L46.6875 8.125V15H44ZM58.0469 16.4609L55.8594 15.0234C55.6094 15.0911 55.3516 15.125 55.0859 15.125C54.013 15.125 53.1927 14.8073 52.625 14.1719C52.0625 13.5365 51.7812 12.6094 51.7812 11.3906V4.74219C51.7812 3.5599 52.0703 2.66146 52.6484 2.04688C53.2318 1.43229 54.0729 1.125 55.1719 1.125C56.2708 1.125 57.1094 1.43229 57.6875 2.04688C58.2708 2.66146 58.5625 3.5599 58.5625 4.74219V11.3906C58.5625 12.526 58.3073 13.4193 57.7969 14.0703L58.9766 14.8203L58.0469 16.4609ZM55.1719 12.5938C55.3698 12.5938 55.5104 12.5208 55.5938 12.375C55.6823 12.2292 55.737 12.0495 55.7578 11.8359C55.7839 11.6224 55.7969 11.4167 55.7969 11.2188V4.78906C55.7969 4.4974 55.7552 4.23698 55.6719 4.00781C55.5938 3.77344 55.4219 3.65625 55.1562 3.65625C54.8854 3.65625 54.7083 3.77083 54.625 4C54.5417 4.22396 54.5 4.48438 54.5 4.78125V11.2734C54.5 11.4557 54.5104 11.651 54.5312 11.8594C54.5573 12.0625 54.6172 12.237 54.7109 12.3828C54.8047 12.5234 54.9583 12.5938 55.1719 12.5938ZM63.625 15V1.25H67.3516C68.3516 1.25 69.0781 1.49479 69.5312 1.98438C69.9896 2.46875 70.2188 3.27083 70.2188 4.39062V4.99219C70.2188 5.63802 70.1016 6.16146 69.8672 6.5625C69.638 6.96354 69.2865 7.22656 68.8125 7.35156C69.4323 7.50781 69.8464 7.875 70.0547 8.45312C70.2682 9.02604 70.375 9.72656 70.375 10.5547C70.375 11.4453 70.2917 12.224 70.125 12.8906C69.9583 13.5573 69.6562 14.0755 69.2188 14.4453C68.7812 14.8151 68.1589 15 67.3516 15H63.625ZM66.3125 6.42969H66.875C67.1302 6.42969 67.2943 6.33073 67.3672 6.13281C67.4401 5.9349 67.4766 5.69792 67.4766 5.42188V4.03906C67.4766 3.59635 67.2812 3.375 66.8906 3.375H66.3125V6.42969ZM66.5859 12.5781C67.2995 12.5781 67.6562 12.2396 67.6562 11.5625V9.84375C67.6562 9.45312 67.5964 9.14583 67.4766 8.92188C67.362 8.69271 67.1432 8.57812 66.8203 8.57812H66.3125V12.5625C66.4271 12.5729 66.5182 12.5781 66.5859 12.5781ZM71.2812 15V1.25H76.7812V3.90625H74.0781V6.58594H76.6719V9.17188H74.0781V12.3203H76.9609V15H71.2812ZM77.875 15V1.25H80.625V12.6562H83.4531V15H77.875ZM87.5156 15.125C86.4167 15.125 85.5755 14.7943 84.9922 14.1328C84.4141 13.4661 84.125 12.5052 84.125 11.25V4.71875C84.125 3.54167 84.4115 2.64844 84.9844 2.03906C85.5625 1.42969 86.4062 1.125 87.5156 1.125C88.625 1.125 89.4661 1.42969 90.0391 2.03906C90.6172 2.64844 90.9062 3.54167 90.9062 4.71875V11.25C90.9062 12.5052 90.6146 13.4661 90.0312 14.1328C89.4531 14.7943 88.6146 15.125 87.5156 15.125ZM87.5391 12.5938C87.9557 12.5938 88.1641 12.1901 88.1641 11.3828V4.67188C88.1641 3.99479 87.9609 3.65625 87.5547 3.65625C87.0964 3.65625 86.8672 4.0026 86.8672 4.69531V11.3984C86.8672 11.8255 86.9193 12.1328 87.0234 12.3203C87.1276 12.5026 87.2995 12.5938 87.5391 12.5938ZM92.0156 15V1.25H94.8438L96.1094 7.83594V1.25H98.7656V15H96.0781L94.7031 8.125V15H92.0156ZM106.062 16.4609L103.875 15.0234C103.625 15.0911 103.367 15.125 103.102 15.125C102.029 15.125 101.208 14.8073 100.641 14.1719C100.078 13.5365 99.7969 12.6094 99.7969 11.3906V4.74219C99.7969 3.5599 100.086 2.66146 100.664 2.04688C101.247 1.43229 102.089 1.125 103.188 1.125C104.286 1.125 105.125 1.43229 105.703 2.04688C106.286 2.66146 106.578 3.5599 106.578 4.74219V11.3906C106.578 12.526 106.323 13.4193 105.812 14.0703L106.992 14.8203L106.062 16.4609ZM103.188 12.5938C103.385 12.5938 103.526 12.5208 103.609 12.375C103.698 12.2292 103.753 12.0495 103.773 11.8359C103.799 11.6224 103.812 11.4167 103.812 11.2188V4.78906C103.812 4.4974 103.771 4.23698 103.688 4.00781C103.609 3.77344 103.438 3.65625 103.172 3.65625C102.901 3.65625 102.724 3.77083 102.641 4C102.557 4.22396 102.516 4.48438 102.516 4.78125V11.2734C102.516 11.4557 102.526 11.651 102.547 11.8594C102.573 12.0625 102.633 12.237 102.727 12.3828C102.82 12.5234 102.974 12.5938 103.188 12.5938Z" fill="black"/>
<path d="M15.6094 118.811V105.061H19.3359C20.3359 105.061 21.0625 105.305 21.5156 105.795C21.974 106.279 22.2031 107.081 22.2031 108.201V108.803C22.2031 109.449 22.0859 109.972 21.8516 110.373C21.6224 110.774 21.2708 111.037 20.7969 111.162C21.4167 111.318 21.8307 111.686 22.0391 112.264C22.2526 112.837 22.3594 113.537 22.3594 114.365C22.3594 115.256 22.276 116.035 22.1094 116.701C21.9427 117.368 21.6406 117.886 21.2031 118.256C20.7656 118.626 20.1432 118.811 19.3359 118.811H15.6094ZM18.2969 110.24H18.8594C19.1146 110.24 19.2786 110.141 19.3516 109.943C19.4245 109.745 19.4609 109.508 19.4609 109.232V107.85C19.4609 107.407 19.2656 107.186 18.875 107.186H18.2969V110.24ZM18.5703 116.389C19.2839 116.389 19.6406 116.05 19.6406 115.373V113.654C19.6406 113.264 19.5807 112.956 19.4609 112.732C19.3464 112.503 19.1276 112.389 18.8047 112.389H18.2969V116.373C18.4115 116.383 18.5026 116.389 18.5703 116.389ZM23.2656 118.811V105.061H28.7656V107.717H26.0625V110.396H28.6562V112.982H26.0625V116.131H28.9453V118.811H23.2656ZM29.8594 118.811V105.061H32.6094V116.467H35.4375V118.811H29.8594ZM39.5 118.936C38.401 118.936 37.5599 118.605 36.9766 117.943C36.3984 117.277 36.1094 116.316 36.1094 115.061V108.529C36.1094 107.352 36.3958 106.459 36.9688 105.85C37.5469 105.24 38.3906 104.936 39.5 104.936C40.6094 104.936 41.4505 105.24 42.0234 105.85C42.6016 106.459 42.8906 107.352 42.8906 108.529V115.061C42.8906 116.316 42.599 117.277 42.0156 117.943C41.4375 118.605 40.599 118.936 39.5 118.936ZM39.5234 116.404C39.9401 116.404 40.1484 116.001 40.1484 115.193V108.482C40.1484 107.805 39.9453 107.467 39.5391 107.467C39.0807 107.467 38.8516 107.813 38.8516 108.506V115.209C38.8516 115.636 38.9036 115.943 39.0078 116.131C39.112 116.313 39.2839 116.404 39.5234 116.404ZM44 118.811V105.061H46.8281L48.0938 111.646V105.061H50.75V118.811H48.0625L46.6875 111.936V118.811H44ZM58.0469 120.271L55.8594 118.834C55.6094 118.902 55.3516 118.936 55.0859 118.936C54.013 118.936 53.1927 118.618 52.625 117.982C52.0625 117.347 51.7812 116.42 51.7812 115.201V108.553C51.7812 107.37 52.0703 106.472 52.6484 105.857C53.2318 105.243 54.0729 104.936 55.1719 104.936C56.2708 104.936 57.1094 105.243 57.6875 105.857C58.2708 106.472 58.5625 107.37 58.5625 108.553V115.201C58.5625 116.337 58.3073 117.23 57.7969 117.881L58.9766 118.631L58.0469 120.271ZM55.1719 116.404C55.3698 116.404 55.5104 116.331 55.5938 116.186C55.6823 116.04 55.737 115.86 55.7578 115.646C55.7839 115.433 55.7969 115.227 55.7969 115.029V108.6C55.7969 108.308 55.7552 108.048 55.6719 107.818C55.5938 107.584 55.4219 107.467 55.1562 107.467C54.8854 107.467 54.7083 107.581 54.625 107.811C54.5417 108.035 54.5 108.295 54.5 108.592V115.084C54.5 115.266 54.5104 115.462 54.5312 115.67C54.5573 115.873 54.6172 116.048 54.7109 116.193C54.8047 116.334 54.9583 116.404 55.1719 116.404ZM63.625 118.811V105.061H67.4062C68.3958 105.061 69.1406 105.337 69.6406 105.889C70.1406 106.436 70.3906 107.238 70.3906 108.295V114.732C70.3906 116.035 70.1615 117.04 69.7031 117.748C69.25 118.456 68.4531 118.811 67.3125 118.811H63.625ZM66.3906 116.381H66.8672C67.3724 116.381 67.625 116.136 67.625 115.646V108.553C67.625 108.094 67.5625 107.8 67.4375 107.67C67.3177 107.535 67.0703 107.467 66.6953 107.467H66.3906V116.381ZM71.5156 118.811V105.061H77.0156V107.717H74.3125V110.396H76.9062V112.982H74.3125V116.131H77.1953V118.811H71.5156ZM81.375 118.936C80.1198 118.936 79.2135 118.623 78.6562 117.998C78.1042 117.373 77.8281 116.378 77.8281 115.014V113.67H80.5469V115.389C80.5469 115.706 80.5938 115.956 80.6875 116.139C80.7865 116.316 80.9557 116.404 81.1953 116.404C81.4453 116.404 81.6172 116.331 81.7109 116.186C81.8099 116.04 81.8594 115.8 81.8594 115.467C81.8594 115.045 81.8177 114.693 81.7344 114.412C81.651 114.126 81.5052 113.855 81.2969 113.6C81.0938 113.339 80.8099 113.037 80.4453 112.693L79.2109 111.521C78.2891 110.652 77.8281 109.657 77.8281 108.537C77.8281 107.365 78.099 106.472 78.6406 105.857C79.1875 105.243 79.9766 104.936 81.0078 104.936C82.2682 104.936 83.1615 105.271 83.6875 105.943C84.2188 106.615 84.4844 107.636 84.4844 109.006H81.6875V108.061C81.6875 107.873 81.6328 107.727 81.5234 107.623C81.4193 107.519 81.276 107.467 81.0938 107.467C80.875 107.467 80.7135 107.529 80.6094 107.654C80.5104 107.774 80.4609 107.93 80.4609 108.123C80.4609 108.316 80.513 108.524 80.6172 108.748C80.7214 108.972 80.9271 109.23 81.2344 109.521L82.8203 111.045C83.138 111.347 83.4297 111.667 83.6953 112.006C83.9609 112.339 84.1745 112.73 84.3359 113.178C84.4974 113.62 84.5781 114.162 84.5781 114.803C84.5781 116.094 84.3385 117.107 83.8594 117.842C83.3854 118.571 82.5573 118.936 81.375 118.936ZM85.375 118.811V105.061H88.0312V118.811H85.375ZM91.9609 118.936C89.9974 118.936 89.0156 117.529 89.0156 114.717V108.787C89.0156 106.219 90.1406 104.936 92.3906 104.936C93.3177 104.936 94.0286 105.123 94.5234 105.498C95.0182 105.868 95.3594 106.41 95.5469 107.123C95.7344 107.837 95.8281 108.706 95.8281 109.732H93.1406V108.514C93.1406 108.217 93.099 107.969 93.0156 107.771C92.9375 107.568 92.7708 107.467 92.5156 107.467C92.1979 107.467 91.987 107.574 91.8828 107.787C91.7839 108.001 91.7344 108.235 91.7344 108.49V115.154C91.7344 115.524 91.7812 115.826 91.875 116.061C91.974 116.29 92.1641 116.404 92.4453 116.404C92.737 116.404 92.9297 116.29 93.0234 116.061C93.1224 115.826 93.1719 115.519 93.1719 115.139V113.178H92.4375V110.803H95.7969V118.811H94.6953L94.2266 117.654C93.7474 118.508 92.9922 118.936 91.9609 118.936ZM96.8906 118.811V105.061H99.7188L100.984 111.646V105.061H103.641V118.811H100.953L99.5781 111.936V118.811H96.8906Z" fill="black"/>
<path d="M15 103.641L1.25 103.641L1.25 99.9141C1.25 98.9141 1.49479 98.1875 1.98437 97.7344C2.46875 97.276 3.27083 97.0469 4.39062 97.0469L4.99219 97.0469C5.63802 97.0469 6.16146 97.1641 6.5625 97.3984C6.96354 97.6276 7.22656 97.9792 7.35156 98.4531C7.50781 97.8333 7.875 97.4193 8.45312 97.2109C9.02604 96.9974 9.72656 96.8906 10.5547 96.8906C11.4453 96.8906 12.224 96.974 12.8906 97.1406C13.5573 97.3073 14.0755 97.6094 14.4453 98.0469C14.8151 98.4844 15 99.1068 15 99.9141L15 103.641ZM6.42969 100.953L6.42969 100.391C6.42969 100.135 6.33073 99.9714 6.13281 99.8984C5.9349 99.8255 5.69792 99.7891 5.42187 99.7891L4.03906 99.7891C3.59635 99.7891 3.375 99.9844 3.375 100.375L3.375 100.953L6.42969 100.953ZM12.5781 100.68C12.5781 99.9661 12.2396 99.6094 11.5625 99.6094L9.84375 99.6094C9.45312 99.6094 9.14583 99.6693 8.92187 99.7891C8.69271 99.9036 8.57812 100.122 8.57812 100.445L8.57812 100.953L12.5625 100.953C12.5729 100.839 12.5781 100.747 12.5781 100.68ZM15 95.9844L1.25 95.9844L1.25 90.4844L3.90625 90.4844L3.90625 93.1875L6.58594 93.1875L6.58594 90.5937L9.17187 90.5937L9.17187 93.1875L12.3203 93.1875L12.3203 90.3047L15 90.3047L15 95.9844ZM15 89.3906L1.25 89.3906L1.25 86.6406L12.6562 86.6406L12.6562 83.8125L15 83.8125L15 89.3906ZM15.125 79.75C15.125 80.849 14.7943 81.6901 14.1328 82.2734C13.4661 82.8516 12.5052 83.1406 11.25 83.1406L4.71875 83.1406C3.54167 83.1406 2.64844 82.8542 2.03906 82.2812C1.42969 81.7031 1.125 80.8594 1.125 79.75C1.125 78.6406 1.42969 77.7995 2.03906 77.2266C2.64844 76.6484 3.54167 76.3594 4.71875 76.3594L11.25 76.3594C12.5052 76.3594 13.4661 76.651 14.1328 77.2344C14.7943 77.8125 15.125 78.651 15.125 79.75ZM12.5937 79.7266C12.5937 79.3099 12.1901 79.1016 11.3828 79.1016L4.67187 79.1016C3.99479 79.1016 3.65625 79.3047 3.65625 79.7109C3.65625 80.1693 4.0026 80.3984 4.69531 80.3984L11.3984 80.3984C11.8255 80.3984 12.1328 80.3464 12.3203 80.2422C12.5026 80.138 12.5937 79.9661 12.5937 79.7266ZM15 75.25L1.25 75.25L1.25 72.4219L7.83594 71.1562L1.25 71.1562L1.25 68.5L15 68.5L15 71.1875L8.125 72.5625L15 72.5625L15 75.25ZM16.4609 61.2031L15.0234 63.3906C15.0911 63.6406 15.125 63.8984 15.125 64.1641C15.125 65.237 14.8073 66.0573 14.1719 66.625C13.5365 67.1875 12.6094 67.4687 11.3906 67.4687L4.74219 67.4687C3.55989 67.4687 2.66146 67.1797 2.04687 66.6016C1.43229 66.0182 1.125 65.1771 1.125 64.0781C1.125 62.9792 1.43229 62.1406 2.04687 61.5625C2.66146 60.9792 3.55989 60.6875 4.74219 60.6875L11.3906 60.6875C12.526 60.6875 13.4193 60.9427 14.0703 61.4531L14.8203 60.2734L16.4609 61.2031ZM12.5937 64.0781C12.5937 63.8802 12.5208 63.7396 12.375 63.6562C12.2292 63.5677 12.0495 63.513 11.8359 63.4922C11.6224 63.4661 11.4167 63.4531 11.2187 63.4531L4.78906 63.4531C4.49739 63.4531 4.23698 63.4948 4.00781 63.5781C3.77344 63.6562 3.65625 63.8281 3.65625 64.0937C3.65625 64.3646 3.77083 64.5417 4 64.625C4.22396 64.7083 4.48437 64.75 4.78125 64.75L11.2734 64.75C11.4557 64.75 11.651 64.7396 11.8594 64.7187C12.0625 64.6927 12.237 64.6328 12.3828 64.5391C12.5234 64.4453 12.5937 64.2917 12.5937 64.0781ZM15 55.625L1.25 55.625L1.25 51.8437C1.25 50.8542 1.52604 50.1094 2.07812 49.6094C2.625 49.1094 3.42708 48.8594 4.48437 48.8594L10.9219 48.8594C12.224 48.8594 13.2292 49.0885 13.9375 49.5469C14.6458 50 15 50.7969 15 51.9375L15 55.625ZM12.5703 52.8594L12.5703 52.3828C12.5703 51.8776 12.3255 51.625 11.8359 51.625L4.74219 51.625C4.28385 51.625 3.98958 51.6875 3.85937 51.8125C3.72396 51.9323 3.65625 52.1797 3.65625 52.5547L3.65625 52.8594L12.5703 52.8594ZM15 47.7344L1.25 47.7344L1.25 42.2344L3.90625 42.2344L3.90625 44.9375L6.58593 44.9375L6.58593 42.3437L9.17187 42.3437L9.17187 44.9375L12.3203 44.9375L12.3203 42.0547L15 42.0547L15 47.7344ZM15.125 37.875C15.125 39.1302 14.8125 40.0365 14.1875 40.5937C13.5625 41.1458 12.5677 41.4219 11.2031 41.4219L9.85937 41.4219L9.85937 38.7031L11.5781 38.7031C11.8958 38.7031 12.1458 38.6562 12.3281 38.5625C12.5052 38.4635 12.5937 38.2943 12.5937 38.0547C12.5937 37.8047 12.5208 37.6328 12.375 37.5391C12.2292 37.4401 11.9896 37.3906 11.6562 37.3906C11.2344 37.3906 10.8828 37.4323 10.6016 37.5156C10.3151 37.599 10.0443 37.7448 9.78906 37.9531C9.52864 38.1562 9.22656 38.4401 8.88281 38.8047L7.71093 40.0391C6.84114 40.9609 5.84635 41.4219 4.72656 41.4219C3.55468 41.4219 2.66146 41.151 2.04687 40.6094C1.43229 40.0625 1.125 39.2734 1.125 38.2422C1.125 36.9818 1.46093 36.0885 2.13281 35.5625C2.80468 35.0312 3.82552 34.7656 5.19531 34.7656L5.19531 37.5625L4.25 37.5625C4.0625 37.5625 3.91666 37.6172 3.8125 37.7266C3.70833 37.8307 3.65625 37.974 3.65625 38.1562C3.65625 38.375 3.71875 38.5365 3.84375 38.6406C3.96354 38.7396 4.11979 38.7891 4.3125 38.7891C4.50521 38.7891 4.71354 38.737 4.9375 38.6328C5.16146 38.5286 5.41927 38.3229 5.71093 38.0156L7.23437 36.4297C7.53646 36.112 7.85677 35.8203 8.19531 35.5547C8.52864 35.2891 8.91927 35.0755 9.36718 34.9141C9.80989 34.7526 10.3516 34.6719 10.9922 34.6719C12.2839 34.6719 13.2969 34.9115 14.0312 35.3906C14.7604 35.8646 15.125 36.6927 15.125 37.875ZM15 33.875L1.25 33.875L1.25 31.2187L15 31.2187L15 33.875ZM15.125 27.2891C15.125 29.2526 13.7187 30.2344 10.9062 30.2344L4.97656 30.2344C2.40885 30.2344 1.125 29.1094 1.125 26.8594C1.125 25.9323 1.3125 25.2214 1.6875 24.7266C2.05729 24.2318 2.59895 23.8906 3.3125 23.7031C4.02604 23.5156 4.89583 23.4219 5.92187 23.4219L5.92187 26.1094L4.70312 26.1094C4.40625 26.1094 4.15885 26.151 3.96093 26.2344C3.75781 26.3125 3.65625 26.4792 3.65625 26.7344C3.65625 27.0521 3.76302 27.263 3.97656 27.3672C4.1901 27.4661 4.42448 27.5156 4.67968 27.5156L11.3437 27.5156C11.7135 27.5156 12.0156 27.4687 12.25 27.375C12.4792 27.276 12.5937 27.0859 12.5937 26.8047C12.5937 26.513 12.4792 26.3203 12.25 26.2266C12.0156 26.1276 11.7083 26.0781 11.3281 26.0781L9.36718 26.0781L9.36718 26.8125L6.99218 26.8125L6.99218 23.4531L15 23.4531L15 24.5547L13.8437 25.0234C14.6979 25.5026 15.125 26.2578 15.125 27.2891ZM15 22.3594L1.25 22.3594L1.25 19.5312L7.83593 18.2656L1.25 18.2656L1.25 15.6094L15 15.6094L15 18.2969L8.125 19.6719L15 19.6719L15 22.3594Z" fill="black"/>
<path d="M104.234 15.6094L117.984 15.6094L117.984 19.3359C117.984 20.3359 117.74 21.0625 117.25 21.5156C116.766 21.974 115.964 22.2031 114.844 22.2031L114.242 22.2031C113.596 22.2031 113.073 22.0859 112.672 21.8516C112.271 21.6224 112.008 21.2708 111.883 20.7969C111.727 21.4167 111.359 21.8307 110.781 22.0391C110.208 22.2526 109.508 22.3594 108.68 22.3594C107.789 22.3594 107.01 22.276 106.344 22.1094C105.677 21.9427 105.159 21.6406 104.789 21.2031C104.419 20.7656 104.234 20.1432 104.234 19.3359L104.234 15.6094ZM112.805 18.2969L112.805 18.8594C112.805 19.1146 112.904 19.2786 113.102 19.3516C113.299 19.4245 113.536 19.4609 113.812 19.4609L115.195 19.4609C115.638 19.4609 115.859 19.2656 115.859 18.875L115.859 18.2969L112.805 18.2969ZM106.656 18.5703C106.656 19.2839 106.995 19.6406 107.672 19.6406L109.391 19.6406C109.781 19.6406 110.089 19.5807 110.312 19.4609C110.542 19.3464 110.656 19.1276 110.656 18.8047L110.656 18.2969L106.672 18.2969C106.661 18.4115 106.656 18.5026 106.656 18.5703ZM104.234 23.2656L117.984 23.2656L117.984 28.7656L115.328 28.7656L115.328 26.0625L112.648 26.0625L112.648 28.6562L110.062 28.6562L110.062 26.0625L106.914 26.0625L106.914 28.9453L104.234 28.9453L104.234 23.2656ZM104.234 29.8594L117.984 29.8594L117.984 32.6094L106.578 32.6094L106.578 35.4375L104.234 35.4375L104.234 29.8594ZM104.109 39.5C104.109 38.401 104.44 37.5599 105.102 36.9766C105.768 36.3984 106.729 36.1094 107.984 36.1094L114.516 36.1094C115.693 36.1094 116.586 36.3958 117.195 36.9687C117.805 37.5469 118.109 38.3906 118.109 39.5C118.109 40.6094 117.805 41.4505 117.195 42.0234C116.586 42.6016 115.693 42.8906 114.516 42.8906L107.984 42.8906C106.729 42.8906 105.768 42.599 105.102 42.0156C104.44 41.4375 104.109 40.599 104.109 39.5ZM106.641 39.5234C106.641 39.9401 107.044 40.1484 107.852 40.1484L114.562 40.1484C115.24 40.1484 115.578 39.9453 115.578 39.5391C115.578 39.0807 115.232 38.8516 114.539 38.8516L107.836 38.8516C107.409 38.8516 107.102 38.9036 106.914 39.0078C106.732 39.112 106.641 39.2839 106.641 39.5234ZM104.234 44L117.984 44L117.984 46.8281L111.398 48.0937L117.984 48.0937L117.984 50.75L104.234 50.75L104.234 48.0625L111.109 46.6875L104.234 46.6875L104.234 44ZM102.773 58.0469L104.211 55.8594C104.143 55.6094 104.109 55.3516 104.109 55.0859C104.109 54.013 104.427 53.1927 105.062 52.625C105.698 52.0625 106.625 51.7812 107.844 51.7812L114.492 51.7812C115.674 51.7812 116.573 52.0703 117.187 52.6484C117.802 53.2318 118.109 54.0729 118.109 55.1719C118.109 56.2708 117.802 57.1094 117.187 57.6875C116.573 58.2708 115.674 58.5625 114.492 58.5625L107.844 58.5625C106.708 58.5625 105.815 58.3073 105.164 57.7969L104.414 58.9766L102.773 58.0469ZM106.641 55.1719C106.641 55.3698 106.714 55.5104 106.859 55.5937C107.005 55.6823 107.185 55.737 107.398 55.7578C107.612 55.7839 107.818 55.7969 108.016 55.7969L114.445 55.7969C114.737 55.7969 114.997 55.7552 115.227 55.6719C115.461 55.5937 115.578 55.4219 115.578 55.1562C115.578 54.8854 115.464 54.7083 115.234 54.625C115.01 54.5417 114.75 54.5 114.453 54.5L107.961 54.5C107.779 54.5 107.583 54.5104 107.375 54.5312C107.172 54.5573 106.997 54.6172 106.852 54.7109C106.711 54.8047 106.641 54.9583 106.641 55.1719ZM104.234 63.625L117.984 63.625L117.984 67.4062C117.984 68.3958 117.708 69.1406 117.156 69.6406C116.609 70.1406 115.807 70.3906 114.75 70.3906L108.312 70.3906C107.01 70.3906 106.005 70.1615 105.297 69.7031C104.589 69.25 104.234 68.4531 104.234 67.3125L104.234 63.625ZM106.664 66.3906L106.664 66.8672C106.664 67.3724 106.909 67.625 107.398 67.625L114.492 67.625C114.951 67.625 115.245 67.5625 115.375 67.4375C115.51 67.3177 115.578 67.0703 115.578 66.6953L115.578 66.3906L106.664 66.3906ZM104.234 71.5156L117.984 71.5156L117.984 77.0156L115.328 77.0156L115.328 74.3125L112.648 74.3125L112.648 76.9062L110.062 76.9062L110.062 74.3125L106.914 74.3125L106.914 77.1953L104.234 77.1953L104.234 71.5156ZM104.109 81.375C104.109 80.1198 104.422 79.2135 105.047 78.6562C105.672 78.1042 106.667 77.8281 108.031 77.8281L109.375 77.8281L109.375 80.5469L107.656 80.5469C107.339 80.5469 107.089 80.5937 106.906 80.6875C106.729 80.7865 106.641 80.9557 106.641 81.1953C106.641 81.4453 106.714 81.6172 106.859 81.7109C107.005 81.8099 107.245 81.8594 107.578 81.8594C108 81.8594 108.352 81.8177 108.633 81.7344C108.919 81.651 109.19 81.5052 109.445 81.2969C109.706 81.0937 110.008 80.8099 110.352 80.4453L111.523 79.2109C112.393 78.2891 113.388 77.8281 114.508 77.8281C115.68 77.8281 116.573 78.099 117.187 78.6406C117.802 79.1875 118.109 79.9766 118.109 81.0078C118.109 82.2682 117.773 83.1615 117.102 83.6875C116.43 84.2187 115.409 84.4844 114.039 84.4844L114.039 81.6875L114.984 81.6875C115.172 81.6875 115.318 81.6328 115.422 81.5234C115.526 81.4193 115.578 81.276 115.578 81.0937C115.578 80.875 115.516 80.7135 115.391 80.6094C115.271 80.5104 115.115 80.4609 114.922 80.4609C114.729 80.4609 114.521 80.513 114.297 80.6172C114.073 80.7214 113.815 80.9271 113.523 81.2344L112 82.8203C111.698 83.138 111.378 83.4297 111.039 83.6953C110.706 83.9609 110.315 84.1745 109.867 84.3359C109.424 84.4974 108.883 84.5781 108.242 84.5781C106.951 84.5781 105.937 84.3385 105.203 83.8594C104.474 83.3854 104.109 82.5573 104.109 81.375ZM104.234 85.375L117.984 85.375L117.984 88.0312L104.234 88.0312L104.234 85.375ZM104.109 91.9609C104.109 89.9974 105.516 89.0156 108.328 89.0156L114.258 89.0156C116.826 89.0156 118.109 90.1406 118.109 92.3906C118.109 93.3177 117.922 94.0286 117.547 94.5234C117.177 95.0182 116.635 95.3594 115.922 95.5469C115.208 95.7344 114.339 95.8281 113.312 95.8281L113.312 93.1406L114.531 93.1406C114.828 93.1406 115.076 93.099 115.273 93.0156C115.477 92.9375 115.578 92.7708 115.578 92.5156C115.578 92.1979 115.471 91.987 115.258 91.8828C115.044 91.7839 114.81 91.7344 114.555 91.7344L107.891 91.7344C107.521 91.7344 107.219 91.7812 106.984 91.875C106.755 91.974 106.641 92.1641 106.641 92.4453C106.641 92.737 106.755 92.9297 106.984 93.0234C107.219 93.1224 107.526 93.1719 107.906 93.1719L109.867 93.1719L109.867 92.4375L112.242 92.4375L112.242 95.7969L104.234 95.7969L104.234 94.6953L105.391 94.2266C104.536 93.7474 104.109 92.9922 104.109 91.9609ZM104.234 96.8906L117.984 96.8906L117.984 99.7187L111.398 100.984L117.984 100.984L117.984 103.641L104.234 103.641L104.234 100.953L111.109 99.5781L104.234 99.5781L104.234 96.8906Z" fill="black"/>
<path fill-rule="evenodd" clip-rule="evenodd" d="M39.7728 90.9865L39.8804 70.9819C37.4603 72.09 32.4817 73.9901 31.9292 72.6208C31.3418 71.2512 29.1773 63.8471 28.1467 60.303L38.2724 57.6948L38.4566 23.4663L54.5922 22.3618L54.4249 53.4723L80.7043 46.3964L85.026 49.5378L84.8018 91.2287L39.7728 90.9865ZM53.9849 70.2169L74.0062 62.2664L73.9212 78.0669L53.9433 77.9595L53.9849 70.2169Z" fill="black"/>
</svg>
