<svg width="120" height="121" viewBox="0 0 120 121" fill="none" xmlns="http://www.w3.org/2000/svg">
<path d="M15.608 1.256H19.336C20.3387 1.256 21.064 1.50133 21.512 1.992C21.9707 2.48267 22.2 3.28267 22.2 4.392V5C22.2 6.312 21.7307 7.096 20.792 7.352C21.368 7.50133 21.7733 7.848 22.008 8.392C22.2427 8.936 22.36 9.656 22.36 10.552C22.36 12.0133 22.1413 13.1227 21.704 13.88C21.2667 14.6267 20.4773 15 19.336 15H15.608V1.256ZM18.856 6.424C19.0907 6.424 19.2507 6.33867 19.336 6.168C19.4213 5.98667 19.464 5.736 19.464 5.416V4.04C19.464 3.592 19.2667 3.368 18.872 3.368H18.296V6.424H18.856ZM18.568 12.584C19.2827 12.584 19.64 12.2427 19.64 11.56V9.848C19.64 9.432 19.576 9.11733 19.448 8.904C19.3307 8.69067 19.1173 8.584 18.808 8.584H18.296V12.568L18.568 12.584ZM23.2643 15V1.256H28.7683V3.912H26.0643V6.584H28.6563V9.176H26.0643V12.328H28.9443V15H23.2643ZM29.858 15V1.256H32.61V12.664H35.442V15H29.858ZM39.4974 15.128C38.388 15.128 37.5454 14.792 36.9694 14.12C36.3934 13.4373 36.1054 12.4827 36.1054 11.256V4.712C36.1054 3.528 36.3934 2.63733 36.9694 2.04C37.5454 1.432 38.388 1.128 39.4974 1.128C40.6067 1.128 41.4494 1.432 42.0254 2.04C42.6014 2.63733 42.8894 3.528 42.8894 4.712V11.256C42.8894 12.4933 42.6014 13.448 42.0254 14.12C41.4494 14.792 40.6067 15.128 39.4974 15.128ZM39.4974 12.6C39.7427 12.6 39.908 12.4933 39.9934 12.28C40.0787 12.0667 40.1214 11.768 40.1214 11.384V4.664C40.1214 4.36533 40.0787 4.12533 39.9934 3.944C39.9187 3.752 39.7587 3.656 39.5134 3.656C39.0547 3.656 38.8254 4.00267 38.8254 4.696V11.4C38.8254 11.7947 38.8734 12.0933 38.9694 12.296C39.0654 12.4987 39.2414 12.6 39.4974 12.6ZM43.9986 15V1.256H46.8306L48.0946 7.832V1.256H50.7506V15H48.0626L46.6866 8.12V15H43.9986ZM55.8554 15.016C55.45 15.0907 55.2207 15.128 55.1674 15.128C54.058 15.128 53.2154 14.8133 52.6394 14.184C52.0634 13.544 51.7754 12.6107 51.7754 11.384V4.744C51.7754 3.56 52.0634 2.664 52.6394 2.056C53.226 1.43733 54.0687 1.128 55.1674 1.128C56.266 1.128 57.1034 1.43733 57.6794 2.056C58.266 2.664 58.5594 3.56 58.5594 4.744V11.384C58.5594 12.5147 58.3034 13.4107 57.7914 14.072L58.9754 14.824L58.0474 16.456L55.8554 15.016ZM55.1674 12.6C55.434 12.6 55.6047 12.472 55.6794 12.216C55.754 11.96 55.7914 11.6293 55.7914 11.224V4.792C55.7914 4.44 55.7434 4.16267 55.6474 3.96C55.562 3.75733 55.3967 3.656 55.1514 3.656C54.714 3.656 54.4954 4.02933 54.4954 4.776V11.272C54.4954 11.656 54.538 11.976 54.6234 12.232C54.7087 12.4773 54.89 12.6 55.1674 12.6ZM63.6236 1.256H67.4156C68.397 1.256 69.133 1.528 69.6236 2.072C70.1143 2.616 70.365 3.42133 70.3756 4.488L70.4076 10.92C70.4183 12.2747 70.1836 13.2933 69.7036 13.976C69.2236 14.6587 68.429 15 67.3196 15H63.6236V1.256ZM66.8716 12.568C67.373 12.568 67.6236 12.3227 67.6236 11.832V4.744C67.6236 4.43467 67.597 4.20533 67.5436 4.056C67.501 3.896 67.4156 3.78933 67.2876 3.736C67.1596 3.68267 66.9623 3.656 66.6956 3.656H66.3916V12.568H66.8716ZM71.5143 15V1.256H77.0183V3.912H74.3143V6.584H76.9063V9.176H74.3143V12.328H77.1943V15H71.5143ZM81.372 15.128C80.124 15.128 79.2227 14.8187 78.668 14.2C78.1133 13.5813 77.836 12.584 77.836 11.208V9.864H80.54V11.576C80.54 12.2587 80.7587 12.6 81.196 12.6C81.4413 12.6 81.612 12.5307 81.708 12.392C81.804 12.2427 81.852 11.9973 81.852 11.656C81.852 11.208 81.7987 10.84 81.692 10.552C81.5853 10.2533 81.4467 10.008 81.276 9.816C81.116 9.61333 80.8227 9.304 80.396 8.888L79.212 7.704C78.2947 6.808 77.836 5.816 77.836 4.728C77.836 3.55467 78.1027 2.664 78.636 2.056C79.18 1.43733 79.9693 1.128 81.004 1.128C82.2413 1.128 83.132 1.45867 83.676 2.12C84.22 2.77067 84.492 3.79467 84.492 5.192H81.692L81.676 4.248C81.676 4.06667 81.6227 3.92267 81.516 3.816C81.42 3.70933 81.2813 3.656 81.1 3.656C80.8867 3.656 80.7267 3.71467 80.62 3.832C80.5133 3.94933 80.46 4.10933 80.46 4.312C80.46 4.76 80.716 5.224 81.228 5.704L82.828 7.24C83.2013 7.60267 83.5107 7.94933 83.756 8.28C84.0013 8.6 84.1987 8.984 84.348 9.432C84.4973 9.86933 84.572 10.392 84.572 11C84.572 12.3547 84.3213 13.384 83.82 14.088C83.3293 14.7813 82.5133 15.128 81.372 15.128ZM85.355 15V1.256H88.011V15H85.355ZM91.94 15.128C90.948 15.128 90.2067 14.7813 89.716 14.088C89.236 13.384 88.996 12.3227 88.996 10.904V4.984C88.996 3.71467 89.2787 2.75467 89.844 2.104C90.4093 1.45333 91.252 1.128 92.372 1.128C93.2787 1.128 93.9827 1.30933 94.484 1.672C94.9853 2.03467 95.332 2.56267 95.524 3.256C95.716 3.94933 95.812 4.84 95.812 5.928H93.124V4.696C93.124 4.36533 93.076 4.10933 92.98 3.928C92.8947 3.74667 92.7347 3.656 92.5 3.656C91.9773 3.656 91.716 3.99733 91.716 4.68V11.336C91.716 11.752 91.7693 12.0667 91.876 12.28C91.9827 12.4933 92.1693 12.6 92.436 12.6C92.7027 12.6 92.8893 12.4933 92.996 12.28C93.1027 12.0667 93.156 11.752 93.156 11.336V9.368H92.42V7H95.78V15H94.676L94.212 13.848C93.7213 14.7013 92.964 15.128 91.94 15.128ZM96.8736 15V1.256H99.7056L100.97 7.832V1.256H103.626V15H100.938L99.5616 8.12V15H96.8736Z" fill="black"/>
<path d="M15.608 105.067H19.336C20.3387 105.067 21.064 105.312 21.512 105.803C21.9707 106.293 22.2 107.093 22.2 108.203V108.811C22.2 110.123 21.7307 110.907 20.792 111.163C21.368 111.312 21.7733 111.659 22.008 112.203C22.2427 112.747 22.36 113.467 22.36 114.363C22.36 115.824 22.1413 116.933 21.704 117.691C21.2667 118.437 20.4773 118.811 19.336 118.811H15.608V105.067ZM18.856 110.235C19.0907 110.235 19.2507 110.149 19.336 109.979C19.4213 109.797 19.464 109.547 19.464 109.227V107.851C19.464 107.403 19.2667 107.179 18.872 107.179H18.296V110.235H18.856ZM18.568 116.395C19.2827 116.395 19.64 116.053 19.64 115.371V113.659C19.64 113.243 19.576 112.928 19.448 112.715C19.3307 112.501 19.1173 112.395 18.808 112.395H18.296V116.379L18.568 116.395ZM23.2643 118.811V105.067H28.7683V107.723H26.0643V110.395H28.6563V112.987H26.0643V116.139H28.9443V118.811H23.2643ZM29.858 118.811V105.067H32.61V116.475H35.442V118.811H29.858ZM39.4974 118.939C38.388 118.939 37.5454 118.603 36.9694 117.931C36.3934 117.248 36.1054 116.293 36.1054 115.067V108.523C36.1054 107.339 36.3934 106.448 36.9694 105.851C37.5454 105.243 38.388 104.939 39.4974 104.939C40.6067 104.939 41.4494 105.243 42.0254 105.851C42.6014 106.448 42.8894 107.339 42.8894 108.523V115.067C42.8894 116.304 42.6014 117.259 42.0254 117.931C41.4494 118.603 40.6067 118.939 39.4974 118.939ZM39.4974 116.411C39.7427 116.411 39.908 116.304 39.9934 116.091C40.0787 115.877 40.1214 115.579 40.1214 115.195V108.475C40.1214 108.176 40.0787 107.936 39.9934 107.755C39.9187 107.563 39.7587 107.467 39.5134 107.467C39.0547 107.467 38.8254 107.813 38.8254 108.507V115.211C38.8254 115.605 38.8734 115.904 38.9694 116.107C39.0654 116.309 39.2414 116.411 39.4974 116.411ZM43.9986 118.811V105.067H46.8306L48.0946 111.643V105.067H50.7506V118.811H48.0626L46.6866 111.931V118.811H43.9986ZM55.8554 118.827C55.45 118.901 55.2207 118.939 55.1674 118.939C54.058 118.939 53.2154 118.624 52.6394 117.995C52.0634 117.355 51.7754 116.421 51.7754 115.195V108.555C51.7754 107.371 52.0634 106.475 52.6394 105.867C53.226 105.248 54.0687 104.939 55.1674 104.939C56.266 104.939 57.1034 105.248 57.6794 105.867C58.266 106.475 58.5594 107.371 58.5594 108.555V115.195C58.5594 116.325 58.3034 117.221 57.7914 117.883L58.9754 118.635L58.0474 120.267L55.8554 118.827ZM55.1674 116.411C55.434 116.411 55.6047 116.283 55.6794 116.027C55.754 115.771 55.7914 115.44 55.7914 115.035V108.603C55.7914 108.251 55.7434 107.973 55.6474 107.771C55.562 107.568 55.3967 107.467 55.1514 107.467C54.714 107.467 54.4954 107.84 54.4954 108.587V115.083C54.4954 115.467 54.538 115.787 54.6234 116.043C54.7087 116.288 54.89 116.411 55.1674 116.411ZM63.6236 105.067H67.4156C68.397 105.067 69.133 105.339 69.6236 105.883C70.1143 106.427 70.365 107.232 70.3756 108.299L70.4076 114.731C70.4183 116.085 70.1836 117.104 69.7036 117.787C69.2236 118.469 68.429 118.811 67.3196 118.811H63.6236V105.067ZM66.8716 116.379C67.373 116.379 67.6236 116.133 67.6236 115.643V108.555C67.6236 108.245 67.597 108.016 67.5436 107.867C67.501 107.707 67.4156 107.6 67.2876 107.547C67.1596 107.493 66.9623 107.467 66.6956 107.467H66.3916V116.379H66.8716ZM71.5143 118.811V105.067H77.0183V107.723H74.3143V110.395H76.9063V112.987H74.3143V116.139H77.1943V118.811H71.5143ZM81.372 118.939C80.124 118.939 79.2227 118.629 78.668 118.011C78.1133 117.392 77.836 116.395 77.836 115.019V113.675H80.54V115.387C80.54 116.069 80.7587 116.411 81.196 116.411C81.4413 116.411 81.612 116.341 81.708 116.203C81.804 116.053 81.852 115.808 81.852 115.467C81.852 115.019 81.7987 114.651 81.692 114.363C81.5853 114.064 81.4467 113.819 81.276 113.627C81.116 113.424 80.8227 113.115 80.396 112.699L79.212 111.515C78.2947 110.619 77.836 109.627 77.836 108.539C77.836 107.365 78.1027 106.475 78.636 105.867C79.18 105.248 79.9693 104.939 81.004 104.939C82.2413 104.939 83.132 105.269 83.676 105.931C84.22 106.581 84.492 107.605 84.492 109.003H81.692L81.676 108.059C81.676 107.877 81.6227 107.733 81.516 107.627C81.42 107.52 81.2813 107.467 81.1 107.467C80.8867 107.467 80.7267 107.525 80.62 107.643C80.5133 107.76 80.46 107.92 80.46 108.123C80.46 108.571 80.716 109.035 81.228 109.515L82.828 111.051C83.2013 111.413 83.5107 111.76 83.756 112.091C84.0013 112.411 84.1987 112.795 84.348 113.243C84.4973 113.68 84.572 114.203 84.572 114.811C84.572 116.165 84.3213 117.195 83.82 117.899C83.3293 118.592 82.5133 118.939 81.372 118.939ZM85.355 118.811V105.067H88.011V118.811H85.355ZM91.94 118.939C90.948 118.939 90.2067 118.592 89.716 117.899C89.236 117.195 88.996 116.133 88.996 114.715V108.795C88.996 107.525 89.2787 106.565 89.844 105.915C90.4093 105.264 91.252 104.939 92.372 104.939C93.2787 104.939 93.9827 105.12 94.484 105.483C94.9853 105.845 95.332 106.373 95.524 107.067C95.716 107.76 95.812 108.651 95.812 109.739H93.124V108.507C93.124 108.176 93.076 107.92 92.98 107.739C92.8947 107.557 92.7347 107.467 92.5 107.467C91.9773 107.467 91.716 107.808 91.716 108.491V115.147C91.716 115.563 91.7693 115.877 91.876 116.091C91.9827 116.304 92.1693 116.411 92.436 116.411C92.7027 116.411 92.8893 116.304 92.996 116.091C93.1027 115.877 93.156 115.563 93.156 115.147V113.179H92.42V110.811H95.78V118.811H94.676L94.212 117.659C93.7213 118.512 92.964 118.939 91.94 118.939ZM96.8736 118.811V105.067H99.7056L100.97 111.643V105.067H103.626V118.811H100.938L99.5616 111.931V118.811H96.8736Z" fill="black"/>
<path d="M15 103.641L1.25 103.641L1.25 99.9141C1.25 98.9141 1.49479 98.1875 1.98437 97.7344C2.46875 97.276 3.27083 97.0469 4.39062 97.0469L4.99219 97.0469C5.63802 97.0469 6.16146 97.1641 6.5625 97.3984C6.96354 97.6276 7.22656 97.9792 7.35156 98.4531C7.50781 97.8333 7.875 97.4193 8.45312 97.2109C9.02604 96.9974 9.72656 96.8906 10.5547 96.8906C11.4453 96.8906 12.224 96.974 12.8906 97.1406C13.5573 97.3073 14.0755 97.6094 14.4453 98.0469C14.8151 98.4844 15 99.1068 15 99.9141L15 103.641ZM6.42969 100.953L6.42969 100.391C6.42969 100.135 6.33073 99.9714 6.13281 99.8984C5.9349 99.8255 5.69792 99.7891 5.42187 99.7891L4.03906 99.7891C3.59635 99.7891 3.375 99.9844 3.375 100.375L3.375 100.953L6.42969 100.953ZM12.5781 100.68C12.5781 99.9661 12.2396 99.6094 11.5625 99.6094L9.84375 99.6094C9.45312 99.6094 9.14583 99.6693 8.92187 99.7891C8.69271 99.9036 8.57812 100.122 8.57812 100.445L8.57812 100.953L12.5625 100.953C12.5729 100.839 12.5781 100.747 12.5781 100.68ZM15 95.9844L1.25 95.9844L1.25 90.4844L3.90625 90.4844L3.90625 93.1875L6.58594 93.1875L6.58594 90.5937L9.17187 90.5937L9.17187 93.1875L12.3203 93.1875L12.3203 90.3047L15 90.3047L15 95.9844ZM15 89.3906L1.25 89.3906L1.25 86.6406L12.6562 86.6406L12.6562 83.8125L15 83.8125L15 89.3906ZM15.125 79.75C15.125 80.849 14.7943 81.6901 14.1328 82.2734C13.4661 82.8516 12.5052 83.1406 11.25 83.1406L4.71875 83.1406C3.54167 83.1406 2.64844 82.8542 2.03906 82.2812C1.42969 81.7031 1.125 80.8594 1.125 79.75C1.125 78.6406 1.42969 77.7995 2.03906 77.2266C2.64844 76.6484 3.54167 76.3594 4.71875 76.3594L11.25 76.3594C12.5052 76.3594 13.4661 76.651 14.1328 77.2344C14.7943 77.8125 15.125 78.651 15.125 79.75ZM12.5937 79.7266C12.5937 79.3099 12.1901 79.1016 11.3828 79.1016L4.67187 79.1016C3.99479 79.1016 3.65625 79.3047 3.65625 79.7109C3.65625 80.1693 4.0026 80.3984 4.69531 80.3984L11.3984 80.3984C11.8255 80.3984 12.1328 80.3464 12.3203 80.2422C12.5026 80.138 12.5937 79.9661 12.5937 79.7266ZM15 75.25L1.25 75.25L1.25 72.4219L7.83594 71.1562L1.25 71.1562L1.25 68.5L15 68.5L15 71.1875L8.125 72.5625L15 72.5625L15 75.25ZM16.4609 61.2031L15.0234 63.3906C15.0911 63.6406 15.125 63.8984 15.125 64.1641C15.125 65.237 14.8073 66.0573 14.1719 66.625C13.5365 67.1875 12.6094 67.4687 11.3906 67.4687L4.74219 67.4687C3.55989 67.4687 2.66146 67.1797 2.04687 66.6016C1.43229 66.0182 1.125 65.1771 1.125 64.0781C1.125 62.9792 1.43229 62.1406 2.04687 61.5625C2.66146 60.9792 3.55989 60.6875 4.74219 60.6875L11.3906 60.6875C12.526 60.6875 13.4193 60.9427 14.0703 61.4531L14.8203 60.2734L16.4609 61.2031ZM12.5937 64.0781C12.5937 63.8802 12.5208 63.7396 12.375 63.6562C12.2292 63.5677 12.0495 63.513 11.8359 63.4922C11.6224 63.4661 11.4167 63.4531 11.2187 63.4531L4.78906 63.4531C4.49739 63.4531 4.23698 63.4948 4.00781 63.5781C3.77344 63.6562 3.65625 63.8281 3.65625 64.0937C3.65625 64.3646 3.77083 64.5417 4 64.625C4.22396 64.7083 4.48437 64.75 4.78125 64.75L11.2734 64.75C11.4557 64.75 11.651 64.7396 11.8594 64.7187C12.0625 64.6927 12.237 64.6328 12.3828 64.5391C12.5234 64.4453 12.5937 64.2917 12.5937 64.0781ZM15 55.625L1.25 55.625L1.25 51.8437C1.25 50.8542 1.52604 50.1094 2.07812 49.6094C2.625 49.1094 3.42708 48.8594 4.48437 48.8594L10.9219 48.8594C12.224 48.8594 13.2292 49.0885 13.9375 49.5469C14.6458 50 15 50.7969 15 51.9375L15 55.625ZM12.5703 52.8594L12.5703 52.3828C12.5703 51.8776 12.3255 51.625 11.8359 51.625L4.74219 51.625C4.28385 51.625 3.98958 51.6875 3.85937 51.8125C3.72396 51.9323 3.65625 52.1797 3.65625 52.5547L3.65625 52.8594L12.5703 52.8594ZM15 47.7344L1.25 47.7344L1.25 42.2344L3.90625 42.2344L3.90625 44.9375L6.58593 44.9375L6.58593 42.3437L9.17187 42.3437L9.17187 44.9375L12.3203 44.9375L12.3203 42.0547L15 42.0547L15 47.7344ZM15.125 37.875C15.125 39.1302 14.8125 40.0365 14.1875 40.5937C13.5625 41.1458 12.5677 41.4219 11.2031 41.4219L9.85937 41.4219L9.85937 38.7031L11.5781 38.7031C11.8958 38.7031 12.1458 38.6562 12.3281 38.5625C12.5052 38.4635 12.5937 38.2943 12.5937 38.0547C12.5937 37.8047 12.5208 37.6328 12.375 37.5391C12.2292 37.4401 11.9896 37.3906 11.6562 37.3906C11.2344 37.3906 10.8828 37.4323 10.6016 37.5156C10.3151 37.599 10.0443 37.7448 9.78906 37.9531C9.52864 38.1562 9.22656 38.4401 8.88281 38.8047L7.71093 40.0391C6.84114 40.9609 5.84635 41.4219 4.72656 41.4219C3.55468 41.4219 2.66146 41.151 2.04687 40.6094C1.43229 40.0625 1.125 39.2734 1.125 38.2422C1.125 36.9818 1.46093 36.0885 2.13281 35.5625C2.80468 35.0312 3.82552 34.7656 5.19531 34.7656L5.19531 37.5625L4.25 37.5625C4.0625 37.5625 3.91666 37.6172 3.8125 37.7266C3.70833 37.8307 3.65625 37.974 3.65625 38.1562C3.65625 38.375 3.71875 38.5365 3.84375 38.6406C3.96354 38.7396 4.11979 38.7891 4.3125 38.7891C4.50521 38.7891 4.71354 38.737 4.9375 38.6328C5.16146 38.5286 5.41927 38.3229 5.71093 38.0156L7.23437 36.4297C7.53646 36.112 7.85677 35.8203 8.19531 35.5547C8.52864 35.2891 8.91927 35.0755 9.36718 34.9141C9.80989 34.7526 10.3516 34.6719 10.9922 34.6719C12.2839 34.6719 13.2969 34.9115 14.0312 35.3906C14.7604 35.8646 15.125 36.6927 15.125 37.875ZM15 33.875L1.25 33.875L1.25 31.2187L15 31.2187L15 33.875ZM15.125 27.2891C15.125 29.2526 13.7187 30.2344 10.9062 30.2344L4.97656 30.2344C2.40885 30.2344 1.125 29.1094 1.125 26.8594C1.125 25.9323 1.3125 25.2214 1.6875 24.7266C2.05729 24.2318 2.59895 23.8906 3.3125 23.7031C4.02604 23.5156 4.89583 23.4219 5.92187 23.4219L5.92187 26.1094L4.70312 26.1094C4.40625 26.1094 4.15885 26.151 3.96093 26.2344C3.75781 26.3125 3.65625 26.4792 3.65625 26.7344C3.65625 27.0521 3.76302 27.263 3.97656 27.3672C4.1901 27.4661 4.42448 27.5156 4.67968 27.5156L11.3437 27.5156C11.7135 27.5156 12.0156 27.4687 12.25 27.375C12.4792 27.276 12.5937 27.0859 12.5937 26.8047C12.5937 26.513 12.4792 26.3203 12.25 26.2266C12.0156 26.1276 11.7083 26.0781 11.3281 26.0781L9.36718 26.0781L9.36718 26.8125L6.99218 26.8125L6.99218 23.4531L15 23.4531L15 24.5547L13.8437 25.0234C14.6979 25.5026 15.125 26.2578 15.125 27.2891ZM15 22.3594L1.25 22.3594L1.25 19.5312L7.83593 18.2656L1.25 18.2656L1.25 15.6094L15 15.6094L15 18.2969L8.125 19.6719L15 19.6719L15 22.3594Z" fill="black"/>
<path d="M117.978 15.608L117.978 19.336C117.978 20.3387 117.733 21.064 117.242 21.512C116.752 21.9707 115.952 22.2 114.842 22.2L114.234 22.2C112.922 22.2 112.138 21.7307 111.882 20.792C111.733 21.368 111.386 21.7733 110.842 22.008C110.298 22.2427 109.578 22.36 108.682 22.36C107.221 22.36 106.112 22.1413 105.354 21.704C104.608 21.2667 104.234 20.4773 104.234 19.336L104.234 15.608L117.978 15.608ZM112.81 18.856C112.81 19.0907 112.896 19.2507 113.066 19.336C113.248 19.4213 113.498 19.464 113.818 19.464L115.194 19.464C115.642 19.464 115.866 19.2667 115.866 18.872L115.866 18.296L112.81 18.296L112.81 18.856ZM106.65 18.568C106.65 19.2827 106.992 19.64 107.674 19.64L109.386 19.64C109.802 19.64 110.117 19.576 110.33 19.448C110.544 19.3307 110.65 19.1173 110.65 18.808L110.65 18.296L106.666 18.296L106.65 18.568ZM104.234 23.2642L117.978 23.2642L117.978 28.7683L115.322 28.7683L115.322 26.0643L112.65 26.0642L112.65 28.6563L110.058 28.6563L110.058 26.0642L106.906 26.0642L106.906 28.9442L104.234 28.9442L104.234 23.2642ZM104.234 29.858L117.978 29.858L117.978 32.61L106.57 32.61L106.57 35.442L104.234 35.442L104.234 29.858ZM104.106 39.4974C104.106 38.388 104.442 37.5454 105.114 36.9694C105.797 36.3934 106.752 36.1054 107.978 36.1054L114.522 36.1054C115.706 36.1054 116.597 36.3934 117.194 36.9694C117.802 37.5454 118.106 38.388 118.106 39.4974C118.106 40.6067 117.802 41.4494 117.194 42.0254C116.597 42.6014 115.706 42.8894 114.522 42.8894L107.978 42.8894C106.741 42.8894 105.786 42.6014 105.114 42.0254C104.442 41.4494 104.106 40.6067 104.106 39.4974ZM106.634 39.4974C106.634 39.7427 106.741 39.908 106.954 39.9934C107.168 40.0787 107.466 40.1214 107.85 40.1214L114.57 40.1214C114.869 40.1214 115.109 40.0787 115.29 39.9934C115.482 39.9187 115.578 39.7587 115.578 39.5134C115.578 39.0547 115.232 38.8254 114.538 38.8254L107.834 38.8254C107.44 38.8254 107.141 38.8734 106.938 38.9694C106.736 39.0654 106.634 39.2414 106.634 39.4974ZM104.234 43.9986L117.978 43.9986L117.978 46.8306L111.402 48.0946L117.978 48.0946L117.978 50.7506L104.234 50.7506L104.234 48.0626L111.114 46.6866L104.234 46.6866L104.234 43.9986ZM104.218 55.8554C104.144 55.45 104.106 55.2207 104.106 55.1674C104.106 54.058 104.421 53.2154 105.05 52.6394C105.69 52.0634 106.624 51.7754 107.85 51.7754L114.49 51.7754C115.674 51.7754 116.57 52.0634 117.178 52.6394C117.797 53.226 118.106 54.0687 118.106 55.1674C118.106 56.266 117.797 57.1034 117.178 57.6794C116.57 58.266 115.674 58.5594 114.49 58.5594L107.85 58.5594C106.72 58.5594 105.824 58.3034 105.162 57.7914L104.41 58.9754L102.778 58.0474L104.218 55.8554ZM106.634 55.1674C106.634 55.434 106.762 55.6047 107.018 55.6794C107.274 55.754 107.605 55.7914 108.01 55.7914L114.442 55.7914C114.794 55.7914 115.072 55.7434 115.274 55.6474C115.477 55.562 115.578 55.3967 115.578 55.1514C115.578 54.714 115.205 54.4954 114.458 54.4954L107.962 54.4954C107.578 54.4954 107.258 54.538 107.002 54.6234C106.757 54.7087 106.634 54.89 106.634 55.1674ZM117.978 63.6236L117.978 67.4156C117.978 68.397 117.706 69.133 117.162 69.6236C116.618 70.1143 115.813 70.365 114.746 70.3756L108.314 70.4076C106.96 70.4183 105.941 70.1836 105.258 69.7036C104.576 69.2236 104.234 68.429 104.234 67.3196L104.234 63.6236L117.978 63.6236ZM106.666 66.8716C106.666 67.373 106.912 67.6236 107.402 67.6236L114.49 67.6236C114.8 67.6236 115.029 67.597 115.178 67.5436C115.338 67.501 115.445 67.4156 115.498 67.2876C115.552 67.1596 115.578 66.9623 115.578 66.6956L115.578 66.3916L106.666 66.3916L106.666 66.8716ZM104.234 71.5142L117.978 71.5142L117.978 77.0183L115.322 77.0183L115.322 74.3143L112.65 74.3142L112.65 76.9063L110.058 76.9063L110.058 74.3142L106.906 74.3142L106.906 77.1942L104.234 77.1942L104.234 71.5142ZM104.106 81.372C104.106 80.124 104.416 79.2227 105.034 78.668C105.653 78.1133 106.65 77.836 108.026 77.836L109.37 77.836L109.37 80.54L107.658 80.54C106.976 80.54 106.634 80.7587 106.634 81.196C106.634 81.4413 106.704 81.612 106.842 81.708C106.992 81.804 107.237 81.852 107.578 81.852C108.026 81.852 108.394 81.7987 108.682 81.692C108.981 81.5853 109.226 81.4467 109.418 81.276C109.621 81.116 109.93 80.8227 110.346 80.396L111.53 79.212C112.426 78.2947 113.418 77.836 114.506 77.836C115.68 77.836 116.57 78.1027 117.178 78.636C117.797 79.18 118.106 79.9693 118.106 81.004C118.106 82.2413 117.776 83.132 117.114 83.676C116.464 84.22 115.44 84.492 114.042 84.492L114.042 81.692L114.986 81.676C115.168 81.676 115.312 81.6227 115.418 81.516C115.525 81.42 115.578 81.2813 115.578 81.1C115.578 80.8867 115.52 80.7267 115.402 80.62C115.285 80.5133 115.125 80.46 114.922 80.46C114.474 80.46 114.01 80.716 113.53 81.228L111.994 82.828C111.632 83.2013 111.285 83.5107 110.954 83.756C110.634 84.0013 110.25 84.1987 109.802 84.348C109.365 84.4973 108.842 84.572 108.234 84.572C106.88 84.572 105.85 84.3213 105.146 83.82C104.453 83.3293 104.106 82.5133 104.106 81.372ZM104.234 85.355L117.978 85.355L117.978 88.011L104.234 88.011L104.234 85.355ZM104.106 91.94C104.106 90.948 104.453 90.2067 105.146 89.716C105.85 89.236 106.912 88.996 108.33 88.996L114.25 88.996C115.52 88.996 116.48 89.2787 117.13 89.844C117.781 90.4093 118.106 91.252 118.106 92.372C118.106 93.2787 117.925 93.9827 117.562 94.484C117.2 94.9853 116.672 95.332 115.978 95.524C115.285 95.716 114.394 95.812 113.306 95.812L113.306 93.124L114.538 93.124C114.869 93.124 115.125 93.076 115.306 92.98C115.488 92.8947 115.578 92.7347 115.578 92.5C115.578 91.9773 115.237 91.716 114.554 91.716L107.898 91.716C107.482 91.716 107.168 91.7693 106.954 91.876C106.741 91.9827 106.634 92.1693 106.634 92.436C106.634 92.7027 106.741 92.8893 106.954 92.996C107.168 93.1027 107.482 93.156 107.898 93.156L109.866 93.156L109.866 92.42L112.234 92.42L112.234 95.78L104.234 95.78L104.234 94.676L105.386 94.212C104.533 93.7213 104.106 92.964 104.106 91.94ZM104.234 96.8736L117.978 96.8736L117.978 99.7056L111.402 100.97L117.978 100.97L117.978 103.626L104.234 103.626L104.234 100.938L111.114 99.5616L104.234 99.5616L104.234 96.8736Z" fill="black"/>
<path d="M40.8831 68.0537L67.7924 60.9811L67.2716 92.7554L81.6947 91.2914L79.2496 25.4818L37.9638 25.3649C37.6489 25.3632 37.3675 25.642 37.3658 25.9573L36.8406 65.0539C36.8306 66.9107 39.6908 68.5728 40.9185 67.9838L40.8831 68.0537ZM46.2213 38.3373L67.2868 37.8901L67.5041 49.523L46.6258 54.2105L46.1865 38.3021L46.2213 38.3373Z" fill="black"/>
</svg>
