<svg width="754" height="115" viewBox="0 0 754 115" fill="none" xmlns="http://www.w3.org/2000/svg">
<path d="M561.093 0.614968L553.286 0.619483L441.85 114.212L449.657 114.207L561.093 0.614968ZM596.555 0.59446L588.74 0.598979L477.304 114.191L485.119 114.187L596.555 0.59446ZM454.719 0.676485L446.912 0.681L335.476 114.273L343.286 114.269L454.719 0.676485ZM632.009 0.573956L624.199 0.578473L512.762 114.171L520.573 114.166L632.009 0.573956ZM490.177 0.655979L482.37 0.660494L370.934 114.253L378.741 114.248L490.177 0.655979ZM525.635 0.635474L517.828 0.639988L406.392 114.232L414.203 114.228L525.635 0.635474ZM753.988 92.9824L753.983 85.0157L725.511 114.048L733.321 114.043L753.988 92.9824ZM654.598 114.089L662.405 114.084L753.946 20.7827L753.941 12.8611L654.598 114.089ZM738.383 0.512439L730.573 0.516956L619.14 114.109L626.947 114.105L738.383 0.512439ZM702.925 0.532945L695.115 0.537462L583.682 114.13L591.489 114.125L702.925 0.532945ZM753.967 56.86L753.962 48.8933L690.052 114.068L697.863 114.064L753.967 56.86ZM667.467 0.553451L659.656 0.557968L548.224 114.15L556.031 114.146L667.467 0.553451ZM29.2264 0.922552L21.4196 0.927066L0.748716 21.9879L0.753323 29.9546L29.2264 0.922552ZM419.261 0.696991L411.454 0.701506L300.018 114.294L307.829 114.289L419.261 0.696991ZM171.058 0.840529L163.252 0.845044L51.8154 114.437L59.6222 114.433L171.058 0.840529ZM206.517 0.820023L198.706 0.82454L87.2695 114.417L95.0803 114.412L206.517 0.820023ZM100.142 0.88154L92.3356 0.886055L0.79047 94.1876L0.795077 102.154L100.142 0.88154ZM64.6843 0.902046L56.8777 0.906561L0.769606 58.1103L0.774214 66.0774L64.6843 0.902046ZM16.3575 114.458L24.1643 114.453L135.601 0.861034L127.794 0.865549L16.3575 114.458ZM383.807 0.717494L375.996 0.722011L264.56 114.314L272.37 114.31L383.807 0.717494ZM348.349 0.738L340.538 0.742517L229.106 114.335L236.912 114.33L348.349 0.738ZM312.891 0.758506L305.08 0.763023L193.644 114.355L201.454 114.351L312.891 0.758506ZM277.433 0.779012L269.622 0.783529L158.186 114.376L165.996 114.371L277.433 0.779012ZM130.542 114.392L122.728 114.396L234.164 0.804034L241.975 0.799517L130.542 114.392Z" fill="#BDBCBC"/>
</svg>
