<svg width="187" height="51" viewBox="0 0 187 51" fill="none" xmlns="http://www.w3.org/2000/svg">
<path d="M158.562 47.6138L158.564 47.6145C161.309 49.0638 164.399 49.7873 167.829 49.7901C171.259 49.7929 174.351 49.0745 177.099 47.6296C179.848 46.1838 182.006 44.1151 183.567 41.4272C185.17 38.6961 185.969 35.535 185.972 31.9521C185.975 28.3696 185.181 25.2271 183.581 22.5334C182.025 19.8436 179.871 17.7718 177.125 16.3217C174.419 14.8719 171.348 14.1486 167.919 14.1458C164.489 14.143 161.397 14.8615 158.65 16.3063L158.648 16.307C155.94 17.7529 153.784 19.8209 152.183 22.5065L152.183 22.5064L152.182 22.5089C150.619 25.1999 149.84 28.3407 149.837 31.9227C149.834 35.5449 150.607 38.7074 152.166 41.4014C153.722 44.091 155.855 46.1632 158.562 47.6138ZM171.774 37.1524L171.774 37.1527C170.73 38.3205 169.424 38.9009 167.838 38.8996C166.252 38.8983 164.969 38.3161 163.969 37.1499C162.973 35.9891 162.456 34.2637 162.458 31.933C162.46 29.6463 162.998 27.943 164.035 26.7832C165.08 25.614 166.366 25.035 167.91 25.0363C169.454 25.0376 170.739 25.6186 171.783 26.7895L171.782 26.7896L171.786 26.7929C172.859 27.9544 173.414 29.6573 173.412 31.9419C173.41 34.2258 172.852 35.9506 171.774 37.1524Z" fill="black" stroke="black" stroke-width="0.5"/>
<path d="M100.644 24.986L100.894 24.9862L100.894 24.7362L100.902 14.7735L100.903 14.5235L100.653 14.5233L95.5898 14.5192C95.6975 13.3889 96.0217 12.6118 96.5232 12.1404L96.5233 12.1406L96.5294 12.1344C97.0698 11.5902 97.9416 11.2927 99.2009 11.2938C99.7624 11.2942 100.195 11.3149 100.503 11.354L100.784 11.3897L100.784 11.1062L100.793 0.899039L100.793 0.667683L100.562 0.6496C100.027 0.607667 99.2722 0.586681 98.3005 0.58589C93.4538 0.581943 89.6873 1.77035 87.0387 4.18712C84.426 6.56731 83.1346 10.0033 83.131 14.4534L83.1309 14.5091L79.6842 14.5062L79.4342 14.506L79.434 14.756L79.4259 24.7187L79.4256 24.9687L79.6756 24.9689L83.1224 24.9717L83.1028 49.0477L83.1026 49.2977L83.3526 49.2979L95.2913 49.3077L95.5413 49.3079L95.5415 49.0579L95.5611 24.9818L100.644 24.986Z" fill="black" stroke="black" stroke-width="0.5"/>
<path d="M76.8334 34.5626L77.0532 34.5628L77.0815 34.3449C77.2049 33.3972 77.2669 32.4494 77.2677 31.5014C77.2706 27.9624 76.5385 24.8823 75.0615 22.2701C73.5863 19.6205 71.5336 17.5879 68.9063 16.1774C66.2805 14.7678 63.2699 14.0651 59.8813 14.0623C56.4516 14.0596 53.3991 14.778 50.7305 16.2244L50.729 16.2252C48.0999 17.6725 46.0446 19.7426 44.5657 22.4302C43.0848 25.0806 42.348 28.2202 42.3451 31.8397C42.3421 35.4597 43.0739 38.6203 44.5499 41.3133L44.5499 41.3133L44.5514 41.3158C46.0661 44.0048 48.1377 46.0776 50.7641 47.529L50.7656 47.5298C53.4314 48.9803 56.4625 49.704 59.8523 49.7067C62.6725 49.709 65.2544 49.175 67.594 48.101C69.9299 47.0287 71.8614 45.561 73.3836 43.697C74.945 41.7937 75.9942 39.6402 76.5299 37.2393L76.5977 36.9351L76.2861 36.9348L63.6201 36.9245L63.4618 36.9244L63.394 37.0674C62.9855 37.9288 62.4482 38.5609 61.7877 38.9789C61.1272 39.3969 60.3269 39.6112 59.3757 39.6104C58.0217 39.6093 56.9161 39.1821 56.0394 38.337C55.2492 37.5001 54.7658 36.2474 54.6194 34.5445L76.8334 34.5626ZM63.2824 25.2598L63.2823 25.2599L63.2869 25.2637C64.1359 25.9784 64.5938 26.963 64.6448 28.2462L54.7204 28.2381C55.0169 26.8803 55.5813 25.8755 56.3961 25.1977L56.3962 25.1978L56.401 25.1936C57.2774 24.4262 58.4075 24.0349 59.8126 24.036C61.2143 24.0371 62.3648 24.4488 63.2824 25.2598Z" fill="black" stroke="black" stroke-width="0.5"/>
<path d="M29.457 46.4715L29.4579 46.471C32.8921 44.5779 35.5345 41.9804 37.379 38.6801C39.2635 35.3805 40.2046 31.6301 40.208 27.4357C40.2115 23.2015 39.2971 19.4295 37.4585 16.1266C35.6191 12.8224 32.9799 10.2603 29.547 8.44275C26.1528 6.5836 22.1925 5.65655 17.674 5.65287L0.765829 5.6391L0.515829 5.6389L0.515625 5.8889L0.480537 48.979L0.480333 49.229L0.730333 49.2292L17.6385 49.2429C22.1177 49.2466 26.0598 48.3255 29.457 46.4715ZM24.7594 19.4108L24.7613 19.4126C26.6778 21.2697 27.651 23.9278 27.6481 27.4255C27.6453 30.8814 26.6684 33.518 24.7483 35.3725C22.8251 37.2299 20.1659 38.1711 16.7385 38.1683L12.8675 38.1652L12.8851 16.5395L16.7561 16.5426C20.1821 16.5454 22.839 17.5104 24.7594 19.4108Z" fill="black" stroke="black" stroke-width="0.5"/>
<mask id="path-5-inside-1_2097_222" fill="white">
<path fill-rule="evenodd" clip-rule="evenodd" d="M120.968 24.7463L120.936 24.7463L120.917 49.0723L108.978 49.0626L108.998 24.7366L105.301 24.7336L105.309 14.7709L109.006 14.7739L109.006 14.4683C109.01 10.0676 110.285 6.70702 112.832 4.38651C115.42 2.02528 119.118 0.846623 123.925 0.850538C124.895 0.851328 125.642 0.87231 126.168 0.913484L126.159 11.1206C125.836 11.0796 125.392 11.0589 124.826 11.0584C123.533 11.0574 122.584 11.3622 121.977 11.9729C121.37 12.5429 121.026 13.4798 120.944 14.7836L120.977 14.7836L120.977 14.7143L145.382 14.7342L145.382 14.8021L145.433 14.8021L145.405 49.0908L133.527 49.0811L133.547 24.8174L120.968 24.8072L120.968 24.7463Z"/>
</mask>
<path fill-rule="evenodd" clip-rule="evenodd" d="M120.968 24.7463L120.936 24.7463L120.917 49.0723L108.978 49.0626L108.998 24.7366L105.301 24.7336L105.309 14.7709L109.006 14.7739L109.006 14.4683C109.01 10.0676 110.285 6.70702 112.832 4.38651C115.42 2.02528 119.118 0.846623 123.925 0.850538C124.895 0.851328 125.642 0.87231 126.168 0.913484L126.159 11.1206C125.836 11.0796 125.392 11.0589 124.826 11.0584C123.533 11.0574 122.584 11.3622 121.977 11.9729C121.37 12.5429 121.026 13.4798 120.944 14.7836L120.977 14.7836L120.977 14.7143L145.382 14.7342L145.382 14.8021L145.433 14.8021L145.405 49.0908L133.527 49.0811L133.547 24.8174L120.968 24.8072L120.968 24.7463Z" fill="black"/>
<path d="M120.936 24.7463L120.937 24.2463L120.437 24.2459L120.436 24.7459L120.936 24.7463ZM120.968 24.7463L121.468 24.7467L121.469 24.2467L120.969 24.2463L120.968 24.7463ZM120.917 49.0723L120.916 49.5723L121.416 49.5727L121.417 49.0727L120.917 49.0723ZM108.978 49.0626L108.478 49.0622L108.477 49.5622L108.977 49.5626L108.978 49.0626ZM108.998 24.7366L109.498 24.737L109.498 24.237L108.998 24.2366L108.998 24.7366ZM105.301 24.7336L104.801 24.7332L104.8 25.2331L105.3 25.2336L105.301 24.7336ZM105.309 14.7709L105.309 14.2709L104.809 14.2705L104.809 14.7705L105.309 14.7709ZM109.006 14.7739L109.005 15.2739L109.505 15.2743L109.506 14.7743L109.006 14.7739ZM112.832 4.38651L113.169 4.75612L113.169 4.75585L112.832 4.38651ZM126.168 0.913484L126.668 0.913891L126.668 0.451179L126.207 0.415013L126.168 0.913484ZM126.159 11.1206L126.096 11.6167L126.659 11.688L126.659 11.121L126.159 11.1206ZM121.977 11.9729L122.319 12.3373L122.326 12.3314L122.332 12.3252L121.977 11.9729ZM120.944 14.7836L120.445 14.7523L120.412 15.2832L120.944 15.2836L120.944 14.7836ZM120.977 14.7836L120.976 15.2836L121.476 15.2841L121.477 14.7841L120.977 14.7836ZM120.977 14.7143L120.977 14.2143L120.477 14.2139L120.477 14.7139L120.977 14.7143ZM145.382 14.7342L145.882 14.7346L145.882 14.2346L145.382 14.2342L145.382 14.7342ZM145.382 14.8021L144.882 14.8016L144.881 15.3016L145.381 15.3021L145.382 14.8021ZM145.433 14.8021L145.933 14.8025L145.933 14.3025L145.433 14.3021L145.433 14.8021ZM145.405 49.0908L145.404 49.5908L145.904 49.5912L145.905 49.0912L145.405 49.0908ZM133.527 49.0811L133.027 49.0807L133.026 49.5807L133.526 49.5811L133.527 49.0811ZM133.547 24.8174L134.047 24.8178L134.047 24.3178L133.547 24.3174L133.547 24.8174ZM120.968 24.8072L120.468 24.8068L120.468 25.3068L120.968 25.3072L120.968 24.8072ZM120.936 25.2463L120.968 25.2463L120.969 24.2463L120.937 24.2463L120.936 25.2463ZM121.417 49.0727L121.436 24.7467L120.436 24.7459L120.417 49.0719L121.417 49.0727ZM108.977 49.5626L120.916 49.5723L120.917 48.5723L108.978 48.5626L108.977 49.5626ZM108.498 24.7362L108.478 49.0622L109.478 49.063L109.498 24.737L108.498 24.7362ZM105.3 25.2336L108.997 25.2366L108.998 24.2366L105.301 24.2336L105.3 25.2336ZM104.809 14.7705L104.801 24.7332L105.801 24.734L105.809 14.7713L104.809 14.7705ZM109.006 14.2739L105.309 14.2709L105.309 15.2709L109.005 15.2739L109.006 14.2739ZM108.506 14.4679L108.506 14.7735L109.506 14.7743L109.506 14.4687L108.506 14.4679ZM112.495 4.01689C109.817 6.45677 108.51 9.96811 108.506 14.4679L109.506 14.4687C109.509 10.1671 110.753 6.95727 113.169 4.75612L112.495 4.01689ZM123.926 0.350538C119.04 0.34656 115.205 1.54476 112.495 4.01716L113.169 4.75585C115.635 2.50579 119.195 1.34669 123.925 1.35054L123.926 0.350538ZM126.207 0.415013C125.662 0.372321 124.9 0.351331 123.926 0.350538L123.925 1.35054C124.89 1.35132 125.623 1.3723 126.128 1.41195L126.207 0.415013ZM126.659 11.121L126.668 0.913891L125.668 0.913077L125.659 11.1202L126.659 11.121ZM124.826 11.5584C125.383 11.5589 125.804 11.5795 126.096 11.6167L126.222 10.6246C125.869 10.5797 125.4 10.5589 124.826 10.5584L124.826 11.5584ZM122.332 12.3252C122.806 11.8476 123.6 11.5574 124.826 11.5584L124.826 10.5584C123.466 10.5573 122.361 10.8768 121.622 11.6206L122.332 12.3252ZM121.443 14.815C121.522 13.5685 121.846 12.782 122.319 12.3373L121.635 11.6086C120.895 12.3038 120.531 13.391 120.445 14.7523L121.443 14.815ZM120.977 14.2836L120.945 14.2836L120.944 15.2836L120.976 15.2836L120.977 14.2836ZM121.477 14.7841L121.477 14.7147L120.477 14.7139L120.477 14.7832L121.477 14.7841ZM120.976 15.2143L145.381 15.2342L145.382 14.2342L120.977 14.2143L120.976 15.2143ZM144.882 14.7338L144.882 14.8016L145.882 14.8025L145.882 14.7346L144.882 14.7338ZM145.433 14.3021L145.382 14.3021L145.381 15.3021L145.432 15.3021L145.433 14.3021ZM145.905 49.0912L145.933 14.8025L144.933 14.8017L144.905 49.0904L145.905 49.0912ZM133.526 49.5811L145.404 49.5908L145.405 48.5908L133.527 48.5811L133.526 49.5811ZM133.047 24.817L133.027 49.0807L134.027 49.0815L134.047 24.8178L133.047 24.817ZM133.547 24.3174L120.969 24.3072L120.968 25.3072L133.546 25.3174L133.547 24.3174ZM121.468 24.8076L121.468 24.7467L120.468 24.7459L120.468 24.8068L121.468 24.8076Z" fill="black" mask="url(#path-5-inside-1_2097_222)"/>
<path d="M145.194 6.33465C145.191 9.50667 142.64 12.0724 139.5 12.0698C136.36 12.0673 133.813 9.4974 133.815 6.32539C133.818 3.15338 136.369 0.587667 139.509 0.590224C142.649 0.592781 145.196 3.16264 145.194 6.33465Z" fill="black" stroke="black" stroke-width="0.5"/>
</svg>
