<svg width="210" height="85" viewBox="0 0 210 85" fill="none" xmlns="http://www.w3.org/2000/svg">
<path d="M201.886 39.2606L201.466 38.8477L193.216 30.7495L193.213 30.7472L193.163 30.6975L193.163 30.697C192.029 29.5654 191.212 28.5019 190.785 27.5637L190.781 27.5561L190.778 27.5484C190.391 26.6169 190.194 25.6362 190.191 24.6422C190.187 22.7907 190.66 21.3909 191.779 20.5417C192.978 19.6301 194.449 19.2044 196.232 19.2C197.772 19.1962 199.05 19.4659 199.971 20.0658L199.978 20.07L199.984 20.0745L200.003 20.0873C200.885 20.6362 201.527 21.4917 201.984 22.6408L201.984 22.6408C202.51 23.965 202.843 25.6554 202.988 27.6465L201.886 39.2606ZM201.886 39.2606C203.624 41.0075 205.146 42.8982 206.416 44.8817L206.416 44.8818L206.422 44.8899C207.906 47.111 208.668 49.6067 208.675 52.3015C208.681 54.8417 208.181 56.9702 207.221 58.6528C206.217 60.3646 204.816 61.6382 203.041 62.4659C201.341 63.2579 199.374 63.667 197.188 63.6724C194.52 63.679 192.285 63.1141 190.517 62.0274L190.517 62.0273L190.511 62.024L190.487 62.0099C188.75 60.9099 187.396 59.3544 186.461 57.3716L186.451 57.3498L186.451 57.349C185.601 55.4608 185.062 53.2102 184.854 50.6467C184.854 50.6466 184.854 50.6465 184.854 50.6464L184.774 49.654L189.814 48.0319L190.014 49.52C190.268 51.4181 190.65 53.1253 191.156 54.5938L191.156 54.5938L191.16 54.6041C191.634 55.8892 192.328 56.8979 193.285 57.6284L193.285 57.6285L193.295 57.636C194.225 58.3084 195.578 58.616 197.234 58.6119C199.116 58.6073 200.651 58.1674 201.722 57.2191C202.815 56.274 203.275 54.6259 203.27 52.4876C203.265 50.7326 202.814 49.1925 201.883 47.8043L201.875 47.7929L201.867 47.782L201.862 47.7749C200.88 46.2262 199.473 44.5576 197.675 42.8065C197.675 42.8059 197.674 42.8053 197.673 42.8046L197.648 42.7792L197.647 42.778L189.241 34.4722C187.733 32.9342 186.624 31.3666 185.926 29.8153L185.926 29.8152C185.209 28.2218 184.846 26.5647 184.842 24.8838C184.833 21.4641 185.92 18.8213 188.023 16.9647L188.053 16.9394L188.053 16.9395L188.059 16.9345C190.136 15.1409 192.857 14.2007 196.161 14.1925C197.843 14.1884 199.382 14.4156 200.742 14.8641L200.742 14.8643L200.754 14.868C202.159 15.2918 203.41 16.034 204.456 17.066L204.462 17.0721L204.468 17.0779C205.54 18.0654 206.394 19.4018 206.994 21.0602C207.558 22.6232 207.934 24.5625 208.098 26.8345L208.098 26.8351L208.176 27.8962L203.096 29.125L202.988 27.6468L201.886 39.2606Z" fill="black" stroke="black"/>
<path d="M178.938 21.3664L179.055 21.7047C179.366 22.7124 179.566 24.0873 179.694 26.2178L179.694 26.2179C179.834 28.532 179.898 31.918 179.905 37.2108L179.905 37.2113C179.911 39.6669 179.62 41.6449 178.999 43.453L178.999 43.453L178.997 43.4608C178.322 45.5377 177.096 47.2652 175.351 48.5929C173.613 49.9124 171.219 50.613 168.195 50.6204L163.944 50.6309L163.444 50.6322L163.445 51.1322L163.476 63.7775L157.903 63.7912L157.782 14.7951L168.048 14.7698C171.086 14.7623 173.481 15.3797 175.213 16.5537L175.213 16.5537L175.219 16.5578C176.987 17.7184 178.24 19.3345 178.938 21.3664ZM171.424 44.9111L171.437 44.9041L171.449 44.8963L171.459 44.8906C172.407 44.3772 173.078 43.5724 173.52 42.4775C174.031 41.2592 174.287 39.6593 174.32 37.7222L174.328 37.7221L174.327 37.2221C174.313 31.5345 174.243 28.0158 174.101 25.8322L174.101 25.8318C173.966 23.7657 173.782 23.1003 173.58 22.5879L173.58 22.5879L173.576 22.5776L173.564 22.5493C173.167 21.5212 172.558 20.7877 171.678 20.3925L171.652 20.3807C170.62 19.8872 169.212 19.6604 167.492 19.6646L163.864 19.6736L163.364 19.6748L163.366 20.1748L163.427 45.2387L163.429 45.7387L163.929 45.7375L167.497 45.7287C169.089 45.7248 170.42 45.4636 171.424 44.9111Z" fill="black" stroke="black"/>
<path d="M144.544 14.8272L150.058 14.8136L150.148 51.2025C150.154 53.5165 149.763 55.6387 148.996 57.5148L148.985 57.539L148.985 57.5389L148.979 57.5517C148.178 59.4661 146.817 61.0361 144.93 62.2015L144.927 62.2035L144.907 62.216C143.093 63.3132 140.811 63.8709 137.534 63.879C134.25 63.8871 131.774 63.3386 129.921 62.2488L129.921 62.2487L129.909 62.2421L129.892 62.2328C128.002 61.0781 126.653 59.5087 125.872 57.5739L125.857 57.534L125.858 57.534L125.855 57.5274C125.165 55.6715 124.808 53.5626 124.802 51.2621L124.712 14.8732L130.285 14.8595L130.375 51.304C130.378 52.8032 130.584 54.1826 130.989 55.4079L130.993 55.4186L130.997 55.4291C131.396 56.4742 132.064 57.2818 133.026 57.8811L133.026 57.8811L133.033 57.8855C134.1 58.525 135.633 58.8204 137.524 58.8157C139.3 58.8114 140.752 58.5132 141.783 57.8658L141.787 57.8632C142.797 57.216 143.51 56.3695 143.941 55.2856L143.941 55.2854C144.408 54.1083 144.638 52.7548 144.634 51.2746L144.544 14.8272Z" fill="black" stroke="black"/>
<path d="M108.727 35.4171L108.621 35.6304L108.72 35.8469L121.261 63.2944L115.441 63.3087L105.685 41.9901L105.269 41.0818L104.791 41.9589L101.891 47.2798L101.83 47.3923L101.83 47.5203L101.869 63.3422L96.2378 63.3561L96.1184 14.9455L101.75 14.9316L101.798 34.741L102.743 34.9681L113.044 14.9037L118.899 14.8893L108.727 35.4171Z" fill="black" stroke="black"/>
<path d="M34.5359 0.925349L34.9947 0.924217C53.0775 1.1093 67.6801 14.7737 67.7214 31.5031C67.7459 41.4597 62.5165 53.1874 52.0397 66.3769L52.0396 66.377C44.3746 76.0303 36.8059 82.7331 36.4927 83.0104C36.0087 83.4381 35.4029 83.6556 34.7399 83.6572C34.0778 83.6589 33.431 83.4306 32.9416 82.9848C32.6247 82.6955 25.0414 75.7455 17.3418 65.9942L17.3417 65.9941C6.8024 52.6504 1.52201 41.1106 1.49873 31.6693C1.45712 14.7978 16.2435 0.970459 34.5359 0.925349ZM45.272 49.9239L45.2075 23.7878L47.021 23.7834L47.042 32.2743C47.0444 33.2589 47.844 34.0547 48.8287 34.0522L51.5221 34.0456C52.7586 34.0425 53.7587 33.0374 53.7557 31.801L53.7557 31.7981L53.7253 19.4696C53.722 18.1307 52.6347 17.0488 51.2958 17.0521L38.9732 17.0825L38.4732 17.0837L38.4744 17.5837L38.5543 49.9874C38.5574 51.2286 38.3634 52.2768 38.0126 53.1576C37.7155 53.9031 37.2286 54.4994 36.4872 54.9769C35.8691 55.3618 34.8521 55.6593 33.2539 55.6632C31.5414 55.6675 30.4545 55.3712 29.7989 54.9817C29.1325 54.5624 28.6871 54.0206 28.4144 53.3087C28.0998 52.3631 27.9286 51.2703 27.9255 50.0136L27.8456 17.6099L27.8444 17.1099L27.3444 17.1112L21.5798 17.1254L21.0798 17.1266L21.081 17.6266L21.1608 49.9805C21.1659 52.0668 21.4806 54.0082 22.1393 55.7868L22.14 55.7893L22.1488 55.8198L22.1614 55.849L22.1679 55.864C22.9445 57.7838 24.278 59.3034 26.0858 60.4072L26.1043 60.4185L26.1237 60.4281L26.1317 60.4321C28.0337 61.5452 30.5725 61.9895 33.2724 61.9828C35.9305 61.9763 38.2803 61.531 40.1261 60.4465L40.1287 60.4464L40.1965 60.4047C40.2102 60.3964 40.2239 60.3882 40.2376 60.3798L40.3611 60.3047L40.3628 60.3013C42.0739 59.2187 43.3568 57.7539 44.1429 55.9297L44.2267 55.8454L44.2265 55.7309C44.9418 53.9492 45.2771 52.0047 45.272 49.9239Z" fill="black" stroke="black"/>
</svg>
