<svg width="299" height="25" viewBox="0 0 299 25" fill="none" xmlns="http://www.w3.org/2000/svg">
<path d="M22.2041 4.83752L22.242 4.87613C23.1733 5.89877 23.6912 7.48677 23.7045 9.66258C23.718 11.8696 23.1827 13.4492 22.2046 14.4503L22.2043 14.4506C21.1937 15.4871 19.7687 16.0434 17.9109 16.0547L4.82558 16.1347L4.32559 16.1378L4.32864 16.6378L4.37076 23.5283L1.5167 23.5458L1.39367 3.41728L17.95 3.31609C19.8106 3.30472 21.2196 3.83684 22.2041 4.83752ZM4.30689 13.0795L4.30995 13.5795L20.0653 12.5332C20.6095 11.8802 20.8273 10.9059 20.8199 9.68298C20.8124 8.46178 20.583 7.44877 20.0318 6.78385L20.0319 6.78374L20.023 6.77352C19.4781 6.15142 18.7261 5.87253 17.8209 5.87806L4.76337 5.95787L4.26338 5.96093L4.26644 6.46092L4.30689 13.0795Z" fill="black" stroke="black"/>
<path d="M31.5161 18.8556L31.2149 18.8574L31.0757 19.1245L28.8587 23.3794L25.6128 23.3992L36.1465 3.2056L40.7663 3.17736L51.5805 23.2405L48.3337 23.2603L46.0293 19.0304L45.8863 18.7678L45.5872 18.7696L31.5161 18.8556ZM39.0807 5.72163L38.9389 5.45364L38.6357 5.45549L38.3711 5.45711L38.068 5.45896L37.9294 5.72867L32.8656 15.5882L32.4889 16.3217L33.3135 16.3166L43.8257 16.2524L44.6503 16.2473L44.2646 15.5185L39.0807 5.72163Z" fill="black" stroke="black"/>
<path d="M76.8397 12.7155L76.8403 12.7158C78.2732 13.3492 79.1095 14.8942 79.1261 17.6083C79.1338 18.8775 78.8962 19.8964 78.4487 20.6857C78.005 21.4684 77.3378 22.056 76.4274 22.4429L76.4273 22.443C75.7057 22.7499 74.6032 22.9961 73.067 23.1667C71.5386 23.3365 69.6129 23.4283 67.2637 23.4426C64.7097 23.4582 62.6461 23.331 61.0413 23.0629C59.4264 22.7932 58.3267 22.3886 57.6564 21.8874C56.6502 21.1334 56.0466 19.498 56.0176 16.617L58.8996 16.5993C58.9105 17.465 59.0074 18.2033 59.2064 18.7929C59.4117 19.4009 59.742 19.896 60.2438 20.173C60.6091 20.38 61.2335 20.5561 62.2939 20.6831C63.373 20.8122 64.9552 20.8955 67.2759 20.8814C69.1134 20.8701 70.6418 20.8171 71.8497 20.722C73.0465 20.6279 73.9643 20.4901 74.5594 20.2956L74.5599 20.2954C75.1097 20.1151 75.5529 19.8058 75.8466 19.3276C76.1332 18.8609 76.2454 18.285 76.2414 17.6259C76.2337 16.3698 75.9002 15.3597 74.9483 14.9768L74.946 14.9759C74.6061 14.8411 74.0357 14.721 72.98 14.6346C71.9138 14.5473 70.3154 14.4919 67.8942 14.5067C65.4968 14.5214 63.5275 14.3903 61.9558 14.1149C60.3789 13.8386 59.2364 13.4226 58.4653 12.8916L58.4637 12.8905C57.2982 12.0947 56.6353 10.632 56.6215 8.3738C56.6065 5.91737 57.3879 4.45503 58.7835 3.77902C59.4809 3.44435 60.5557 3.17445 62.0701 2.98755C63.5768 2.8016 65.4834 2.70168 67.8219 2.68739C70.1541 2.67314 72.0519 2.8019 73.5459 3.07109C75.0465 3.34148 76.0983 3.74651 76.774 4.25424C77.8169 5.04086 78.4466 6.63538 78.4756 9.19015L75.6493 9.20743C75.6266 7.66198 75.242 6.4321 74.2394 5.93044L74.2388 5.93016C73.875 5.74869 73.2802 5.58359 72.2966 5.46359C71.3041 5.34253 69.8814 5.26366 67.8377 5.27615C65.022 5.29336 63.2222 5.34209 62.5426 5.43119C61.6019 5.54948 60.8303 5.81993 60.2932 6.32048C59.7387 6.83719 59.5012 7.53502 59.5062 8.3534C59.5102 9.02133 59.6367 9.61541 59.9202 10.1138C60.2073 10.6185 60.6362 10.9911 61.1841 11.2403L61.185 11.2407C61.7684 11.5047 62.6339 11.6808 63.7295 11.7924C64.8371 11.9051 66.2242 11.9557 67.8785 11.9456C70.3021 11.9308 72.2503 11.9893 73.7492 12.122C75.263 12.2559 76.2683 12.4619 76.8397 12.7155Z" fill="black" stroke="black"/>
<path d="M92.3586 5.92648L92.3556 5.42649L91.8556 5.42954L84.0265 5.47739L84.0109 2.91631L103.529 2.79701L103.544 5.3581L95.7375 5.40582L95.2375 5.40887L95.2405 5.90886L95.3449 22.9763L92.463 22.9939L92.3586 5.92648Z" fill="black" stroke="black"/>
<path d="M110.891 18.3702L110.59 18.3721L110.451 18.6392L108.234 22.894L104.988 22.9139L115.522 2.72025L120.141 2.69201L130.956 22.7551L127.709 22.775L125.404 18.545L125.261 18.2824L124.962 18.2842L110.891 18.3702ZM118.456 5.23628L118.314 4.96829L118.011 4.97014L117.746 4.97176L117.443 4.97361L117.304 5.24332L112.241 15.1029L111.864 15.8363L112.688 15.8313L123.201 15.767L124.025 15.762L123.64 15.0332L118.456 5.23628Z" fill="black" stroke="black"/>
<path d="M140.828 19.6311L140.831 20.1311L141.331 20.128L157.344 20.0302L157.36 22.5913L137.962 22.7098L137.839 2.58135L157.237 2.46278L157.253 5.02387L141.239 5.12175L140.739 5.1248L140.742 5.62479L140.773 10.6994L140.776 11.1994L141.276 11.1963L156.722 11.1019L156.737 13.663L141.292 13.7574L140.792 13.7605L140.795 14.2605L140.828 19.6311Z" fill="black" stroke="black"/>
<path d="M182.292 22.4431L165.978 22.5428L165.855 2.41435L181.42 2.31922C183.523 2.30636 185.114 2.81048 186.212 3.75206C187.296 4.72426 187.871 6.11415 187.883 7.95578C187.893 9.66894 187.355 10.7873 186.376 11.4339L185.677 11.8963L186.416 12.2919C186.923 12.5628 187.35 12.9332 187.693 13.4019L187.693 13.4023C188.316 14.2406 188.649 15.2928 188.657 16.5538C188.669 18.5692 188.105 20.0169 187.064 20.9483L187.063 20.9496C186.004 21.9043 184.423 22.4301 182.292 22.4431ZM184.301 10.053L184.458 9.90379L184.458 9.88034C184.852 9.399 185.005 8.72514 185.001 7.97063C184.995 7.06428 184.771 6.28376 184.248 5.74907L184.247 5.74788C183.628 5.11869 182.632 4.873 181.435 4.88031L169.255 4.95475L168.755 4.95781L168.758 5.4578L168.789 10.4466L168.792 10.9466L169.292 10.9436L181.472 10.8691C182.688 10.8617 183.69 10.6313 184.301 10.053ZM169.306 13.3801L168.806 13.3832L168.81 13.8832L168.81 13.8859L168.844 19.4669L168.847 19.9669L169.347 19.9638L182.251 19.8849C183.343 19.8783 184.263 19.5923 184.897 18.9552C185.512 18.3427 185.783 17.5377 185.778 16.6046C185.772 15.6577 185.469 14.8692 184.842 14.2311L184.841 14.2303C184.193 13.574 183.303 13.2946 182.211 13.3013L169.306 13.3801Z" fill="black" stroke="black"/>
<path d="M199.422 17.8292L199.121 17.8311L198.982 18.0982L196.765 22.353L193.519 22.3728L204.053 2.17923L208.673 2.15099L219.487 22.2141L216.24 22.234L213.936 18.004L213.793 17.7414L213.493 17.7432L199.422 17.8292ZM206.987 4.69526L206.845 4.42727L206.542 4.42912L206.277 4.43074L205.974 4.43259L205.836 4.7023L200.772 14.5618L200.395 15.2953L201.22 15.2903L211.732 15.226L212.557 15.221L212.171 14.4922L206.987 4.69526Z" fill="black" stroke="black"/>
<path d="M244.147 11.695L244.235 11.7341C245.616 12.3905 246.419 13.9276 246.436 16.5878C246.444 17.8573 246.207 18.8762 245.76 19.6655C245.317 20.4481 244.65 21.0356 243.74 21.4224L243.74 21.4225C243.018 21.7294 241.916 21.9756 240.38 22.1462C238.851 22.316 236.925 22.4077 234.576 22.4221C232.022 22.4377 229.959 22.3105 228.354 22.0424C226.739 21.7726 225.639 21.3681 224.969 20.8669C223.963 20.1129 223.359 18.4775 223.33 15.5964L226.212 15.5788C226.223 16.4445 226.32 17.1828 226.519 17.7724C226.724 18.3804 227.055 18.8755 227.556 19.1525C227.922 19.3595 228.546 19.5356 229.606 19.6626C230.685 19.7917 232.268 19.875 234.588 19.8608C236.426 19.8496 237.954 19.7966 239.162 19.7015C240.359 19.6073 241.277 19.4696 241.872 19.2751L241.872 19.2749C242.422 19.0946 242.865 18.7853 243.159 18.3071C243.446 17.8404 243.558 17.2645 243.554 16.6054C243.546 15.3493 243.213 14.3392 242.261 13.9563L242.258 13.955C241.917 13.8206 241.346 13.7005 240.29 13.6141C239.224 13.5268 237.625 13.4714 235.204 13.4862C232.807 13.5009 230.837 13.3698 229.265 13.0944C227.689 12.8181 226.546 12.4021 225.775 11.8712L225.773 11.8701C224.608 11.0742 223.945 9.61151 223.931 7.35331C223.916 4.89688 224.698 3.43454 226.093 2.75853C226.791 2.42385 227.865 2.15396 229.38 1.96706C230.886 1.78111 232.793 1.68119 235.132 1.6669C237.464 1.65264 239.362 1.78141 240.856 2.0506C242.356 2.32099 243.408 2.72601 244.084 3.23375C245.127 4.02037 245.756 5.61489 245.785 8.16966L242.959 8.18694C242.936 6.6415 242.552 5.41161 241.549 4.90994L241.549 4.90967C241.185 4.7282 240.59 4.5631 239.606 4.4431C238.614 4.32204 237.191 4.24316 235.147 4.25566C232.329 4.27288 230.532 4.3216 229.852 4.4107C228.91 4.52897 228.138 4.79936 227.601 5.29987C227.046 5.81661 226.808 6.51453 226.813 7.33293C226.817 8.00086 226.944 8.59493 227.227 9.09337C227.514 9.59806 227.943 9.97058 228.491 10.2198L228.492 10.2203C229.075 10.4842 229.942 10.6604 231.038 10.7719C232.145 10.8847 233.533 10.9352 235.185 10.9251C237.609 10.9103 239.557 10.9689 241.056 11.1015C242.57 11.2354 243.575 11.4415 244.147 11.695Z" fill="black" stroke="black"/>
<path d="M258.994 4.90595L258.991 4.40596L258.491 4.40902L250.659 4.45689L250.644 1.8958L270.164 1.77649L270.18 4.33758L262.373 4.38529L261.873 4.38835L261.876 4.88834L261.98 21.9557L259.099 21.9733L258.994 4.90595Z" fill="black" stroke="black"/>
<path d="M277.524 17.3497L277.223 17.3516L277.084 17.6187L274.867 21.8735L271.621 21.8933L282.154 1.69974L286.774 1.6715L297.588 21.7346L294.342 21.7545L292.037 17.5245L291.894 17.2619L291.595 17.2637L277.524 17.3497ZM285.089 4.21577L284.947 3.94778L284.644 3.94963L284.379 3.95125L284.076 3.9531L283.937 4.22281L278.873 14.0823L278.497 14.8158L279.321 14.8108L289.834 14.7465L290.658 14.7415L290.272 14.0127L285.089 4.21577Z" fill="black" stroke="black"/>
</svg>
