<svg width="266" height="63" viewBox="0 0 266 63" fill="none" xmlns="http://www.w3.org/2000/svg">
<g clip-path="url(#clip0_2097_157)">
<path d="M55.5942 2.00342L55.679 15.8798C55.6872 17.2129 55.3663 18.4354 54.7248 19.5171C54.0704 20.6206 53.1783 21.5177 52.0746 22.1866C50.9883 22.8425 49.7556 23.179 48.4158 23.1872L45.78 23.2033C44.4577 23.2114 43.2253 22.89 42.118 22.2475C40.993 21.5921 40.0856 20.706 39.4222 19.615C38.7676 18.5412 38.4317 17.3227 38.4236 15.9896L38.3387 2.10889L31.6484 2.14978L31.7333 16.0261C31.7448 17.9176 32.1193 19.7246 32.852 21.3995C33.5759 23.0615 34.5964 24.5442 35.8783 25.809C37.1646 27.078 38.677 28.0773 40.3714 28.7768C42.0746 29.4805 43.907 29.8286 45.8204 29.8169L48.4562 29.8008C50.3696 29.7891 52.1976 29.4187 53.8921 28.6941C55.5734 27.974 57.0735 26.965 58.3399 25.6933C59.6107 24.4217 60.6131 22.9309 61.3209 21.2601C62.0331 19.5807 62.3854 17.7563 62.3737 15.8432L62.3283 1.96226L55.5942 2.00342Z" fill="black"/>
<path d="M92.8405 1.77543L92.9049 12.306C92.2481 11.5915 91.5565 10.9032 90.83 10.2497C88.9324 8.53864 86.8828 7.04921 84.7472 5.81136C82.6073 4.57353 80.4383 3.60424 78.3062 2.92905C76.1214 2.23687 74.0569 1.89023 72.1655 1.9018L68.8203 1.92224L68.9899 29.6749L75.6802 29.634L75.5541 9.00564C76.5103 9.26383 77.5152 9.6256 78.5513 10.0867C80.3032 10.8638 82.0564 11.8746 83.7628 13.0978C85.4604 14.3166 87.0322 15.7311 88.4343 17.311C89.8099 18.8609 90.9281 20.5724 91.7625 22.4025C92.5702 24.1766 92.9889 26.0525 93.0007 27.9873L93.0102 29.5325L99.7005 29.4916L99.5308 1.73454L92.8405 1.77543Z" fill="black"/>
<path d="M113.331 1.6499L106.641 1.6908L106.81 29.4435L113.501 29.4026L113.331 1.6499Z" fill="black"/>
<path d="M130.185 9.07871C131.088 8.46721 132.211 8.15303 133.525 8.145L150.71 8.03996L150.67 1.42208L133.484 1.52712C131.532 1.53905 129.73 1.91798 128.136 2.65056C126.542 3.38315 125.156 4.41745 124.013 5.72296C122.887 7.01105 122.011 8.5097 121.413 10.1755C120.819 11.8326 120.519 13.6177 120.53 15.4832C120.542 17.3486 120.859 19.1646 121.473 20.8143C122.097 22.4813 122.99 23.9648 124.136 25.226C125.296 26.5045 126.694 27.5131 128.293 28.2262C129.899 28.9392 131.701 29.2961 133.654 29.2841L150.839 29.1791L150.799 22.5655L133.614 22.6706C132.287 22.6787 131.19 22.3824 130.272 21.7647C129.326 21.1299 128.581 20.2688 128.053 19.1986C127.508 18.0895 127.229 16.8316 127.22 15.4509C127.212 14.0702 127.476 12.7961 128.007 11.6674C128.517 10.5865 129.248 9.71638 130.181 9.08306L130.185 9.07871Z" fill="black"/>
<path d="M188.885 9.76284C188.266 8.10019 187.372 6.61235 186.231 5.34245C185.071 4.05102 183.668 3.03376 182.07 2.32068C180.463 1.60766 178.674 1.25068 176.743 1.26248L168.437 1.31325C166.485 1.32518 164.683 1.70411 163.089 2.4367C161.496 3.16928 160.109 4.20358 158.966 5.5091C157.84 6.79719 156.964 8.29584 156.366 9.9616C155.772 11.6187 155.472 13.4038 155.483 15.2693C155.495 17.1348 155.812 18.9508 156.427 20.6005C157.05 22.2674 157.943 23.7509 159.089 25.0121C160.249 26.2906 161.647 27.2992 163.246 28.0123C164.853 28.7253 166.654 29.0822 168.607 29.0703L176.913 29.0195C178.84 29.0077 180.628 28.6289 182.226 27.8963C183.816 27.1637 185.202 26.1381 186.345 24.8499C187.476 23.5747 188.351 22.0804 188.954 20.406C189.548 18.7489 189.848 16.9508 189.837 15.0637C189.825 13.1765 189.508 11.4211 188.889 9.76715L188.885 9.76284ZM183.138 15.1003C183.146 16.4853 182.887 17.7551 182.364 18.8707C181.862 19.9429 181.136 20.813 180.203 21.455C179.288 22.0839 178.199 22.3935 176.873 22.4016L168.567 22.4524C167.24 22.4605 166.144 22.1642 165.225 21.5465C164.279 20.9117 163.534 20.0506 163.007 18.9804C162.461 17.8756 162.182 16.6134 162.174 15.2327C162.165 13.852 162.429 12.5779 162.96 11.4492C163.471 10.3683 164.201 9.49819 165.134 8.86486C166.037 8.25337 167.16 7.93919 168.474 7.93116L176.779 7.88039C178.093 7.87237 179.22 8.17279 180.13 8.77321C181.08 9.39935 181.794 10.2347 182.313 11.318C182.85 12.4401 183.125 13.7153 183.133 15.1003L183.138 15.1003Z" fill="black"/>
<path d="M219.48 20.7608C220.1 20.4756 220.689 20.1301 221.238 19.7285C222.555 18.7726 223.603 17.5455 224.36 16.0866C225.117 14.6189 225.497 13.0151 225.487 11.3141C225.475 9.42266 224.991 7.66828 224.045 6.09853C223.107 4.54171 221.825 3.2943 220.243 2.38202C218.644 1.46552 216.863 1.00893 214.95 1.02063L193.5 1.15173L193.67 28.9044L200.36 28.8635L200.317 21.8172L211.066 21.7515L218.592 28.7521L227.896 28.6952L219.48 20.7521L219.48 20.7608ZM218.792 11.3593C218.796 12.0519 218.634 12.6675 218.3 13.2452C217.958 13.836 217.509 14.2932 216.929 14.643C216.367 14.9841 215.746 15.1523 215.032 15.1567L200.272 15.2469L200.226 7.73308L214.986 7.64287C215.704 7.63848 216.336 7.79477 216.903 8.12026C217.487 8.45431 217.936 8.89739 218.281 9.46663C218.617 10.0273 218.788 10.6452 218.792 11.3593Z" fill="black"/>
<path d="M258.231 0.764686L258.296 11.2953C257.639 10.5808 256.947 9.89248 256.221 9.23901C254.323 7.53223 252.278 6.03844 250.138 4.80061C247.998 3.56278 245.829 2.59349 243.697 1.91831C241.512 1.22613 239.448 0.879492 237.556 0.891053L234.211 0.911499L234.381 28.6642L241.075 28.6233L240.949 7.99487C241.905 8.25306 242.91 8.61483 243.946 9.07597C245.698 9.85303 247.451 10.8638 249.158 12.087C250.855 13.3059 252.427 14.7203 253.829 16.3003C255.205 17.8501 256.323 19.5616 257.157 21.3918C257.965 23.1658 258.384 25.0418 258.396 26.9765L258.405 28.5217L265.095 28.4808L264.926 0.723768L258.236 0.764659L258.231 0.764686Z" fill="black"/>
<path d="M27.3351 40.6429L27.3133 37.0635L1.04688 37.224L1.2001 62.2932L4.82109 62.2711L4.75543 51.5284L22.046 51.4227L22.0241 47.8389L4.73352 47.9446L4.68974 40.7813L27.3351 40.6429Z" fill="black"/>
<path d="M91.5471 61.7411L76.9581 61.8303C75.1935 61.8411 73.5978 61.5262 72.1709 60.8943C70.7396 60.2581 69.5125 59.3697 68.4765 58.229C67.4406 57.0883 66.6444 55.7643 66.079 54.2485C65.5137 52.737 65.2279 51.1069 65.2172 49.367C65.2066 47.627 65.4727 46.0282 66.0195 44.5099C66.5663 42.9917 67.3462 41.6494 68.3681 40.4832C69.3856 39.3213 70.606 38.4092 72.0295 37.7555C73.4485 37.1019 75.0447 36.7719 76.8048 36.7611L91.3939 36.6719L91.4157 40.2514L76.8267 40.3406C75.1585 40.3508 73.7336 40.7577 72.5388 41.5657C71.3484 42.3738 70.4311 43.4571 69.787 44.8245C69.143 46.1919 68.8281 47.6958 68.8382 49.3449C68.8483 50.9939 69.1815 52.4895 69.8421 53.8316C70.5027 55.178 71.4332 56.2501 72.6335 57.0565C73.8338 57.8629 75.268 58.2567 76.9362 58.2465L91.5252 58.1573L91.5471 61.7368L91.5471 61.7411Z" fill="black"/>
<path d="M112.098 61.6157L108.477 61.6379L108.345 40.1481L96.8344 40.2185L96.8125 36.639L123.455 36.4762L123.477 40.0557L111.966 40.126L112.098 61.6157Z" fill="black"/>
<path d="M160.046 48.7873C160.057 50.5316 159.791 52.1607 159.244 53.679C158.697 55.1972 157.913 56.5352 156.895 57.6884C155.873 58.8417 154.657 59.7451 153.234 60.3987C151.81 61.0524 150.232 61.3823 148.493 61.393L140.052 61.4446C138.287 61.4553 136.692 61.1405 135.265 60.5086C133.833 59.8724 132.606 58.9839 131.57 57.8432C130.534 56.7025 129.738 55.3786 129.173 53.8628C128.607 52.3513 128.322 50.7212 128.311 48.9812C128.3 47.2413 128.566 45.6425 129.113 44.1242C129.66 42.6059 130.44 41.2637 131.462 40.0974C132.479 38.9355 133.7 38.0234 135.123 37.3698C136.542 36.7162 138.138 36.3861 139.899 36.3754L148.34 36.3238C150.078 36.3131 151.661 36.6281 153.092 37.26C154.519 37.8962 155.751 38.7889 156.787 39.9426C157.818 41.0963 158.619 42.4246 159.184 43.9404C159.75 45.4519 160.036 47.069 160.046 48.7873ZM156.425 48.8094C156.415 47.1604 156.086 45.6604 155.439 44.3009C154.791 42.9458 153.865 41.8693 152.665 41.0759C151.465 40.2825 150.03 39.893 148.362 39.9032L139.92 39.9548C138.252 39.965 136.827 40.3719 135.633 41.18C134.442 41.988 133.525 43.0714 132.881 44.4388C132.237 45.8062 131.922 47.3101 131.932 48.9591C131.942 50.6082 132.275 52.1038 132.936 53.4459C133.596 54.7923 134.527 55.8644 135.727 56.6708C136.927 57.4772 138.362 57.871 140.03 57.8608L148.472 57.8092C150.14 57.799 151.565 57.3834 152.759 56.5667C153.95 55.7457 154.863 54.6623 155.494 53.308C156.125 51.9537 156.435 50.4541 156.425 48.8094Z" fill="black"/>
<path d="M192.297 52.2605C193.439 51.4311 194.339 50.3781 194.997 49.1102C195.654 47.8423 195.979 46.4682 195.97 44.9836C195.96 43.3345 195.548 41.8351 194.729 40.4767C193.911 39.1225 192.814 38.0471 191.43 37.2549C190.05 36.4625 188.524 36.0736 186.856 36.0838L166.641 36.2074L166.794 61.2766L170.415 61.2544L170.371 54.0912L183.524 54.0108L191.177 61.1275L196.068 61.0977L188.414 53.8727C189.862 53.6258 191.155 53.0855 192.301 52.2561L192.297 52.2605ZM170.349 50.5507L170.284 39.7691L186.878 39.6676C187.894 39.6614 188.81 39.8939 189.636 40.3693C190.462 40.8404 191.114 41.4813 191.605 42.292C192.092 43.1028 192.343 44.0059 192.349 45.0101C192.355 46.0142 192.119 46.89 191.638 47.7197C191.162 48.545 190.514 49.2069 189.693 49.701C188.873 50.1951 187.96 50.4474 186.944 50.4536L170.349 50.555L170.349 50.5507Z" fill="black"/>
<path d="M57.4242 44.5618C56.7625 43.0509 55.848 41.719 54.6806 40.5662C53.5133 39.4176 52.1635 38.5212 50.6228 37.8857C49.0864 37.2502 47.4469 36.9399 45.7086 36.9505L44.2856 36.9592C42.5474 36.9698 40.9118 37.3045 39.3833 37.9544C37.8547 38.6087 36.5117 39.5172 35.3585 40.6843C34.2053 41.8513 33.3071 43.19 32.664 44.7132C32.0208 46.232 31.7067 47.8528 31.7172 49.5711L31.7938 62.1057L35.4148 62.0836L35.3711 54.9203L54.8377 54.8013L54.8815 61.9646L58.5025 61.9424L58.4258 49.4078C58.4153 47.6895 58.0814 46.0728 57.4198 44.5619L57.4242 44.5618ZM54.8202 51.2218L35.3536 51.3408L35.3426 49.5489C35.3325 47.8999 35.7262 46.3955 36.5278 45.0272C37.3296 43.6631 38.4132 42.5744 39.7875 41.7653C41.1574 40.9561 42.6656 40.5487 44.3075 40.5387L45.7305 40.53C47.3724 40.5199 48.8854 40.9089 50.2651 41.7012C51.6449 42.4935 52.7461 43.5646 53.5644 44.923C54.3827 46.2772 54.7948 47.7809 54.8049 49.43L54.8158 51.2219L54.8202 51.2218Z" fill="black"/>
<path fill-rule="evenodd" clip-rule="evenodd" d="M240.22 35.7277L236.634 35.7497C236.712 37.7835 235.557 40.8984 232.887 43.8018C230.703 46.1741 227.608 48.3832 223.685 49.8312L223.609 37.4438L220.019 37.4657L220.096 50.0393C208.759 46.4943 206.182 38.9051 206.164 35.9359L202.578 35.9578C202.607 40.6713 206.464 49.8369 219.89 53.6807L219.935 60.9478L223.744 60.9245L223.699 53.5752C228.742 51.9558 232.74 49.2218 235.542 46.1835C238.578 42.884 240.349 39.0122 240.22 35.7234L240.22 35.7277Z" fill="black"/>
</g>
<defs>
<clipPath id="clip0_2097_157">
<rect width="264.092" height="59.9559" fill="white" transform="translate(0.835938 2.33826) rotate(-0.350191)"/>
</clipPath>
</defs>
</svg>
