<svg width="298" height="57" viewBox="0 0 298 57" fill="none" xmlns="http://www.w3.org/2000/svg">
<path d="M279.783 33.9035L295.082 33.8104L295.083 34.0657L279.784 34.1588C278.881 34.1643 277.877 34.4158 277.1 35.2028C276.309 36.0032 276.083 37.0334 276.089 37.9325L276.159 49.4216C276.164 50.3312 276.424 51.3089 277.177 52.0803L277.202 52.1063L277.229 52.1314C278.009 52.8749 278.99 53.1229 279.9 53.1174L293.14 53.0368L295.14 53.0246L295.128 51.0247L295.095 45.6893L295.083 43.6893L293.083 43.7015L283.758 43.7583L283.756 43.4702L295.193 43.4006C295.203 43.4006 295.211 43.4011 295.215 43.4015C295.216 43.4015 295.216 43.4016 295.217 43.4017L295.242 43.4131L295.275 43.4263C295.275 43.4263 295.275 43.4264 295.275 43.4264L295.28 43.4324L295.301 43.4525C295.308 43.4601 295.316 43.4688 295.327 43.4947L295.333 43.5089L295.336 43.5145C295.336 43.5155 295.336 43.5168 295.336 43.5183C295.337 43.5235 295.337 43.5319 295.337 43.5438L295.396 53.1343C295.396 53.1676 295.393 53.1881 295.391 53.1986C295.389 53.2087 295.387 53.2137 295.386 53.2162C295.378 53.2371 295.371 53.2469 295.365 53.2539C295.361 53.2566 295.351 53.2619 295.334 53.2689C295.332 53.27 295.327 53.2719 295.317 53.2739C295.306 53.276 295.286 53.279 295.253 53.2792L279.901 53.3727C279.661 53.3741 279.372 53.3497 279.026 53.2877C278.726 53.2219 278.416 53.1221 278.093 52.9833C277.807 52.8563 277.523 52.6902 277.238 52.4789C276.998 52.2916 276.775 52.0639 276.569 51.7873C276.39 51.5234 276.228 51.1985 276.096 50.7968C275.98 50.4353 275.907 49.9842 275.903 49.4231L275.833 37.9014C275.832 37.6601 275.856 37.3753 275.918 37.0421C275.984 36.7305 276.084 36.4229 276.219 36.1174L276.223 36.1091L276.226 36.1006C276.35 35.8135 276.517 35.5304 276.733 35.2507C276.922 35.007 277.151 34.7859 277.431 34.5874L277.431 34.5874L277.439 34.5817C277.702 34.3934 278.027 34.2267 278.431 34.0944C278.775 33.9815 279.218 33.9069 279.783 33.9035Z" fill="black" stroke="black" stroke-width="4"/>
<path d="M269.289 53.6351C269.289 53.6358 269.289 53.6364 269.289 53.637L269.277 53.6623L269.264 53.6947C269.255 53.7155 269.249 53.7253 269.242 53.7324C269.238 53.735 269.228 53.7403 269.212 53.7473C269.203 53.751 269.187 53.7573 269.146 53.7576C269.141 53.7576 269.12 53.7573 269.08 53.7471L253.439 37.6121L249.972 34.0364L250.003 39.0163L250.091 53.5462L249.836 53.5477L249.716 33.8953C249.716 33.878 249.717 33.8675 249.718 33.8626C249.718 33.861 249.718 33.8597 249.718 33.8589C249.719 33.8578 249.72 33.8561 249.722 33.8536C249.757 33.8028 249.788 33.7742 249.816 33.7553C249.819 33.7548 249.821 33.7546 249.822 33.7545C249.825 33.7541 249.838 33.7529 249.867 33.7586L249.891 33.7635L249.915 33.7677C249.916 33.7678 249.916 33.7678 249.916 33.7679C249.919 33.77 249.922 33.7727 249.925 33.7761C249.925 33.7766 249.926 33.777 249.926 33.7775L265.568 49.8966L269.033 53.468L269.003 48.4916L268.915 33.9618L269.17 33.9602L269.29 53.6127C269.29 53.6235 269.289 53.6308 269.289 53.6351Z" fill="black" stroke="black" stroke-width="4"/>
<path d="M242.87 53.5896L242.615 53.5912L242.497 34.122L242.752 34.1205L242.87 53.5896Z" fill="black" stroke="black" stroke-width="4"/>
<path d="M225.705 34.4837L218.311 34.5287L218.309 34.2734L237.336 34.1576L237.338 34.4129L229.96 34.4578L227.96 34.4699L227.972 36.4699L228.077 53.6838L227.822 53.6854L227.717 36.4714L227.705 34.4715L225.705 34.4837Z" fill="black" stroke="black" stroke-width="4"/>
<path d="M200.903 53.6981L200.786 34.373L201.041 34.3714L201.146 51.5854L201.158 53.5853L203.158 53.5731L218.457 53.48L218.458 53.7353L201.048 53.8413C201.015 53.8415 200.994 53.8387 200.984 53.8367C200.974 53.8348 200.969 53.833 200.966 53.8319C200.952 53.8262 200.94 53.8207 200.93 53.8155C200.925 53.8056 200.919 53.7938 200.913 53.7799C200.912 53.7774 200.911 53.7724 200.908 53.7623C200.906 53.7519 200.903 53.7314 200.903 53.6981Z" fill="black" stroke="black" stroke-width="4"/>
<path d="M174.439 44.2696L174.379 34.535L174.635 34.5335L174.694 44.2681C174.702 45.6378 174.895 46.9167 175.348 48.0426L175.352 48.0532L175.356 48.0636C175.774 49.0718 176.324 49.9753 177.03 50.732C177.689 51.4387 178.437 52.0198 179.277 52.4483C179.987 52.8104 180.695 53.097 181.398 53.2891L181.398 53.2892L181.408 53.2918C182.033 53.4595 182.631 53.5809 183.186 53.6359L183.214 53.6387L183.242 53.6407C183.651 53.6696 184.009 53.691 184.231 53.6897L191.71 53.6442L193.71 53.632L193.698 51.632L193.593 34.4181L193.848 34.4165L193.966 53.7417C193.966 53.7749 193.964 53.7955 193.962 53.8059C193.96 53.8161 193.958 53.8211 193.957 53.8236C193.953 53.8333 193.949 53.8406 193.946 53.8464C193.933 53.8552 193.914 53.8654 193.888 53.8764C193.88 53.8801 193.864 53.8863 193.823 53.8866L184.232 53.945C183.472 53.9496 182.694 53.872 181.896 53.708C181.121 53.5488 180.366 53.3033 179.63 52.9693C178.923 52.6331 178.248 52.2049 177.606 51.6793C176.997 51.1813 176.453 50.5865 175.975 49.885C175.524 49.198 175.151 48.3928 174.868 47.4532C174.597 46.5417 174.446 45.4861 174.439 44.2696Z" fill="black" stroke="black" stroke-width="4"/>
<path d="M169.2 50.7979L169.197 50.8075L169.194 50.8171C169.041 51.318 168.846 51.7253 168.623 52.0574C168.39 52.4045 168.127 52.6844 167.837 52.9105C167.48 53.1873 167.125 53.4038 166.771 53.568C166.401 53.7396 166.031 53.8635 165.657 53.9436L165.657 53.9436L165.649 53.9454C165.255 54.0319 164.91 54.0698 164.61 54.0716L150.194 54.1593L150.193 53.904L164.608 53.8163C165.831 53.8089 167.045 53.4292 167.953 52.4481C168.829 51.5147 169.173 50.3373 169.165 49.1371C169.162 48.5389 169.066 47.943 168.852 47.3703C168.642 46.8069 168.328 46.2922 167.905 45.8499C167.469 45.3817 166.944 45.0408 166.371 44.8137C165.781 44.5757 165.164 44.4773 164.551 44.481L154.764 44.5406C154.311 44.5433 153.769 44.4677 153.126 44.2793C152.58 44.1093 152.058 43.8366 151.555 43.4437C151.126 43.1 150.725 42.6207 150.375 41.9569C150.103 41.4243 149.916 40.6757 149.909 39.6306C149.903 38.5816 150.083 37.8398 150.344 37.3199C150.689 36.6465 151.086 36.1595 151.515 35.8094L151.515 35.8094L151.518 35.8071C152.014 35.4003 152.525 35.1272 153.057 34.9634L153.069 34.9597L153.081 34.9559C153.722 34.7496 154.259 34.6647 154.704 34.662L167.188 34.586L167.19 34.8413L154.706 34.9173C153.465 34.9248 152.259 35.3269 151.353 36.3095L151.345 36.3184L151.337 36.3273C150.491 37.2675 150.157 38.4363 150.165 39.6291C150.172 40.8227 150.515 42.0021 151.393 42.9327L151.409 42.9498L151.425 42.9666C152.349 43.901 153.549 44.2599 154.762 44.2526L164.549 44.193L164.556 44.193C164.853 44.1999 165.194 44.2418 165.584 44.3305L165.604 44.335L165.623 44.3391C165.973 44.4113 166.332 44.5305 166.701 44.7043L166.709 44.7078L166.716 44.7113C167.077 44.8777 167.427 45.0934 167.766 45.3646L167.778 45.3737L167.789 45.3826C168.077 45.6062 168.345 45.8873 168.588 46.24L168.596 46.2519L168.604 46.2636C168.835 46.5875 169.035 46.9843 169.19 47.4731C169.329 47.9105 169.417 48.4572 169.421 49.1356C169.425 49.8041 169.341 50.3512 169.2 50.7979Z" fill="black" stroke="black" stroke-width="4"/>
<path d="M143.945 54.3987C143.945 54.3995 143.945 54.4001 143.945 54.4007L143.933 54.426L143.92 54.4583C143.912 54.4792 143.905 54.489 143.899 54.496C143.894 54.4987 143.885 54.504 143.868 54.511C143.859 54.5147 143.844 54.521 143.803 54.5212C143.797 54.5213 143.776 54.521 143.736 54.5107L128.095 38.3758L124.629 34.8L124.659 39.78L124.747 54.3099L124.492 54.3114L124.372 34.6589C124.372 34.6417 124.373 34.6312 124.374 34.6263C124.374 34.6246 124.374 34.6234 124.375 34.6225C124.375 34.6215 124.376 34.6197 124.378 34.6173C124.414 34.5665 124.444 34.5379 124.472 34.519C124.475 34.5184 124.477 34.5182 124.478 34.5181C124.481 34.5178 124.494 34.5166 124.523 34.5223L124.547 34.5271L124.571 34.5314C124.572 34.5314 124.572 34.5315 124.573 34.5316C124.575 34.5336 124.578 34.5363 124.581 34.5398C124.582 34.5402 124.582 34.5407 124.583 34.5411L140.224 50.6603L143.69 54.2316L143.659 49.2553L143.571 34.7254L143.826 34.7239L143.946 54.3764C143.946 54.3872 143.945 54.3945 143.945 54.3987Z" fill="black" stroke="black" stroke-width="4"/>
<path d="M96.8644 42.5052C96.8572 41.3238 97.054 40.2746 97.431 39.3352C97.8317 38.3528 98.3689 37.5424 99.0342 36.8774L99.0342 36.8774L99.043 36.8685C99.7146 36.1887 100.521 35.6461 101.486 35.2447C102.424 34.8544 103.466 34.645 104.637 34.6379L110.397 34.6028C111.568 34.5957 112.605 34.7925 113.533 35.1689L113.539 35.1713C114.508 35.561 115.322 36.0937 116.001 36.7653L116.001 36.7653L116.01 36.7741C116.681 37.4286 117.221 38.2289 117.623 39.2023L117.625 39.2081C118.015 40.144 118.225 41.192 118.232 42.3752L118.259 46.8595C118.267 48.0558 118.069 49.1114 117.691 50.0501C117.301 51.0195 116.769 51.8327 116.097 52.5125C115.427 53.1913 114.621 53.7332 113.659 54.1345C112.733 54.5141 111.694 54.7195 110.52 54.7266L104.759 54.7617C103.586 54.7688 102.538 54.5767 101.594 54.2068C100.628 53.8173 99.8169 53.2856 99.1389 52.6157C98.4575 51.9426 97.9083 51.1334 97.4957 50.1659C97.1089 49.2336 96.899 48.1828 96.8917 46.9896L96.8644 42.5052ZM97.6352 39.4878L97.6321 39.4957L97.6291 39.5036C97.2709 40.4459 97.1133 41.4551 97.1197 42.5037L97.147 46.988C97.1534 48.0372 97.3234 49.0456 97.6891 49.9881L97.696 50.0061L97.7034 50.0239C98.0771 50.9348 98.6095 51.7452 99.3044 52.4317L99.3124 52.4396L99.3205 52.4474C100.014 53.1172 100.826 53.628 101.731 53.9869L101.749 53.994L101.767 54.0008C102.711 54.3539 103.716 54.5128 104.757 54.5064L110.486 54.4716C111.527 54.4652 112.528 54.2943 113.463 53.9258L113.471 53.9227L113.479 53.9195C114.391 53.551 115.207 53.0301 115.897 52.3465L115.905 52.3386L115.913 52.3306C116.603 51.6317 117.123 50.8087 117.475 49.8855C117.845 48.9335 118.01 47.9168 118.004 46.8611L117.977 42.3767C117.97 41.3255 117.794 40.3153 117.411 39.3752C117.051 38.4533 116.524 37.6341 115.819 36.9493C115.126 36.2536 114.301 35.7361 113.374 35.3871C112.436 35.0182 111.436 34.8518 110.399 34.8581L104.638 34.8932C103.59 34.8996 102.581 35.0783 101.637 35.4585C100.721 35.8204 99.9074 36.3476 99.2187 37.0425C98.5204 37.7359 97.9962 38.5616 97.6352 39.4878Z" fill="black" stroke="black" stroke-width="4"/>
<path d="M78.5483 35.1183L91.8998 35.0371L91.9014 35.2924L78.5499 35.3736C77.6468 35.3791 76.6428 35.6307 75.8654 36.4176C75.0746 37.2181 74.8488 38.2482 74.8543 39.1474L74.9242 50.6364C74.9297 51.546 75.1896 52.5237 75.9426 53.2951L75.968 53.3212L75.9943 53.3462C76.7749 54.0898 77.7557 54.3378 78.6653 54.3322L92.0168 54.251L92.0183 54.5062L78.6668 54.5875C78.4268 54.589 78.1371 54.5646 77.792 54.5025C77.4921 54.4367 77.1812 54.3369 76.8583 54.1981C76.5731 54.0711 76.2881 53.9051 76.0034 53.6938C75.7638 53.5064 75.5404 53.2788 75.3343 53.0022C75.1552 52.7383 74.9937 52.4134 74.8617 52.0116C74.7461 51.6501 74.6724 51.199 74.6689 50.638L74.5988 39.1162C74.5973 38.8749 74.6221 38.5901 74.6839 38.2569C74.75 37.9453 74.8494 37.6377 74.9846 37.3323L74.9883 37.3239L74.992 37.3155C75.116 37.0283 75.2824 36.7453 75.4989 36.4656C75.6875 36.2219 75.917 36.0007 76.1969 35.8022L76.197 35.8022L76.2049 35.7965C76.4677 35.6082 76.7922 35.4416 77.1963 35.3092C77.5411 35.1963 77.9838 35.1218 78.5483 35.1183Z" fill="black" stroke="black" stroke-width="4"/>
<path d="M214.751 2.63689L228.103 2.55563L228.105 2.81091L214.753 2.89217C213.85 2.89766 212.846 3.14922 212.069 3.9362C211.278 4.73663 211.052 5.7668 211.057 6.66594L211.127 18.155C211.133 19.0646 211.393 20.0423 212.146 20.8137L212.171 20.8397L212.197 20.8648C212.978 21.6083 213.959 21.8563 214.868 21.8508L228.22 21.7695L228.221 22.0248L214.87 22.106C214.63 22.1075 214.34 22.0831 213.995 22.0211C213.695 21.9553 213.384 21.8555 213.061 21.7167C212.776 21.5897 212.491 21.4236 212.206 21.2123C211.967 21.025 211.744 20.7973 211.537 20.5207C211.358 20.2568 211.197 19.9319 211.065 19.5302C210.949 19.1687 210.875 18.7176 210.872 18.1565L210.802 6.63476C210.8 6.39349 210.825 6.10865 210.887 5.77548C210.953 5.4639 211.053 5.15625 211.188 4.85084L211.191 4.84246L211.195 4.83404C211.319 4.54687 211.486 4.26383 211.702 3.98414C211.891 3.74043 212.12 3.51927 212.4 3.32076L212.4 3.32078L212.408 3.31508C212.671 3.12679 212.995 2.96014 213.399 2.82778C213.744 2.71489 214.187 2.64032 214.751 2.63689Z" fill="black" stroke="black" stroke-width="4"/>
<path d="M204.237 22.1677L203.982 22.1693L203.864 2.70013L204.119 2.69858L204.237 22.1677Z" fill="black" stroke="black" stroke-width="4"/>
<path d="M196.661 12.119L196.657 12.1252C196.367 12.547 196.037 12.8968 195.67 13.1849C195.254 13.5117 194.825 13.7769 194.383 13.9859C193.941 14.1882 193.5 14.3328 193.058 14.424L193.051 14.4255C192.575 14.5255 192.153 14.5708 191.782 14.573L186.407 14.6057L190.496 18.0945L195.34 22.2274L194.881 22.2302L186.531 15.0926L185.964 14.6084L185.219 14.613L184.158 14.6194L184.157 14.3641L191.78 14.3177L191.862 14.3172L191.943 14.3101C192.649 14.2482 193.332 14.0963 193.977 13.834L193.988 13.8293L194 13.8244C194.648 13.5508 195.241 13.1739 195.75 12.6803C196.284 12.1718 196.69 11.566 196.965 10.8849L196.968 10.8767L196.971 10.8685C197.252 10.155 197.367 9.39896 197.363 8.63394L197.346 5.94989C197.344 5.61492 197.308 5.08072 197.048 4.55491C196.871 4.17503 196.574 3.76179 196.099 3.46427C195.744 3.22796 195.342 3.08472 194.918 3.04294C194.759 3.02651 194.595 3.01732 194.428 3.01834L180.386 3.1038L178.386 3.11597L178.398 5.11593L178.503 22.3299L178.248 22.3314L178.13 3.00625C178.13 2.96535 178.136 2.94949 178.14 2.94073C178.15 2.91463 178.16 2.89617 178.169 2.88282C178.175 2.87944 178.182 2.87578 178.192 2.87168C178.194 2.87063 178.199 2.86869 178.209 2.86669C178.22 2.86461 178.24 2.86157 178.273 2.86137L194.427 2.76306C195.137 2.75874 195.597 2.8869 195.893 3.04258L195.905 3.04865L195.916 3.05458C196.342 3.27138 196.635 3.52066 196.842 3.78607L196.857 3.80437L196.871 3.82233C197.13 4.13875 197.298 4.45899 197.396 4.78975L197.401 4.80573L197.406 4.82164C197.546 5.26646 197.6 5.62734 197.601 5.9156L197.618 8.63239C197.623 9.4418 197.527 10.102 197.362 10.6366C197.181 11.2264 196.943 11.7143 196.661 12.119Z" fill="black" stroke="black" stroke-width="4"/>
<path d="M172.016 2.89558L172.018 3.15086L156.964 3.24247L154.964 3.25464L154.976 5.2546L155.057 18.4948C155.063 19.3979 155.314 20.4019 156.101 21.1793C156.895 21.9635 157.913 22.196 158.814 22.1905L172.133 22.1095L172.135 22.3647L158.783 22.446C158.426 22.4482 157.976 22.3875 157.42 22.226C156.978 22.0978 156.556 21.8859 156.147 21.5734C155.794 21.2859 155.465 20.8951 155.174 20.364C154.963 19.9535 154.807 19.3577 154.802 18.4964L154.708 3.14492C154.708 3.10402 154.714 3.08816 154.718 3.0794C154.728 3.0533 154.738 3.03485 154.747 3.02149C154.753 3.01811 154.76 3.01445 154.77 3.01035C154.772 3.0093 154.777 3.00736 154.787 3.00536C154.798 3.00328 154.818 3.00024 154.851 3.00004L172.016 2.89558ZM160.725 12.8432L160.723 12.5552L170.16 12.4978L170.162 12.7858L160.725 12.8432Z" fill="black" stroke="black" stroke-width="4"/>
<path d="M148.911 3.03802L141.275 18.8711L139.498 22.556L137.681 18.8902L129.885 3.15382L129.579 3.15567L139.363 22.8086C139.376 22.8306 139.39 22.8431 139.419 22.8605L139.426 22.865L139.434 22.8696C139.46 22.8857 139.473 22.8893 139.475 22.8899C139.477 22.8904 139.484 22.8926 139.503 22.8925C139.519 22.8924 139.529 22.8913 139.534 22.8906L148.911 3.03802ZM148.911 3.03802L149.2 3.03627L139.63 22.8321C139.627 22.8348 139.62 22.8392 139.611 22.8448L139.579 22.864L139.548 22.8843C139.543 22.8876 139.54 22.8892 139.539 22.8896L148.911 3.03802ZM139.628 22.8374L139.622 22.8483L141.423 23.7188L139.628 22.8374Z" fill="black" stroke="black" stroke-width="4"/>
<path d="M104.863 19.0142L104.886 22.7752L104.631 22.7767L104.571 13.0421C104.562 11.5626 104.808 10.2447 105.282 9.06509C105.768 7.85677 106.434 6.84395 107.274 6.00206C108.12 5.1551 109.128 4.48462 110.32 3.99365C111.486 3.51364 112.788 3.25719 114.247 3.24831L123.837 3.18995C123.878 3.1897 123.894 3.19578 123.903 3.19937C123.929 3.21004 123.938 3.2178 123.945 3.22543C123.953 3.23306 123.961 3.24174 123.972 3.26768C123.976 3.2764 123.982 3.29217 123.982 3.33308L124.1 22.6582L123.845 22.6598L123.822 18.8989L123.809 16.8989L121.809 16.9111L106.851 17.0021L104.851 17.0143L104.863 19.0142ZM104.837 14.759L104.849 16.759L106.849 16.7468L121.808 16.6558L123.808 16.6436L123.796 14.6437L123.74 5.44587L123.728 3.4459L121.728 3.45807L114.248 3.50359C114 3.5051 113.625 3.54083 113.231 3.58348C112.661 3.63415 112.055 3.76016 111.43 3.93579L111.43 3.93577L111.42 3.93858C110.72 4.13929 110.016 4.43444 109.31 4.80513C108.476 5.24387 107.735 5.83405 107.084 6.54866C106.383 7.31849 105.844 8.23809 105.439 9.26205L105.439 9.26204L105.434 9.27468C104.996 10.4042 104.818 11.6791 104.827 13.0406L104.837 14.759Z" fill="black" stroke="black" stroke-width="4"/>
<path d="M98.0001 3.16228L98.1197 22.8148L97.8317 22.8165L97.7588 10.8398L97.7128 3.27432L94.0142 9.87418L86.551 23.1916C86.5251 23.2042 86.4952 23.2128 86.4396 23.2132C86.4188 23.2133 86.402 23.2119 86.3859 23.2081L86.3846 23.2057L86.376 23.1909L78.7177 9.96404L74.9411 3.4413L74.9869 10.9783L75.0598 22.9551L74.8045 22.9566L74.6849 3.30417C74.6846 3.2539 74.6913 3.2318 74.6929 3.22671C74.694 3.22331 74.6965 3.2156 74.7055 3.20154C74.7202 3.1843 74.7291 3.17822 74.7319 3.17628C74.7338 3.17497 74.739 3.17151 74.7493 3.16684C74.7507 3.1669 74.7519 3.167 74.7531 3.1671L74.8002 3.1713L74.8371 3.17283L74.8784 3.18992L74.8992 3.19708L74.9019 3.19924L84.6862 19.9691L86.4381 22.9718L88.1533 19.948L97.7243 3.07525C97.733 3.06163 97.7398 3.05274 97.7442 3.04745C97.7496 3.04094 97.7527 3.03817 97.7535 3.03746C97.7543 3.03678 97.7554 3.03591 97.7578 3.0344C97.7599 3.03314 97.7647 3.03038 97.7732 3.02663C97.8108 3.01253 97.8451 3.00584 97.9059 3.01649C97.9195 3.02183 97.9258 3.02602 97.9282 3.02764C97.9321 3.03024 97.9479 3.04107 97.9742 3.07472C97.9843 3.08777 97.9893 3.09618 97.9914 3.09995C97.9934 3.10361 97.994 3.10542 97.9943 3.10629C97.9947 3.10719 97.9958 3.1106 97.997 3.11799C97.9983 3.12555 98 3.13982 98.0001 3.16228Z" fill="black" stroke="black" stroke-width="4"/>
<path d="M1.03638 8.75953L1.29925 3.37599C1.3489 2.35916 2.1859 1.52106 3.26589 1.46012L8.79999 1.14783C9.39625 1.11418 9.97607 1.32777 10.396 1.73027L26.8048 17.4565C28.0174 18.6186 29.9658 18.6068 31.1642 17.4299L47.3803 1.50519C47.7953 1.09761 48.3725 0.876984 48.9691 0.903371L54.5066 1.14828C55.5873 1.19607 56.4344 2.02393 56.4964 3.04008L56.8248 8.42002C56.8593 8.98466 56.6453 9.54037 56.2302 9.948L47.4479 18.5725C45.4822 20.5029 46.935 23.7244 49.659 23.7078L54.0482 23.6811C55.2169 23.674 56.1439 24.5837 56.1506 25.6812L56.3098 51.8461C56.3165 52.9436 55.4007 53.8646 54.2319 53.8717L45.9828 53.9219C44.814 53.929 43.8871 53.0192 43.8804 51.9217L43.7439 29.5015C43.7274 26.79 40.3761 25.5172 38.4611 27.3978L33.7594 32.0151C33.6648 32.108 33.5957 32.2231 33.5585 32.3491L24.5921 32.4037C24.5534 32.2781 24.483 32.1638 24.3873 32.0721L19.7165 27.5956C17.7787 25.7384 14.4431 27.0519 14.4596 29.7634L14.5956 52.0999C14.6022 53.1974 13.6864 54.1184 12.5176 54.1255L4.26855 54.1757C3.09977 54.1828 2.17278 53.2731 2.1661 52.1756L2.00687 26.0107C2.00019 24.9132 2.91604 23.9922 4.08482 23.9851L8.38776 23.9589C11.1117 23.9424 12.5252 20.7034 10.5361 18.7971L1.64955 10.2802C1.22952 9.87761 1.00879 9.32455 1.03638 8.75953Z" fill="black" stroke="black"/>
</svg>
