<svg width="291" height="86" viewBox="0 0 291 86" fill="none" xmlns="http://www.w3.org/2000/svg">
<path d="M290.006 53.8608L290.002 53.3609L289.502 53.3646L283.484 53.4095L283.428 45.8343L283.423 45.1608L282.779 45.3605L275.355 47.6656L275.001 47.7757L275.004 48.1469L275.043 53.4726L270.525 53.5063L270.025 53.51L270.029 54.01L270.082 61.1623L270.086 61.6623L270.586 61.6586L275.104 61.6248L275.19 73.1223C275.221 77.1939 276.319 80.1505 278.634 81.8073L278.633 81.8074L278.642 81.8132C280.966 83.406 284.725 83.8181 289.782 83.2009L290.224 83.1468L290.221 82.7008L290.171 75.9523L290.167 75.4245L289.64 75.4569C288.232 75.5436 287.06 75.571 286.121 75.541C285.231 75.475 284.624 75.2345 284.234 74.8793C283.874 74.5522 283.638 73.9856 283.631 73.0593L283.545 61.5618L289.563 61.5169L290.063 61.5131L290.059 61.0132L290.006 53.8608Z" fill="black" stroke="black"/>
<path d="M256.506 53.6077L256.006 53.6114L256.01 54.1114L256.026 56.1993C253.753 53.9461 250.762 52.843 247.098 52.8704C243.106 52.9002 239.681 54.4699 236.847 57.547L236.847 57.547L236.844 57.5496C234.047 60.6289 232.667 64.3577 232.7 68.7063C232.732 73.092 234.167 76.8194 237.011 79.8575L237.011 79.8575L237.016 79.8624C239.896 82.8579 243.344 84.3552 247.333 84.3254C250.997 84.298 253.971 83.1504 256.21 80.8635L256.225 82.9514L256.229 83.4514L256.729 83.4476L264.17 83.3921L264.67 83.3883L264.666 82.8884L264.451 54.0484L264.447 53.5484L263.947 53.5521L256.506 53.6077ZM253.912 63.0709L253.911 63.071L253.921 63.0798C255.362 64.4639 256.101 66.2658 256.118 68.5314C256.135 70.7969 255.422 72.6317 253.998 74.0773C252.611 75.485 250.845 76.2041 248.657 76.2204C246.471 76.2367 244.694 75.5449 243.287 74.1596C241.879 72.7362 241.157 70.9114 241.14 68.6432C241.123 66.3738 241.819 64.5597 243.203 63.1554L243.203 63.1554L243.207 63.1509C244.594 61.7065 246.36 60.971 248.543 60.9547C250.727 60.9383 252.503 61.6474 253.912 63.0709Z" fill="black" stroke="black"/>
<path d="M228.443 54.3237L228.439 53.8237L227.94 53.8275L221.922 53.8724L221.865 46.2972L221.86 45.6237L221.217 45.8234L213.793 48.1285L213.438 48.2386L213.441 48.6098L213.481 53.9354L208.963 53.9692L208.463 53.9729L208.467 54.4729L208.52 61.6252L208.524 62.1252L209.024 62.1215L213.542 62.0877L213.628 73.5852C213.658 77.6567 214.757 80.6134 217.071 82.2702L217.071 82.2703L217.079 82.2761C219.403 83.8689 223.163 84.281 228.219 83.6637L228.662 83.6097L228.659 83.1637L228.608 76.4151L228.604 75.8874L228.077 75.9198C226.669 76.0065 225.498 76.0339 224.559 76.0039C223.668 75.9379 223.062 75.6974 222.671 75.3422C222.311 75.0151 222.075 74.4485 222.068 73.5221L221.983 62.0247L228 61.9798L228.5 61.976L228.497 61.476L228.443 54.3237Z" fill="black" stroke="black"/>
<path d="M195.742 54.556L195.738 54.056L195.238 54.0598L187.797 54.1153L187.297 54.1191L187.301 54.619L187.517 83.459L187.52 83.959L188.02 83.9553L195.461 83.8997L195.961 83.896L195.957 83.396L195.854 69.6105C195.834 66.9528 196.663 65.1497 198.246 64.0659L198.248 64.0646C199.939 62.8943 201.849 62.4435 204.003 62.7193L204.571 62.792L204.567 62.2197L204.505 53.9137L204.501 53.4138L204.001 53.4175C201.883 53.4333 199.989 53.9478 198.334 54.9727C197.28 55.6013 196.422 56.417 195.763 57.4134L195.742 54.556Z" fill="black" stroke="black"/>
<path d="M180.141 72.6582L180.569 72.655L180.632 72.2317C180.817 70.9863 180.909 69.9385 180.903 69.0953C180.87 64.6716 179.416 60.9426 176.532 57.9422C173.716 54.9312 170.088 53.4477 165.693 53.4805C161.075 53.515 157.297 55.0482 154.408 58.1011C151.489 61.1442 150.049 64.897 150.082 69.3254C150.116 73.8307 151.631 77.5841 154.639 80.5471C157.655 83.5183 161.628 84.9676 166.504 84.9311C172.185 84.8887 176.524 82.7344 179.442 78.4468L179.747 77.9982L179.275 77.7306L173.251 74.3146L172.868 74.0973L172.604 74.45C171.268 76.2352 169.282 77.1614 166.562 77.1818C164.395 77.1979 162.705 76.7711 161.451 75.9484C160.364 75.2352 159.567 74.2009 159.071 72.8155L180.141 72.6582ZM170.008 62.532L170.008 62.5321L170.013 62.5364C171.078 63.3378 171.842 64.4649 172.293 65.9484L158.879 66.0486C159.308 64.5969 160.053 63.4767 161.104 62.6606L161.104 62.6607L161.111 62.655C162.307 61.6911 163.84 61.1856 165.75 61.1713C167.418 61.1589 168.828 61.6172 170.008 62.532Z" fill="black" stroke="black"/>
<path d="M121.215 84.4595L121.715 84.4557L121.711 83.9558L121.695 81.8813C123.938 84.1264 126.91 85.2245 130.565 85.1972C134.628 85.1669 138.055 83.6208 140.817 80.578C143.656 77.5349 145.054 73.7845 145.021 69.3609C144.989 65.0109 143.533 61.3029 140.652 58.2666C137.808 55.2292 134.359 53.7122 130.33 53.7422C126.675 53.7695 123.72 54.9119 121.511 57.1903L121.409 43.5798L121.406 43.0798L120.906 43.0836L113.465 43.1391L112.965 43.1428L112.969 43.6428L113.27 84.0188L113.274 84.5188L113.774 84.515L121.215 84.4595ZM134.375 63.9635L134.374 63.9636L134.384 63.9723C135.825 65.3564 136.564 67.1583 136.581 69.4239C136.598 71.6894 135.885 73.5243 134.461 74.9699C133.074 76.3775 131.308 77.0966 129.12 77.1129C126.934 77.1293 125.157 76.4374 123.75 75.0521C122.342 73.6287 121.62 71.8039 121.603 69.5358C121.586 67.2663 122.282 65.4523 123.665 64.0479L123.666 64.048L123.67 64.0434C125.057 62.599 126.823 61.8635 129.006 61.8472C131.19 61.8309 132.966 62.5399 134.375 63.9635Z" fill="black" stroke="black"/>
<path d="M97.0737 50.8575L97.0811 50.8651L97.0888 50.8724C98.108 51.8346 99.3109 52.3215 100.676 52.3113C102.075 52.3009 103.276 51.7985 104.248 50.8115C105.251 49.7936 105.763 48.5882 105.752 47.2164C105.742 45.8464 105.214 44.65 104.199 43.648C103.214 42.6373 102.004 42.1298 100.6 42.1402C99.2281 42.1505 98.0305 42.6799 97.0277 43.6978L97.0276 43.6977L97.0203 43.7054C96.058 44.7246 95.5712 45.9275 95.5813 47.2924C95.5915 48.6573 96.0963 49.8527 97.0737 50.8575ZM104.666 84.5841L105.166 84.5804L105.162 84.0804L104.947 55.2404L104.943 54.7404L104.443 54.7442L97.0027 54.7997L96.5027 54.8034L96.5064 55.3034L96.7218 84.1434L96.7255 84.6434L97.2255 84.6396L104.666 84.5841Z" fill="black" stroke="black"/>
<path d="M88.1026 84.7065L88.6026 84.7027L88.5989 84.2027L88.2844 42.0964L88.2807 41.5964L87.7807 41.6002L80.34 41.6557L79.84 41.6594L79.8438 42.1594L80.1582 84.2658L80.1619 84.7658L80.6619 84.762L88.1026 84.7065Z" fill="black" stroke="black"/>
<path d="M29.8297 30.6774L29.7986 30.7015L29.7716 30.7302C28.9266 31.6284 28.4636 32.7543 28.0577 33.817C28.0179 33.9211 27.9787 34.0246 27.9398 34.1274C27.7048 34.7473 27.48 35.3407 27.2042 35.8911C26.9012 34.9037 26.6663 33.8715 26.5004 32.8159C28.5593 28.1894 33.389 25.8119 38.3088 25.7799C43.2284 25.748 48.0991 28.0626 50.2367 32.6589C50.0852 33.726 49.8631 34.7692 49.5638 35.7667C49.2741 35.2331 49.03 34.6631 48.7897 34.0707C48.7355 33.937 48.6813 33.8017 48.6267 33.6654C48.3093 32.8734 47.9784 32.0476 47.5439 31.2914L47.5283 31.2643L47.5094 31.2392C46.8725 30.3958 45.9107 29.9826 44.9918 29.8169C42.9524 29.4322 41.0475 28.4888 39.895 26.7682C39.6468 26.3736 39.2738 26.1835 38.912 26.1033C38.56 26.0254 38.1949 26.0449 37.9017 26.0788L37.882 26.0811L37.8626 26.085C37.4896 26.1584 37.0204 26.3421 36.7397 26.7823C36.2266 27.5318 35.0994 28.904 32.997 29.6043C32.6935 29.7027 32.3992 29.7627 32.0758 29.8286C31.8906 29.8664 31.6958 29.9061 31.4844 29.956C30.941 30.0844 30.3536 30.2719 29.8297 30.6774ZM45.7413 42.8466C45.7412 42.8471 45.7412 42.8475 45.7411 42.848L45.0803 45.5215L45.0802 45.5215L45.0779 45.5318C44.6125 47.6013 42.9184 49.114 40.9083 49.8633L40.885 49.872L40.8627 49.8829C38.5249 51.0301 35.6837 50.1594 33.628 48.4952L33.6281 48.4951L33.6187 48.4879C32.8881 47.9243 32.3971 47.0556 32.0245 46.0396C31.7432 45.2728 31.5448 44.4704 31.353 43.6949C31.2892 43.4367 31.226 43.1814 31.1609 42.9315L29.8187 37.7761C30.6926 36.3075 31.2889 34.7134 31.8455 33.1948C31.8846 33.1744 31.9435 33.1494 32.0289 33.1234C32.1781 33.0781 32.3486 33.0466 32.5269 33.0152C34.7576 32.6636 36.9274 31.4444 38.3636 29.8921L38.4606 30.0046L38.4763 30.0045C39.986 31.5556 42.2549 32.6993 44.5958 32.9858C44.7298 33.0057 44.8364 33.0478 44.9049 33.0888C44.9265 33.1017 44.9415 33.1129 44.9513 33.121C45.4621 34.6751 46.1548 36.2295 47.0134 37.646L47.0053 37.6791C46.969 37.8272 46.917 38.0379 46.8546 38.2905C46.8112 38.4663 46.7627 38.6623 46.711 38.8714C46.6141 39.2633 46.5059 39.7015 46.3979 40.1392C46.2322 40.8105 46.067 41.4818 45.9444 41.9854C45.8832 42.2371 45.8323 42.4479 45.7973 42.5962C45.7799 42.67 45.7659 42.7304 45.7564 42.7731C45.7546 42.781 45.7529 42.7889 45.7513 42.7966C45.7486 42.809 45.7461 42.821 45.7441 42.8317C45.7434 42.835 45.7424 42.8402 45.7413 42.8466ZM43.4082 52.2202C43.9111 53.9708 44.5839 55.6483 45.4359 57.2519C45.0627 57.2235 44.69 57.1957 44.3188 57.1681C42.4022 57.0254 40.5246 56.8855 38.8156 56.6676C36.5267 56.3756 34.6321 55.9523 33.4046 55.2481L33.3583 55.2153C33.1768 55.0865 32.9889 54.9416 32.8063 54.7808C33.1123 53.9696 33.3865 53.1525 33.6201 52.3069C35.0974 53.0377 36.7613 53.6552 38.5121 53.6253C40.2496 53.6479 41.9349 52.9904 43.4082 52.2202ZM7.30164 39.9819L4.99531 21.4906L9.10298 21.4599L9.10622 21.4599L9.1095 21.4598L9.11281 21.4598L9.11616 21.4598L9.11955 21.4598L9.12297 21.4597L9.12642 21.4597L9.12992 21.4597L9.13344 21.4597L9.13701 21.4596L9.14061 21.4596L9.14424 21.4596L9.14791 21.4596L9.15161 21.4595L9.15534 21.4595L9.15911 21.4595L9.16292 21.4594L9.16676 21.4594L9.17063 21.4594L9.17453 21.4594L9.17847 21.4593L9.18244 21.4593L9.18645 21.4593L9.19049 21.4592L9.19456 21.4592L9.19866 21.4592L9.20279 21.4591L9.20696 21.4591L9.21116 21.4591L9.21539 21.459L9.21965 21.459L9.22395 21.459L9.22827 21.459L9.23263 21.4589L9.23701 21.4589L9.24143 21.4589L9.24588 21.4588L9.25036 21.4588L9.25487 21.4588L9.25941 21.4587L9.26398 21.4587L9.26858 21.4587L9.27321 21.4586L9.27786 21.4586L9.28255 21.4585L9.28727 21.4585L9.29201 21.4585L9.29679 21.4584L9.30159 21.4584L9.30642 21.4584L9.31128 21.4583L9.31617 21.4583L9.32108 21.4583L9.32603 21.4582L9.331 21.4582L9.336 21.4581L9.34102 21.4581L9.34607 21.4581L9.35115 21.458L9.35626 21.458L9.36139 21.458L9.36655 21.4579L9.37174 21.4579L9.37695 21.4578L9.38219 21.4578L9.38745 21.4578L9.39274 21.4577L9.39805 21.4577L9.40339 21.4576L9.40876 21.4576L9.41415 21.4576L9.41956 21.4575L9.425 21.4575L9.43046 21.4574L9.43595 21.4574L9.44146 21.4574L9.447 21.4573L9.45256 21.4573L9.45814 21.4572L9.46375 21.4572L9.46938 21.4572L9.47503 21.4571L9.4807 21.4571L9.4864 21.457L9.49212 21.457L9.49787 21.4569L9.50363 21.4569L9.50942 21.4569L9.51523 21.4568L9.52106 21.4568L9.52691 21.4567L9.53279 21.4567L9.53868 21.4566L9.5446 21.4566L9.55053 21.4565L9.55649 21.4565L9.56247 21.4565L9.56847 21.4564L9.57449 21.4564L9.58053 21.4563L9.58659 21.4563L9.59266 21.4562L9.59876 21.4562L9.60488 21.4561L9.61102 21.4561L9.61717 21.456L9.62335 21.456L9.62954 21.456L9.63575 21.4559L9.64198 21.4559L9.64823 21.4558L9.6545 21.4558L9.66078 21.4557L9.66708 21.4557L9.6734 21.4556L9.67974 21.4556L9.68609 21.4555L9.69247 21.4555L9.69885 21.4554L9.70526 21.4554L9.71168 21.4553L9.71812 21.4553L9.72457 21.4552L9.73104 21.4552L9.73753 21.4552L9.74403 21.4551L9.75054 21.4551L9.75708 21.455L9.76362 21.455L9.77019 21.4549L9.77676 21.4549L9.78336 21.4548L9.78996 21.4548L9.79658 21.4547L9.80322 21.4547L9.80987 21.4546L9.81653 21.4546L9.8232 21.4545L9.82989 21.4545L9.8366 21.4544L9.84331 21.4544L9.85004 21.4543L9.85679 21.4543L9.86354 21.4542L9.87031 21.4542L9.87709 21.4541L9.88388 21.4541L9.89068 21.454L9.8975 21.454L9.90433 21.4539L9.91117 21.4539L9.91802 21.4538L9.92488 21.4538L9.93175 21.4537L9.93863 21.4536L9.94553 21.4536L9.95243 21.4535L9.95935 21.4535L9.96627 21.4534L9.9732 21.4534L9.98015 21.4533L9.9871 21.4533L9.99407 21.4532L10.001 21.4532L10.008 21.4531L10.015 21.4531L10.022 21.453L10.029 21.453L10.036 21.4529L10.0431 21.4529L10.0501 21.4528L10.0571 21.4528L10.0642 21.4527L10.0712 21.4527L10.0783 21.4526L10.0854 21.4526L10.0925 21.4525L10.0995 21.4524L10.1066 21.4524L10.1137 21.4523L10.1208 21.4523L10.128 21.4522L10.1351 21.4522L10.1422 21.4521L10.1493 21.4521L10.1565 21.452L10.1636 21.452L10.1707 21.4519L10.1779 21.4519L10.1851 21.4518L10.1922 21.4518L10.1994 21.4517L10.2065 21.4516L10.2137 21.4516L10.2209 21.4515L10.2281 21.4515L10.2353 21.4514L10.2425 21.4514L10.2497 21.4513L10.2568 21.4513L10.264 21.4512L10.2713 21.4512L10.2785 21.4511L10.2857 21.4511L10.2929 21.451L10.3001 21.4509L10.3073 21.4509L10.3145 21.4508L10.3217 21.4508L10.329 21.4507L10.3362 21.4507L10.3434 21.4506L10.3506 21.4506L10.3578 21.4505L10.3651 21.4505L10.3723 21.4504L10.3795 21.4504L10.3868 21.4503L10.394 21.4502L10.4012 21.4502L10.4084 21.4501L10.4157 21.4501L10.4229 21.45L10.4301 21.45L10.4373 21.4499L10.4446 21.4499L10.4518 21.4498L10.459 21.4498L10.4662 21.4497L10.4734 21.4497L10.4806 21.4496L10.4879 21.4495L10.4951 21.4495L10.5023 21.4494L10.5095 21.4494L10.5167 21.4493L10.5239 21.4493L10.5311 21.4492L10.5383 21.4492L10.5455 21.4491L10.5526 21.4491L10.5598 21.449L10.567 21.449L10.5742 21.4489L10.5813 21.4488L10.5885 21.4488L10.5957 21.4487L10.6028 21.4487L10.61 21.4486L10.6171 21.4486L10.6243 21.4485L10.6314 21.4485L10.6385 21.4484L10.6457 21.4484L10.6528 21.4483L10.6599 21.4483L10.667 21.4482L10.6741 21.4482L10.6812 21.4481L10.6883 21.4481L10.6953 21.448L10.7024 21.4479L10.7095 21.4479L10.7165 21.4478L10.7236 21.4478L10.7306 21.4477L10.7377 21.4477L10.7447 21.4476L10.7517 21.4476L10.7587 21.4475L10.7657 21.4475L10.7727 21.4474L10.7797 21.4474L10.7867 21.4473L10.7936 21.4473L10.8006 21.4472L10.8075 21.4472L10.8144 21.4471L10.8214 21.4471L10.8283 21.447L10.8352 21.447L10.8421 21.4469L10.849 21.4469L10.8558 21.4468L10.8627 21.4467L10.8695 21.4467L10.8764 21.4466L10.8832 21.4466L10.89 21.4465L10.8968 21.4465L10.9036 21.4464L10.9104 21.4464L10.9172 21.4463L10.9239 21.4463L10.9307 21.4462L10.9374 21.4462L10.9441 21.4461L10.9508 21.4461L10.9575 21.446L10.9642 21.446L10.9708 21.4459L10.9775 21.4459L10.9841 21.4458L10.9907 21.4458L10.9974 21.4457L11.0039 21.4457L11.0105 21.4456L11.0171 21.4456L11.0236 21.4455L11.0302 21.4455L11.0367 21.4454L11.0432 21.4454L11.0497 21.4454L11.0561 21.4453L11.0626 21.4453L11.069 21.4452L11.0754 21.4452L11.0818 21.4451L11.0882 21.4451L11.0946 21.445L11.101 21.445L11.1073 21.4449L11.1136 21.4449L11.1199 21.4448L11.1262 21.4448L11.1325 21.4447L11.1387 21.4447L11.144 21.4446L10.7025 23.0578L10.6666 23.1889L10.702 23.3201L13.568 33.9413C11.4353 35.8899 9.33383 37.9121 7.30164 39.9819ZM29.5348 81.5784L29.5423 81.5721L29.5496 81.5655C40.1673 71.9339 43.4975 63.1836 44.3487 60.373C45.1327 60.4352 45.9218 60.4927 46.7133 60.5502C50.7517 60.8441 54.8563 61.1428 58.7008 62.1174C60.0693 62.4777 61.3019 63.5738 62.397 65.224C63.488 66.8681 64.402 69.0021 65.154 71.3228C66.5783 75.7189 67.3941 80.7003 67.7545 84.0734L54.4456 84.1728C55.8209 81.3432 55.9165 78.7498 55.9164 78.5234C55.9189 78.0309 55.7361 77.6211 55.4295 77.3359C55.1306 77.0577 54.742 76.9234 54.3649 76.9158C53.9877 76.9082 53.594 77.0267 53.2828 77.2909C52.9634 77.562 52.7594 77.9628 52.7363 78.4559L52.7357 78.4695L52.7358 78.483L52.7357 78.4844C52.7332 78.5569 52.6267 81.5598 50.7476 84.2202L42.0933 84.2848C47.797 77.5124 49.1448 70.3017 49.2063 69.9113L49.2063 69.9113L49.2073 69.9047C49.2776 69.4158 49.1506 68.984 48.8864 68.6584C48.6292 68.3414 48.2641 68.1514 47.8923 68.0868C47.5207 68.0223 47.1131 68.0781 46.7658 68.2914C46.4085 68.5107 46.1483 68.8768 46.0574 69.3611L46.0485 69.4087L46.0486 69.4182C46.048 69.4212 46.0475 69.4245 46.0468 69.428C46.0446 69.4402 46.0418 69.4552 46.0383 69.4731C46.026 69.5369 46.0064 69.6317 45.9786 69.7551C45.923 70.0019 45.8352 70.3601 45.7076 70.8099C45.4525 71.7097 45.0392 72.9736 44.4093 74.4435C43.166 77.3445 41.0841 81.0353 37.7187 84.3175L13.9746 84.4948C13.5762 82.9423 12.8328 80.1301 11.9993 77.2901C11.0975 74.2172 10.0754 71.058 9.26361 69.4503L9.26303 69.4491C8.55907 68.0639 8.61464 66.6246 8.8495 65.0879C8.90575 64.7198 8.97128 64.3515 9.03786 63.9773L9.04617 63.9306C9.11519 63.5426 9.18491 63.1483 9.2431 62.7548C9.35935 61.9686 9.43341 61.1623 9.36403 60.3583L9.36321 60.3488L9.36203 60.3393C8.88092 56.4849 6.95706 54.515 5.47764 53.0049L5.47572 53.003C4.21462 51.7297 3.68323 51.0802 3.69006 50.008C3.70284 49.4813 3.90856 48.8523 4.45637 47.9942C5.00621 47.1329 5.8763 46.0781 7.16551 44.7083C10.0742 41.6348 13.5281 38.2022 16.7708 35.3385C17.8991 37.5259 19.9049 41.3278 22.1716 45.2105C24.6427 49.4431 27.4504 53.8186 29.7812 56.2856L29.7836 56.2881C32.5907 59.2183 35.4268 59.5127 39.4395 59.9292C39.9641 59.9837 40.5087 60.0402 41.076 60.105C40.0458 63.0918 36.6931 70.7757 27.4164 79.187C26.8563 79.6741 26.7971 80.4024 27.0136 80.9585C27.2294 81.5127 27.7645 82.009 28.5029 81.9779C28.8851 81.9724 29.2454 81.8209 29.5348 81.5784ZM24.0835 24.8974L23.4936 24.1261L24.3034 24.5095C24.2285 24.6379 24.155 24.7673 24.0835 24.8974ZM29.6545 19.2692C29.3162 19.4716 28.9853 19.6881 28.6613 19.903L28.1511 17.5896L29.6545 19.2692ZM52.4806 24.5879C52.4247 24.4858 52.366 24.3809 52.3034 24.2754L53.1196 23.8764L52.5278 24.6746C52.5124 24.6461 52.4966 24.6172 52.4806 24.5879ZM47.8529 19.7474C47.5336 19.5323 47.2058 19.3266 46.866 19.1349L48.3313 17.4477L47.8529 19.7474ZM36.267 17.0801L38.192 10.4002L40.2165 17.0506C38.9039 16.9238 37.5775 16.9337 36.267 17.0801ZM26.3903 27.3884C28.3275 22.6893 33.2331 20.2689 38.2508 20.2293C43.2655 20.1898 48.2118 22.5297 50.2357 27.2C47.0828 24.0652 42.6641 22.5329 38.2828 22.5656C33.8967 22.5984 29.4966 24.2 26.3903 27.3884Z" fill="black" stroke="black"/>
<path d="M8.52057 18.7169L6.75365 18.7301C6.11398 18.7349 5.58877 18.2175 5.584 17.5778C5.57922 16.9381 6.09661 16.4129 6.73631 16.4081L8.50323 16.3949C9.14288 16.3901 9.66807 16.9075 9.67288 17.5471L8.52057 18.7169ZM8.52057 18.7169C9.16023 18.7121 9.67771 18.187 9.67288 17.5472L8.52057 18.7169ZM5.57079 2.77586L9.46512 2.74678L9.43301 2.84818L5.60441 2.87677L5.57079 2.77586ZM11.3311 2.73284L11.4552 2.73192C11.5865 2.73094 11.697 2.8397 11.698 2.97115L11.8147 18.6013C11.8157 18.7326 11.7068 18.8431 11.5755 18.8441L3.70096 18.9029C3.56957 18.9039 3.45915 18.7951 3.45817 18.6637L3.34146 3.03351C3.34048 2.90211 3.44926 2.7917 3.58065 2.79072L3.70484 2.78979L3.98001 3.61552C3.98001 3.61553 3.98001 3.61553 3.98001 3.61554C4.18826 4.24049 4.77151 4.65763 5.43027 4.65271L9.63367 4.62133C10.2924 4.61641 10.8694 4.19067 11.0683 3.56259C11.0683 3.56258 11.0683 3.56258 11.0683 3.56257L11.3311 2.73284ZM10.5916 3.41163L10.5937 3.41231L10.5916 3.41163Z" fill="black" stroke="black"/>
<path d="M12.6416 18.483L12.625 16.2543C12.9046 16.2522 13.8998 16.5632 13.8663 17.3992C13.8394 18.0681 13.0387 18.4004 12.6416 18.483Z" fill="black" stroke="black"/>
<path d="M2.64271 14.9928L2.65625 16.8061C2.42873 16.8078 1.61904 16.5548 1.64635 15.8746C1.66819 15.3304 2.31969 15.06 2.64271 14.9928Z" fill="black" stroke="black"/>
<path d="M2.61617 12.3635L2.63281 14.5922C2.35317 14.5943 1.35796 14.2833 1.39152 13.4472C1.41837 12.7784 2.21914 12.446 2.61617 12.3635Z" fill="black" stroke="black"/>
<path d="M2.59273 9.73755L2.60938 11.9662C2.32973 11.9683 1.33453 11.6574 1.36808 10.8213C1.39493 10.1525 2.1957 9.82012 2.59273 9.73755Z" fill="black" stroke="black"/>
<path d="M2.57418 7.76535L2.58594 9.33923C2.38845 9.34071 1.68565 9.1211 1.70935 8.53068C1.7283 8.05835 2.2938 7.82365 2.57418 7.76535Z" fill="black" stroke="black"/>
</svg>
