<svg width="294" height="86" viewBox="0 0 294 86" fill="none" xmlns="http://www.w3.org/2000/svg">
<mask id="path-1-inside-1_2097_174" fill="white">
<path fill-rule="evenodd" clip-rule="evenodd" d="M61.2254 1.19789C61.0638 1.16156 60.8738 1.11885 60.7313 1.15304L60.7309 1.15342L60.5657 1.22814C60.4801 1.56784 60.6651 2.10195 60.8051 2.50582C60.8367 2.59716 60.8661 2.68184 60.8894 2.7561C61.017 3.16271 61.1277 3.56999 61.1731 3.99434L58.5498 2.67465C56.6715 1.83454 54.3255 1.15998 52.2519 1.27837C52.4929 2.45016 52.9064 3.39557 53.4774 4.44097C54.2968 5.94115 55.254 7.23132 56.6995 8.1869C57.6103 8.7891 58.7365 9.23651 59.8339 9.31531L60.7452 9.36359C60.7735 9.36493 60.8047 9.36531 60.8373 9.3657C60.9519 9.36709 61.0845 9.3687 61.1738 9.41272C61.3164 9.48322 61.4185 9.69884 61.4888 9.8472C61.4951 9.86038 61.5011 9.87303 61.5068 9.885C61.4047 10.5401 61.0817 11.149 60.7652 11.7456C60.6629 11.9386 60.5612 12.1303 60.4679 12.3218C60.3483 12.5673 60.2322 12.8132 60.1164 13.0586C59.6977 13.9455 59.2832 14.8238 58.7208 15.6407C58.4091 16.0939 58.0815 16.5233 57.6292 16.8472C56.8048 17.4374 55.7186 17.3789 54.7724 17.2032C54.0436 17.0678 53.3331 16.8032 52.6328 16.5424C52.4367 16.4693 52.2414 16.3966 52.0467 16.3271C51.3521 16.0791 50.621 15.8655 49.9049 15.686C48.8344 15.4175 47.7123 15.3049 46.6126 15.2606C44.3836 15.1708 42.1292 15.469 40.0268 16.2363C38.4662 16.8057 37.0031 17.6257 35.6321 18.5562C34.7751 19.1378 33.9246 19.7588 33.1505 20.4487C31.9214 21.5441 30.769 22.7421 29.6244 23.9321C29.4006 24.1647 29.1771 24.3971 28.9535 24.6282L22.6548 31.2264C22.5826 31.3021 22.5104 31.3778 22.4383 31.4536C20.0032 34.0095 17.5637 36.5702 14.3132 38.0974C13.4512 38.5025 12.4875 38.7714 11.5568 38.9602C9.85181 39.3057 7.96988 39.4214 6.2498 39.1011C4.94229 38.8578 3.69823 38.5388 2.50632 37.941C2.32076 37.8479 2.12942 37.7296 1.93553 37.6097C1.628 37.4196 1.31405 37.2255 1.00664 37.1216C0.818133 37.0577 0.604482 37.0713 0.414425 37.1184C0.27624 37.2168 0.201439 37.3059 0.181156 37.4809C0.132735 37.8986 0.591046 38.4446 0.854822 38.7465C1.48102 39.4629 2.25764 40.0901 3.03159 40.6377C5.46467 42.3599 8.08852 43.3268 11.0767 43.4986C15.1939 43.7355 19.045 42.2173 22.4822 40.0672L26.865 37.2363C27.829 36.6572 28.8286 36.1533 29.8519 35.6878C31.0196 35.1571 32.2455 34.6648 33.5488 34.6727C34.6718 34.6795 35.6626 35.0998 36.6758 35.5296L36.7292 35.5523C36.8125 35.5876 36.897 35.6232 36.9824 35.6591C37.7299 35.9735 38.5445 36.3162 39.1796 36.8001C39.3658 36.942 39.5444 37.1432 39.7056 37.3248C39.7275 37.3495 39.7491 37.3738 39.7703 37.3975C40.4737 38.1829 40.5714 39.1174 40.6167 40.1218C40.1126 41.005 39.8004 42.1236 39.5236 43.1156C39.512 43.1571 39.5005 43.1984 39.489 43.2394C39.4643 43.328 39.4392 43.4171 39.4141 43.5068C39.0281 44.8821 38.6066 46.3841 38.6433 47.8084C38.6756 49.0837 39.016 50.3948 39.3508 51.6214L39.4417 51.9371L40.4456 54.9355C40.5049 55.0801 40.5659 55.2344 40.6294 55.3951C41.1192 56.6341 41.7592 58.2534 42.9538 58.7653C43.8121 59.1334 44.919 59.1025 45.9207 59.0745C46.1928 59.0669 46.4572 59.0595 46.7067 59.0604C46.7658 59.0606 46.825 59.0607 46.8844 59.0608C47.9894 59.0636 49.1483 59.0665 50.2327 59.2531C51.1716 59.4144 52.0757 59.6355 52.9739 59.9562C53.2868 60.0676 53.5837 60.1969 53.8802 60.347C53.9224 60.3683 53.9652 60.3906 54.0088 60.4133C54.2685 60.5483 54.5519 60.6956 54.8364 60.721C55.0921 60.7436 55.3637 60.7253 55.6327 60.7071C55.7965 60.6961 55.9593 60.6851 56.117 60.6835L58.7508 60.6593C58.8327 60.6543 58.9132 60.6465 58.9883 60.6093C59.1618 60.5243 59.2904 60.3113 59.3328 60.1272C59.382 59.9131 59.3546 59.6458 59.3312 59.4291C59.2527 58.6859 58.9935 57.9093 58.5668 57.2923C57.5166 55.7734 55.9187 55.2721 54.203 54.875L52.684 54.5412L50.3708 54.1489C50.2372 54.128 50.0997 54.1076 49.9596 54.0868C49.1633 53.9686 48.2854 53.8384 47.5826 53.5242C47.0868 53.3026 46.6978 52.9877 46.3831 52.5447C45.2944 51.0135 44.6546 47.9261 44.9943 46.0731C45.1741 45.0928 45.6746 44.2068 46.1625 43.3431C46.2398 43.2062 46.3168 43.0699 46.3922 42.9338L48.8561 38.8009C48.8977 38.7322 48.9395 38.6633 48.9814 38.5942C49.9857 36.9386 51.0506 35.183 51.5556 33.3086C52.1082 31.2575 51.7611 28.6712 50.5781 26.9021C50.1552 26.2693 49.6361 25.6736 49.0722 25.163C48.9771 25.077 48.8798 24.9956 48.7828 24.9145C48.6068 24.7673 48.4319 24.6209 48.2731 24.4494C49.6653 25.0027 50.9562 25.9955 52.1103 26.9338L54.6685 29.1213C54.7755 29.2184 54.887 29.318 55.0013 29.4201C55.8365 30.1666 56.8189 31.0446 57.2545 32.0255C57.4121 32.3806 57.369 32.6901 57.225 33.039C57.0625 33.4329 56.8394 33.8192 56.6238 34.1924C56.5927 34.2462 56.5618 34.2997 56.5313 34.353C56.5016 34.4046 56.4713 34.4565 56.4408 34.5086C56.1268 35.0456 55.7978 35.6083 56.0383 36.2447C56.15 36.54 56.4334 36.7628 56.7185 36.8776C57.3486 37.1316 57.987 37.0401 58.5963 36.7697C59.5674 36.3388 60.2596 35.6021 60.6312 34.6027C60.7611 34.2539 60.8634 33.8663 60.8383 33.4921C60.8137 33.1183 60.7018 32.7892 60.5879 32.4542C60.5368 32.3042 60.4854 32.1531 60.4413 31.9962C60.3253 31.586 60.3967 30.8845 60.5706 30.4962C60.8671 29.8341 61.329 29.2218 61.7855 28.6167C62.0351 28.2858 62.2832 27.957 62.5017 27.6233C63.6888 25.81 64.5608 23.8281 65.2543 21.7795L65.2589 21.7659C65.5312 20.9612 65.8284 20.0831 65.8774 19.2326C65.6898 18.9 65.4328 18.5905 65.1786 18.2845C65.0411 18.1191 64.9045 17.9546 64.7802 17.7881C63.9183 16.6321 63.2371 15.5025 62.6721 14.1717L63.5396 14.8762L64.8727 15.7952L66.2853 16.8026C66.32 16.8265 66.3547 16.8506 66.3895 16.8748C66.6562 17.0601 66.9276 17.2488 67.2257 17.3776C67.6078 17.5427 68.1034 17.5513 68.5507 17.559C68.6631 17.561 68.7724 17.5629 68.8761 17.5672C68.9506 17.5703 69.0251 17.5733 69.0995 17.5763C69.7705 17.6035 70.4389 17.6305 71.105 17.7301C71.7569 17.8279 72.3836 17.9913 73.0092 18.1956C73.1635 18.246 73.3151 18.2982 73.4652 18.3499C74.2464 18.6192 74.9861 18.874 75.8512 18.7811C76.7302 18.6866 77.5259 18.237 78.0731 17.5442C78.4142 17.112 78.6489 16.5191 78.6932 15.9741L78.5549 15.663C78.4327 15.3954 78.288 15.1732 78.0873 14.9565C77.9449 14.8028 77.7795 14.6648 77.6157 14.5282C77.5426 14.4672 77.4699 14.4065 77.3997 14.3448L75.4855 12.787C75.2498 12.6043 75.0183 12.4212 74.7884 12.2392C73.901 11.537 73.0354 10.8521 72.0272 10.2807C71.6745 10.0807 71.2861 9.92043 70.8957 9.75934C70.1574 9.45467 69.4119 9.14703 68.8867 8.562C68.4821 8.1115 68.2593 7.5148 68.0446 6.93991C67.9884 6.78927 67.9327 6.64013 67.8744 6.49552C67.0302 4.40039 65.4834 2.6735 63.355 1.83671C62.6907 1.5756 62.0334 1.36054 61.3333 1.22131C61.2995 1.21457 61.2632 1.20641 61.2254 1.19789ZM69.9883 11.1119L69.1362 11.1184C68.8613 11.2035 68.6308 11.2991 68.3883 11.4582C68.5503 12.0592 69.0224 12.6605 69.5727 12.9684C69.813 13.103 70.0661 13.1163 70.3318 13.1303C70.3595 13.1317 70.3873 13.1332 70.4153 13.1348L72.0101 13.1959L72.5552 13.2284C72.5719 13.0289 72.2889 12.5269 72.157 12.3652C71.6381 11.7301 70.8317 11.17 69.9883 11.1119Z"/>
</mask>
<path fill-rule="evenodd" clip-rule="evenodd" d="M61.2254 1.19789C61.0638 1.16156 60.8738 1.11885 60.7313 1.15304L60.7309 1.15342L60.5657 1.22814C60.4801 1.56784 60.6651 2.10195 60.8051 2.50582C60.8367 2.59716 60.8661 2.68184 60.8894 2.7561C61.017 3.16271 61.1277 3.56999 61.1731 3.99434L58.5498 2.67465C56.6715 1.83454 54.3255 1.15998 52.2519 1.27837C52.4929 2.45016 52.9064 3.39557 53.4774 4.44097C54.2968 5.94115 55.254 7.23132 56.6995 8.1869C57.6103 8.7891 58.7365 9.23651 59.8339 9.31531L60.7452 9.36359C60.7735 9.36493 60.8047 9.36531 60.8373 9.3657C60.9519 9.36709 61.0845 9.3687 61.1738 9.41272C61.3164 9.48322 61.4185 9.69884 61.4888 9.8472C61.4951 9.86038 61.5011 9.87303 61.5068 9.885C61.4047 10.5401 61.0817 11.149 60.7652 11.7456C60.6629 11.9386 60.5612 12.1303 60.4679 12.3218C60.3483 12.5673 60.2322 12.8132 60.1164 13.0586C59.6977 13.9455 59.2832 14.8238 58.7208 15.6407C58.4091 16.0939 58.0815 16.5233 57.6292 16.8472C56.8048 17.4374 55.7186 17.3789 54.7724 17.2032C54.0436 17.0678 53.3331 16.8032 52.6328 16.5424C52.4367 16.4693 52.2414 16.3966 52.0467 16.3271C51.3521 16.0791 50.621 15.8655 49.9049 15.686C48.8344 15.4175 47.7123 15.3049 46.6126 15.2606C44.3836 15.1708 42.1292 15.469 40.0268 16.2363C38.4662 16.8057 37.0031 17.6257 35.6321 18.5562C34.7751 19.1378 33.9246 19.7588 33.1505 20.4487C31.9214 21.5441 30.769 22.7421 29.6244 23.9321C29.4006 24.1647 29.1771 24.3971 28.9535 24.6282L22.6548 31.2264C22.5826 31.3021 22.5104 31.3778 22.4383 31.4536C20.0032 34.0095 17.5637 36.5702 14.3132 38.0974C13.4512 38.5025 12.4875 38.7714 11.5568 38.9602C9.85181 39.3057 7.96988 39.4214 6.2498 39.1011C4.94229 38.8578 3.69823 38.5388 2.50632 37.941C2.32076 37.8479 2.12942 37.7296 1.93553 37.6097C1.628 37.4196 1.31405 37.2255 1.00664 37.1216C0.818133 37.0577 0.604482 37.0713 0.414425 37.1184C0.27624 37.2168 0.201439 37.3059 0.181156 37.4809C0.132735 37.8986 0.591046 38.4446 0.854822 38.7465C1.48102 39.4629 2.25764 40.0901 3.03159 40.6377C5.46467 42.3599 8.08852 43.3268 11.0767 43.4986C15.1939 43.7355 19.045 42.2173 22.4822 40.0672L26.865 37.2363C27.829 36.6572 28.8286 36.1533 29.8519 35.6878C31.0196 35.1571 32.2455 34.6648 33.5488 34.6727C34.6718 34.6795 35.6626 35.0998 36.6758 35.5296L36.7292 35.5523C36.8125 35.5876 36.897 35.6232 36.9824 35.6591C37.7299 35.9735 38.5445 36.3162 39.1796 36.8001C39.3658 36.942 39.5444 37.1432 39.7056 37.3248C39.7275 37.3495 39.7491 37.3738 39.7703 37.3975C40.4737 38.1829 40.5714 39.1174 40.6167 40.1218C40.1126 41.005 39.8004 42.1236 39.5236 43.1156C39.512 43.1571 39.5005 43.1984 39.489 43.2394C39.4643 43.328 39.4392 43.4171 39.4141 43.5068C39.0281 44.8821 38.6066 46.3841 38.6433 47.8084C38.6756 49.0837 39.016 50.3948 39.3508 51.6214L39.4417 51.9371L40.4456 54.9355C40.5049 55.0801 40.5659 55.2344 40.6294 55.3951C41.1192 56.6341 41.7592 58.2534 42.9538 58.7653C43.8121 59.1334 44.919 59.1025 45.9207 59.0745C46.1928 59.0669 46.4572 59.0595 46.7067 59.0604C46.7658 59.0606 46.825 59.0607 46.8844 59.0608C47.9894 59.0636 49.1483 59.0665 50.2327 59.2531C51.1716 59.4144 52.0757 59.6355 52.9739 59.9562C53.2868 60.0676 53.5837 60.1969 53.8802 60.347C53.9224 60.3683 53.9652 60.3906 54.0088 60.4133C54.2685 60.5483 54.5519 60.6956 54.8364 60.721C55.0921 60.7436 55.3637 60.7253 55.6327 60.7071C55.7965 60.6961 55.9593 60.6851 56.117 60.6835L58.7508 60.6593C58.8327 60.6543 58.9132 60.6465 58.9883 60.6093C59.1618 60.5243 59.2904 60.3113 59.3328 60.1272C59.382 59.9131 59.3546 59.6458 59.3312 59.4291C59.2527 58.6859 58.9935 57.9093 58.5668 57.2923C57.5166 55.7734 55.9187 55.2721 54.203 54.875L52.684 54.5412L50.3708 54.1489C50.2372 54.128 50.0997 54.1076 49.9596 54.0868C49.1633 53.9686 48.2854 53.8384 47.5826 53.5242C47.0868 53.3026 46.6978 52.9877 46.3831 52.5447C45.2944 51.0135 44.6546 47.9261 44.9943 46.0731C45.1741 45.0928 45.6746 44.2068 46.1625 43.3431C46.2398 43.2062 46.3168 43.0699 46.3922 42.9338L48.8561 38.8009C48.8977 38.7322 48.9395 38.6633 48.9814 38.5942C49.9857 36.9386 51.0506 35.183 51.5556 33.3086C52.1082 31.2575 51.7611 28.6712 50.5781 26.9021C50.1552 26.2693 49.6361 25.6736 49.0722 25.163C48.9771 25.077 48.8798 24.9956 48.7828 24.9145C48.6068 24.7673 48.4319 24.6209 48.2731 24.4494C49.6653 25.0027 50.9562 25.9955 52.1103 26.9338L54.6685 29.1213C54.7755 29.2184 54.887 29.318 55.0013 29.4201C55.8365 30.1666 56.8189 31.0446 57.2545 32.0255C57.4121 32.3806 57.369 32.6901 57.225 33.039C57.0625 33.4329 56.8394 33.8192 56.6238 34.1924C56.5927 34.2462 56.5618 34.2997 56.5313 34.353C56.5016 34.4046 56.4713 34.4565 56.4408 34.5086C56.1268 35.0456 55.7978 35.6083 56.0383 36.2447C56.15 36.54 56.4334 36.7628 56.7185 36.8776C57.3486 37.1316 57.987 37.0401 58.5963 36.7697C59.5674 36.3388 60.2596 35.6021 60.6312 34.6027C60.7611 34.2539 60.8634 33.8663 60.8383 33.4921C60.8137 33.1183 60.7018 32.7892 60.5879 32.4542C60.5368 32.3042 60.4854 32.1531 60.4413 31.9962C60.3253 31.586 60.3967 30.8845 60.5706 30.4962C60.8671 29.8341 61.329 29.2218 61.7855 28.6167C62.0351 28.2858 62.2832 27.957 62.5017 27.6233C63.6888 25.81 64.5608 23.8281 65.2543 21.7795L65.2589 21.7659C65.5312 20.9612 65.8284 20.0831 65.8774 19.2326C65.6898 18.9 65.4328 18.5905 65.1786 18.2845C65.0411 18.1191 64.9045 17.9546 64.7802 17.7881C63.9183 16.6321 63.2371 15.5025 62.6721 14.1717L63.5396 14.8762L64.8727 15.7952L66.2853 16.8026C66.32 16.8265 66.3547 16.8506 66.3895 16.8748C66.6562 17.0601 66.9276 17.2488 67.2257 17.3776C67.6078 17.5427 68.1034 17.5513 68.5507 17.559C68.6631 17.561 68.7724 17.5629 68.8761 17.5672C68.9506 17.5703 69.0251 17.5733 69.0995 17.5763C69.7705 17.6035 70.4389 17.6305 71.105 17.7301C71.7569 17.8279 72.3836 17.9913 73.0092 18.1956C73.1635 18.246 73.3151 18.2982 73.4652 18.3499C74.2464 18.6192 74.9861 18.874 75.8512 18.7811C76.7302 18.6866 77.5259 18.237 78.0731 17.5442C78.4142 17.112 78.6489 16.5191 78.6932 15.9741L78.5549 15.663C78.4327 15.3954 78.288 15.1732 78.0873 14.9565C77.9449 14.8028 77.7795 14.6648 77.6157 14.5282C77.5426 14.4672 77.4699 14.4065 77.3997 14.3448L75.4855 12.787C75.2498 12.6043 75.0183 12.4212 74.7884 12.2392C73.901 11.537 73.0354 10.8521 72.0272 10.2807C71.6745 10.0807 71.2861 9.92043 70.8957 9.75934C70.1574 9.45467 69.4119 9.14703 68.8867 8.562C68.4821 8.1115 68.2593 7.5148 68.0446 6.93991C67.9884 6.78927 67.9327 6.64013 67.8744 6.49552C67.0302 4.40039 65.4834 2.6735 63.355 1.83671C62.6907 1.5756 62.0334 1.36054 61.3333 1.22131C61.2995 1.21457 61.2632 1.20641 61.2254 1.19789ZM69.9883 11.1119L69.1362 11.1184C68.8613 11.2035 68.6308 11.2991 68.3883 11.4582C68.5503 12.0592 69.0224 12.6605 69.5727 12.9684C69.813 13.103 70.0661 13.1163 70.3318 13.1303C70.3595 13.1317 70.3873 13.1332 70.4153 13.1348L72.0101 13.1959L72.5552 13.2284C72.5719 13.0289 72.2889 12.5269 72.157 12.3652C71.6381 11.7301 70.8317 11.17 69.9883 11.1119Z" fill="black" stroke="black" stroke-width="2" mask="url(#path-1-inside-1_2097_174)"/>
<path d="M280.547 59.6043C284.182 59.5864 287.25 58.3324 289.717 55.8411C292.212 53.3207 293.454 50.2415 293.436 46.6342C293.419 43.057 292.146 40.0062 289.626 37.5114C287.106 35.0156 284.027 33.7739 280.42 33.7917C276.812 33.8094 273.746 35.0813 271.25 37.6018C268.755 40.1213 267.512 43.1844 267.53 46.7617C267.548 50.3689 268.819 53.4357 271.34 55.9315C273.831 58.3984 276.911 59.6222 280.547 59.6043ZM277.001 50.3561C276.068 49.4317 275.586 48.2352 275.579 46.7221C275.571 45.209 276.041 44.0078 276.965 43.0743C277.896 42.1347 279.048 41.6596 280.458 41.6527C281.868 41.6458 283.025 42.1094 283.965 43.0398C284.899 43.9643 285.38 45.1608 285.387 46.6738C285.395 48.1869 284.925 49.3881 284.001 50.3217C283.071 51.2613 281.918 51.7363 280.508 51.7432C279.098 51.7502 277.941 51.2865 277.001 50.3561Z" fill="black" stroke="black"/>
<path d="M252.828 59.742C256.463 59.7241 259.531 58.4701 261.998 55.9788C264.494 53.4583 265.735 50.3792 265.718 46.7719C265.7 43.1946 264.427 40.1439 261.908 37.6491C259.387 35.1533 256.308 33.9116 252.701 33.9293C249.094 33.9471 246.027 35.219 243.531 37.7395C241.036 40.259 239.793 43.3221 239.811 46.8994C239.829 50.5066 241.101 53.5734 243.621 56.0692C246.112 58.5361 249.193 59.7598 252.828 59.742ZM249.282 50.4938C248.349 49.5694 247.868 48.3729 247.86 46.8598C247.853 45.3467 248.322 44.1455 249.246 43.212C250.177 42.2724 251.33 41.7973 252.74 41.7904C254.149 41.7835 255.307 42.2471 256.246 43.1775C257.18 44.1019 257.661 45.2984 257.669 46.8115C257.676 48.3246 257.207 49.5258 256.282 50.4593C255.352 51.399 254.199 51.874 252.789 51.8809C251.379 51.8878 250.222 51.4242 249.282 50.4938Z" fill="black" stroke="black"/>
<path d="M232.29 37.2052L232.29 37.2047L232.29 37.1929L232.29 37.181L232.29 37.1692L232.29 37.1572L232.29 37.1453L232.29 37.1333L232.29 37.1213L232.29 37.1092L232.29 37.0971L232.29 37.0849L232.29 37.0727L232.29 37.0605L232.29 37.0482L232.289 37.0359L232.289 37.0235L232.289 37.0111L232.289 36.9987L232.289 36.9862L232.289 36.9737L232.289 36.9611L232.289 36.9485L232.289 36.9358L232.289 36.9231L232.289 36.9104L232.289 36.8976L232.289 36.8848L232.289 36.872L232.289 36.8591L232.289 36.8461L232.288 36.8332L232.288 36.8201L232.288 36.8071L232.288 36.794L232.288 36.7808L232.288 36.7676L232.288 36.7544L232.288 36.7411L232.288 36.7278L232.288 36.7145L232.288 36.7011L232.288 36.6876L232.288 36.6741L232.288 36.6606L232.288 36.647L232.287 36.6334L232.287 36.6198L232.287 36.6061L232.287 36.5923L232.287 36.5786L232.287 36.5647L232.287 36.5509L232.287 36.5369L232.287 36.523L232.287 36.509L232.287 36.495L232.287 36.4809L232.287 36.4667L232.287 36.4526L232.287 36.4384L232.286 36.4241L232.286 36.4098L232.286 36.3954L232.286 36.3811L232.286 36.3666L232.286 36.3521L232.286 36.3376L232.286 36.3231L232.286 36.3085L232.286 36.2938L232.286 36.2791L232.286 36.2644L232.286 36.2496L232.286 36.2348L232.285 36.2199C232.281 35.3051 231.632 34.7037 230.887 34.3595C230.137 34.0131 229.175 33.863 228.246 33.8749C227.316 33.8868 226.359 34.0617 225.616 34.4177C224.885 34.7677 224.233 35.3656 224.236 36.2592C224.242 37.4747 224.269 43.0899 224.296 48.4009L224.331 55.5517L224.343 57.8539L224.346 58.4937L224.347 58.6617L224.347 58.7047L224.347 58.7156L224.347 58.7184L224.347 58.719C224.347 58.7192 224.347 58.7193 224.847 58.7168L224.347 58.7193L224.349 59.2192L224.849 59.2168L231.898 59.1821L232.398 59.1796L232.396 58.6796L232.344 48.0591C232.334 46.0547 233.009 44.758 234.282 44.0186L234.282 44.0187L234.288 44.0146C235.652 43.193 237.145 42.9076 238.789 43.1636L239.369 43.2539L239.366 42.6671L239.327 34.6782L239.325 34.1782L238.825 34.1807C237.078 34.1893 235.5 34.6267 234.103 35.5006L234.103 35.5006L234.099 35.5035C233.369 35.9712 232.766 36.5394 232.29 37.2052Z" fill="black" stroke="black"/>
<path d="M152.581 34.4264C149.948 34.4393 147.842 35.1327 146.333 36.5548C146.186 35.8126 145.648 35.2719 145.002 34.9229C144.248 34.5156 143.279 34.3233 142.34 34.3211C141.401 34.3189 140.432 34.5065 139.678 34.9194C138.916 35.337 138.32 36.0248 138.324 36.9975C138.33 38.4612 138.357 43.9999 138.383 49.1722L138.418 56.1015L138.429 58.3195L138.432 58.9347L138.433 59.0961L138.433 59.1374L138.433 59.1478L138.433 59.1505L138.433 59.1511C138.433 59.1513 138.433 59.1513 138.933 59.1488L138.433 59.1513L138.436 59.6513L138.935 59.6488L145.985 59.6142L146.485 59.6117L146.482 59.1117L146.419 46.2824C146.412 44.7899 146.765 43.7385 147.398 43.0453C148.065 42.3184 148.999 41.9293 150.268 41.923C151.379 41.9176 152.233 42.2508 152.88 42.8916C153.518 43.5232 153.869 44.4301 153.875 45.6818L153.941 59.075L153.943 59.575L154.443 59.5725L161.492 59.5379L161.992 59.5354L161.99 59.0354L161.919 44.6084C161.904 41.5042 161.016 38.9925 159.206 37.1332C157.467 35.3124 155.244 34.4133 152.581 34.4264Z" fill="black" stroke="black"/>
<path d="M119.669 60.3861C122.323 60.373 124.503 59.6554 126.16 58.2019L126.165 59.1962L126.168 59.6962L126.668 59.6937L133.717 59.659L134.217 59.6566L134.214 59.1562L133.714 59.159C134.214 59.1562 134.214 59.1561 134.214 59.156L134.214 59.1553L134.214 59.1526L134.214 59.142L134.214 59.1002L134.213 58.9366L134.21 58.3134L134.197 56.0689C134.187 54.1998 134.173 51.6801 134.159 49.0772C134.131 43.8702 134.104 38.3341 134.105 37.006C134.106 36.0813 133.484 35.4289 132.738 35.0312C131.989 34.6319 131.023 34.4307 130.085 34.4154C129.147 34.4001 128.175 34.5692 127.418 34.9701C126.738 35.3302 126.192 35.9063 126.078 36.714C124.403 35.263 122.209 34.5603 119.542 34.5734C116.322 34.5893 113.551 35.8754 111.251 38.3939L111.251 38.3941C108.978 40.8859 107.856 43.9446 107.874 47.5374C107.892 51.1603 109.043 54.224 111.341 56.6942C113.636 59.1616 116.421 60.402 119.669 60.3861ZM117.346 51.3198C116.42 50.4026 115.931 49.1481 115.923 47.4979C115.915 45.8477 116.391 44.5884 117.309 43.6621C118.231 42.7304 119.442 42.2472 120.99 42.2396C122.537 42.232 123.753 42.7032 124.684 43.6258C125.611 44.543 126.099 45.7976 126.108 47.4478C126.116 49.098 125.639 50.3572 124.722 51.2835C123.8 52.2152 122.589 52.6984 121.041 52.706C119.494 52.7136 118.278 52.2424 117.346 51.3198Z" fill="black" stroke="black"/>
<path d="M204.849 59.9671C207.503 59.9541 209.683 59.2365 211.34 57.7829L211.345 58.7772L211.348 59.2772L211.848 59.2748L218.897 59.2401L219.397 59.2376L219.394 58.7372L218.894 58.7401C219.394 58.7372 219.394 58.7372 219.394 58.737L219.394 58.7363L219.394 58.7337L219.394 58.7231L219.394 58.6812L219.393 58.5177L219.389 57.8945L219.377 55.6499C219.366 53.7809 219.352 51.2611 219.339 48.6583C219.311 43.4512 219.284 37.9151 219.285 36.5871C219.286 35.6624 218.664 35.01 217.918 34.6123C217.169 34.213 216.203 34.0118 215.264 33.9964C214.327 33.9811 213.354 34.1502 212.598 34.5512C211.918 34.9112 211.372 35.4873 211.258 36.295C209.583 34.8441 207.389 34.1414 204.722 34.1545C201.501 34.1703 198.73 35.4565 196.431 37.9749L196.431 37.9751C194.158 40.4669 193.036 43.5257 193.054 47.1185C193.072 50.7414 194.223 53.805 196.521 56.2752C198.816 58.7427 201.601 59.9831 204.849 59.9671ZM202.526 50.9009C201.6 49.9836 201.111 48.7291 201.103 47.0789C201.095 45.4287 201.571 44.1694 202.488 43.2431C203.411 42.3115 204.622 41.8282 206.169 41.8206C207.717 41.813 208.932 42.2843 209.864 43.2068C210.79 44.1241 211.279 45.3786 211.287 47.0288C211.295 48.679 210.819 49.9383 209.902 50.8646C208.979 51.7963 207.768 52.2795 206.221 52.2871C204.673 52.2947 203.458 51.8234 202.526 50.9009Z" fill="black" stroke="black"/>
<path d="M109.139 59.799L110.088 59.7943L109.547 59.0143L98.0972 42.4794L98.1292 42.4313C98.271 42.2179 98.4764 41.9085 98.7311 41.5246C99.2403 40.7566 99.9466 39.6902 100.734 38.4962C102.309 36.1089 104.212 33.2087 105.517 31.1645C106.232 30.044 106.389 28.9603 106.113 28.0165C105.841 27.0844 105.168 26.3599 104.357 25.902C102.765 25.003 100.415 25.0343 99.13 26.8102C98.035 28.3233 95.6396 31.7475 93.5211 34.789C92.4612 36.3108 91.4695 37.7381 90.7429 38.7851C90.6426 38.9296 90.5473 39.0668 90.4576 39.1961L90.4575 39.1777L90.4574 39.1547L90.4573 39.1315L90.4572 39.1082L90.4571 39.0847L90.457 39.0612L90.4569 39.0375L90.4567 39.0137L90.4566 38.9897L90.4565 38.9657L90.4564 38.9415L90.4563 38.9172L90.4561 38.8927L90.456 38.8682L90.4559 38.8435L90.4558 38.8187L90.4557 38.7937L90.4555 38.7687L90.4554 38.7435L90.4553 38.7183L90.4552 38.6929L90.455 38.6674L90.4549 38.6417L90.4548 38.616L90.4547 38.5901L90.4545 38.5642L90.4544 38.5381L90.4543 38.5119L90.4541 38.4856L90.454 38.4592L90.4539 38.4327L90.4537 38.4061L90.4536 38.3793L90.4535 38.3525L90.4534 38.3255L90.4532 38.2985L90.4531 38.2713L90.4529 38.2441L90.4528 38.2167L90.4527 38.1892L90.4525 38.1617L90.4524 38.134L90.4523 38.1062L90.4521 38.0784L90.452 38.0504L90.4519 38.0223L90.4517 37.9942L90.4516 37.9659L90.4514 37.9376L90.4513 37.9091L90.4512 37.8806L90.451 37.8519L90.4509 37.8232L90.4507 37.7944L90.4506 37.7655L90.4505 37.7365L90.4503 37.7074L90.4502 37.6782L90.45 37.649L90.4499 37.6196L90.4497 37.5902L90.4496 37.5606L90.4494 37.531L90.4493 37.5013L90.4491 37.4716L90.449 37.4417L90.4489 37.4118L90.4487 37.3817L90.4486 37.3516L90.4484 37.3215L90.4483 37.2912L90.4481 37.2609L90.448 37.2304L90.4478 37.1999L90.4477 37.1694L90.4475 37.1387L90.4474 37.108L90.4472 37.0772L90.4471 37.0464L90.4469 37.0154L90.4468 36.9844L90.4466 36.9533L90.4464 36.9222L90.4463 36.891L90.4461 36.8597L90.446 36.8283L90.4458 36.7969L90.4457 36.7654L90.4455 36.7339L90.4454 36.7023L90.4452 36.6706L90.4451 36.6388L90.4449 36.607L90.4447 36.5752L90.4446 36.5433L90.4444 36.5113L90.4443 36.4792L90.4441 36.4471L90.444 36.415L90.4438 36.3827L90.4436 36.3505L90.4435 36.3181L90.4433 36.2858L90.4432 36.2533L90.443 36.2208L90.4428 36.1883L90.4427 36.1557L90.4425 36.1231L90.4424 36.0904L90.4422 36.0576L90.442 36.0248L90.4419 35.992L90.4417 35.9591L90.4415 35.9262L90.4414 35.8932L90.4412 35.8602L90.4411 35.8271L90.4409 35.794L90.4407 35.7608L90.4406 35.7276L90.4404 35.6944L90.4402 35.6611L90.4401 35.6278L90.4399 35.5945L90.4398 35.5611L90.4396 35.5276L90.4394 35.4942L90.4393 35.4607L90.4391 35.4271L90.4389 35.3936L90.4388 35.36L90.4386 35.3263L90.4384 35.2927L90.4383 35.259L90.4381 35.2252L90.4379 35.1915L90.4378 35.1577L90.4376 35.1239L90.4374 35.09L90.4373 35.0562L90.4371 35.0223L90.4369 34.9884L90.4368 34.9544L90.4366 34.9204L90.4364 34.8865L90.4363 34.8524L90.4361 34.8184L90.4359 34.7844L90.4358 34.7503L90.4356 34.7162L90.4354 34.6821L90.4353 34.6479L90.4351 34.6138L90.4349 34.5796L90.4348 34.5455L90.4346 34.5113L90.4344 34.4771L90.4343 34.4429L90.4341 34.4086L90.4339 34.3744L90.4337 34.3401L90.4336 34.3059L90.4334 34.2716L90.4332 34.2373L90.4331 34.203L90.4329 34.1687L90.4327 34.1344L90.4326 34.1001L90.4324 34.0658L90.4322 34.0315L90.4321 33.9972L90.4319 33.9629L90.4317 33.9286L90.4316 33.8942L90.4314 33.8599L90.4312 33.8256L90.431 33.7913L90.4309 33.757L90.4307 33.7227L90.4305 33.6884L90.4304 33.654L90.4302 33.6197L90.43 33.5855L90.4299 33.5512L90.4297 33.5169L90.4295 33.4826L90.4294 33.4484L90.4292 33.4141L90.429 33.3799L90.4289 33.3456L90.4287 33.3114L90.4285 33.2772L90.4283 33.243L90.4282 33.2088L90.428 33.1747L90.4278 33.1405L90.4277 33.1064L90.4275 33.0723L90.4273 33.0382L90.4272 33.0041L90.427 32.9701L90.4268 32.936L90.4267 32.902L90.4265 32.868L90.4263 32.8341L90.4262 32.8001L90.426 32.7662L90.4258 32.7323L90.4257 32.6984L90.4255 32.6646L90.4253 32.6308L90.4252 32.597L90.425 32.5632L90.4248 32.5295L90.4247 32.4958L90.4245 32.4621L90.4243 32.4285L90.4242 32.3949L90.424 32.3613L90.4238 32.3278L90.4237 32.2943L90.4235 32.2608L90.4234 32.2274L90.4232 32.194L90.423 32.1606L90.4229 32.1273L90.4227 32.094L90.4225 32.0608L90.4224 32.0276L90.4222 31.9944L90.422 31.9613L90.4219 31.9283L90.4217 31.8952L90.4216 31.8623L90.4214 31.8293L90.4212 31.7964L90.4211 31.7636L90.4209 31.7308L90.4207 31.6981L90.4206 31.6654L90.4204 31.6327L90.4203 31.6001L90.4201 31.5676L90.4199 31.5351L90.4198 31.5026L90.4196 31.4703L90.4195 31.4379L90.4193 31.4056L90.4192 31.3734L90.419 31.3413L90.4188 31.3092L90.4187 31.2771L90.4185 31.2451L90.4184 31.2132L90.4182 31.1813L90.4181 31.1495L90.4179 31.1178L90.4177 31.0861L90.4176 31.0545L90.4174 31.0229L90.4173 30.9914L90.4171 30.96L90.417 30.9287L90.4168 30.8974L90.4167 30.8662L90.4165 30.835L90.4164 30.8039L90.4162 30.7729L90.416 30.742L90.4159 30.7111L90.4157 30.6803L90.4156 30.6496L90.4154 30.6189L90.4153 30.5884L90.4151 30.5579L90.415 30.5274L90.4148 30.4971L90.4147 30.4668L90.4145 30.4367L90.4144 30.4065L90.4142 30.3765L90.4141 30.3466L90.414 30.3167L90.4138 30.2869L90.4137 30.2572L90.4135 30.2276L90.4134 30.1981L90.4132 30.1686L90.4131 30.1393L90.4129 30.11L90.4128 30.0808L90.4127 30.0517L90.4125 30.0227L90.4124 29.9938L90.4122 29.965L90.4121 29.9363L90.4119 29.9076L90.4118 29.8791L90.4117 29.8506L90.4115 29.8223L90.4114 29.794L90.4112 29.7658L90.4111 29.7378L90.411 29.7098L90.4108 29.6819L90.4107 29.6542L90.4106 29.6265L90.4104 29.5989L90.4103 29.5714L90.4102 29.5441L90.41 29.5168L90.4099 29.4896L90.4098 29.4626L90.4096 29.4356L90.4095 29.4088L90.4094 29.382L90.4092 29.3554L90.4091 29.3289L90.409 29.3025L90.4088 29.2762L90.4087 29.25L90.4086 29.2239L90.4085 29.1979L90.4083 29.1721L90.4082 29.1463L90.4081 29.1207L90.4079 29.0952L90.4078 29.0698L90.4077 29.0445L90.4076 29.0193L90.4074 28.9943L90.4073 28.9694L90.4072 28.9445L90.4071 28.9199L90.407 28.8953L90.4068 28.8708L90.4067 28.8465L90.4066 28.8223L90.4065 28.7983L90.4064 28.7743L90.4063 28.7505L90.4061 28.7268L90.406 28.7032L90.4059 28.6798L90.4058 28.6565L90.4057 28.6333L90.4056 28.6102L90.4054 28.5873L90.4053 28.5645L90.4052 28.5418L90.4051 28.5193L90.405 28.4969L90.4049 28.4747L90.4048 28.4526L90.4047 28.4306L90.4046 28.4087L90.4045 28.387L90.4044 28.3654L90.4043 28.344L90.4041 28.3227L90.404 28.3016L90.4039 28.2806L90.4038 28.2597L90.4037 28.239L90.4036 28.2184L90.4035 28.198L90.4034 28.1777L90.4033 28.1575L90.4032 28.1375L90.4031 28.1177L90.403 28.098L90.4029 28.0784L90.4028 28.059L90.4028 28.0398L90.4027 28.0207L90.4026 28.0017L90.4025 27.9829L90.4024 27.9643L90.4023 27.9458L90.4022 27.9275L90.4021 27.9093L90.402 27.8913L90.4019 27.8734L90.4018 27.8557L90.4018 27.8382C90.3969 26.8438 89.7582 26.1459 88.9587 25.7234C88.1635 25.3032 87.1404 25.109 86.1469 25.1117C85.1532 25.1144 84.1292 25.3143 83.3325 25.7409C82.5309 26.17 81.8929 26.8737 81.8828 27.8726C81.8675 29.3842 81.9063 37.2784 81.9489 44.7864C81.9703 48.5423 81.9925 52.2039 82.0095 54.9266C82.0179 56.288 82.0251 57.4146 82.0301 58.2008L82.0359 59.1118L82.0375 59.3511L82.0379 59.4124L82.038 59.4279L82.038 59.4318L82.038 59.4328C82.038 59.433 82.038 59.4331 82.538 59.4298L82.038 59.4331L82.0413 59.9323L82.5405 59.9298L90.0594 59.8928L90.5594 59.8904L90.557 59.3904L90.49 45.7669L100.174 59.6274L100.324 59.8423L100.586 59.8411L109.139 59.799Z" fill="black" stroke="black"/>
<path fill-rule="evenodd" clip-rule="evenodd" d="M41.4273 62.4855C41.6101 62.8475 41.4648 63.2892 41.1028 63.472C38.3488 64.8629 34.0793 67.5434 30.2739 71.0383C26.4538 74.5466 23.1944 78.7905 22.296 83.2958C22.2167 83.6935 21.83 83.9516 21.4323 83.8723C21.0346 83.793 20.7765 83.4063 20.8558 83.0086C21.845 78.0479 25.3775 73.5412 29.2805 69.9567C33.198 66.3589 37.5827 63.6046 40.4408 62.1611C40.8028 61.9783 41.2444 62.1235 41.4273 62.4855Z" fill="black" stroke="black" stroke-width="3" stroke-linecap="round"/>
<path fill-rule="evenodd" clip-rule="evenodd" d="M52.7411 63.3362C52.8859 63.715 52.6962 64.1394 52.3175 64.2843C49.7837 65.2532 45.8111 67.1764 42.1763 69.7781C38.5201 72.3951 35.3221 75.6161 34.1598 79.1458C34.033 79.531 33.6179 79.7404 33.2327 79.6136C32.8475 79.4868 32.6381 79.0717 32.765 78.6865C34.0764 74.7037 37.5914 71.2538 41.3215 68.5839C45.0729 65.8988 49.1599 63.9194 51.7929 62.9126C52.1717 62.7677 52.5962 62.9574 52.7411 63.3362Z" fill="black" stroke="black" stroke-width="3" stroke-linecap="round"/>
<path d="M176.795 60.0956C179.47 60.0825 181.687 59.2738 183.409 57.6563L183.414 58.6357C183.418 59.4697 183.395 60.0656 183.255 60.5652C183.122 61.039 182.876 61.4463 182.384 61.8728C181.818 62.3628 181.06 62.582 180.403 62.6704C180.08 62.7138 179.795 62.7238 179.592 62.723C179.491 62.7225 179.411 62.7194 179.357 62.7165C179.33 62.7151 179.31 62.7137 179.298 62.7127L179.285 62.7117L179.283 62.7116L179.283 62.7115L179.283 62.7115L179.283 62.7115L179.283 62.7115L179.258 62.7092L179.233 62.7093L179.236 63.2093L179.233 62.7093L179.233 62.7093L179.233 62.7093L179.232 62.7093L179.231 62.7093L179.23 62.7093L179.229 62.7093L179.228 62.7093L179.226 62.7093L179.224 62.7093L179.222 62.7094L179.22 62.7094L179.218 62.7094L179.216 62.7094L179.213 62.7094L179.21 62.7094L179.207 62.7094L179.204 62.7094L179.201 62.7095L179.197 62.7095L179.194 62.7095L179.19 62.7095L179.186 62.7095L179.182 62.7096L179.177 62.7096L179.173 62.7096L179.168 62.7096L179.163 62.7096L179.158 62.7097L179.153 62.7097L179.148 62.7097L179.142 62.7097L179.136 62.7098L179.13 62.7098L179.124 62.7098L179.118 62.7099L179.112 62.7099L179.105 62.7099L179.099 62.71L179.092 62.71L179.085 62.71L179.078 62.7101L179.07 62.7101L179.063 62.7101L179.055 62.7102L179.047 62.7102L179.039 62.7103L179.031 62.7103L179.023 62.7103L179.015 62.7104L179.006 62.7104L178.997 62.7105L178.988 62.7105L178.979 62.7105L178.97 62.7106L178.961 62.7106L178.951 62.7107L178.941 62.7107L178.932 62.7108L178.922 62.7108L178.912 62.7109L178.901 62.7109L178.891 62.711L178.88 62.711L178.87 62.7111L178.859 62.7111L178.848 62.7112L178.837 62.7112L178.825 62.7113L178.814 62.7114L178.802 62.7114L178.79 62.7115L178.779 62.7115L178.767 62.7116L178.754 62.7117L178.742 62.7117L178.73 62.7118L178.717 62.7118L178.704 62.7119L178.691 62.712L178.678 62.712L178.665 62.7121L178.652 62.7122L178.638 62.7122L178.625 62.7123L178.611 62.7124L178.597 62.7124L178.583 62.7125L178.569 62.7126L178.555 62.7126L178.541 62.7127L178.526 62.7128L178.511 62.7128L178.497 62.7129L178.482 62.713L178.467 62.7131L178.452 62.7131L178.436 62.7132L178.421 62.7133L178.405 62.7134L178.39 62.7134L178.374 62.7135L178.358 62.7136L178.342 62.7137L178.326 62.7138L178.309 62.7138L178.293 62.7139L178.276 62.714L178.26 62.7141L178.243 62.7142L178.226 62.7143L178.209 62.7143L178.192 62.7144L178.174 62.7145L178.157 62.7146L178.139 62.7147L178.122 62.7148L178.104 62.7149L178.086 62.7149L178.068 62.715L178.05 62.7151L178.032 62.7152L178.013 62.7153L177.995 62.7154L177.976 62.7155L177.958 62.7156L177.939 62.7157L177.92 62.7158L177.901 62.7159L177.882 62.7159L177.862 62.716L177.843 62.7161L177.824 62.7162L177.804 62.7163L177.784 62.7164L177.765 62.7165L177.745 62.7166L177.725 62.7167L177.704 62.7168L177.684 62.7169L177.664 62.717L177.643 62.7171L177.623 62.7172L177.602 62.7173L177.582 62.7174L177.561 62.7175L177.54 62.7176L177.519 62.7177L177.497 62.7178L177.476 62.7179L177.455 62.718L177.433 62.7182L177.412 62.7183L177.39 62.7184L177.368 62.7185L177.347 62.7186L177.325 62.7187L177.303 62.7188L177.28 62.7189L177.258 62.719L177.236 62.7191L177.214 62.7192L177.191 62.7193L177.168 62.7195L177.146 62.7196L177.123 62.7197L177.1 62.7198L177.077 62.7199L177.054 62.72L177.031 62.7201L177.008 62.7202L176.984 62.7204L176.961 62.7205L176.937 62.7206L176.914 62.7207L176.89 62.7208L176.866 62.7209L176.843 62.7211L176.819 62.7212L176.795 62.7213L176.771 62.7214L176.746 62.7215L176.722 62.7216L176.698 62.7218L176.673 62.7219L176.649 62.722L176.624 62.7221L176.6 62.7223L176.575 62.7224L176.55 62.7225L176.525 62.7226L176.5 62.7227L176.475 62.7229L176.45 62.723L176.425 62.7231L176.4 62.7232L176.374 62.7234L176.349 62.7235L176.324 62.7236L176.298 62.7237L176.272 62.7239L176.247 62.724L176.221 62.7241L176.195 62.7242L176.169 62.7244L176.143 62.7245L176.117 62.7246L176.091 62.7248L176.065 62.7249L176.039 62.725L176.012 62.7251L175.986 62.7253L175.96 62.7254L175.933 62.7255L175.907 62.7257L175.88 62.7258L175.853 62.7259L175.826 62.7261L175.8 62.7262L175.773 62.7263L175.746 62.7265L175.719 62.7266L175.692 62.7267L175.665 62.7269L175.638 62.727L175.61 62.7271L175.583 62.7273L175.556 62.7274L175.528 62.7275L175.501 62.7277L175.473 62.7278L175.446 62.7279L175.418 62.7281L175.391 62.7282L175.363 62.7283L175.335 62.7285L175.307 62.7286L175.279 62.7287L175.251 62.7289L175.224 62.729L175.196 62.7292L175.167 62.7293L175.139 62.7294L175.111 62.7296L175.083 62.7297L175.055 62.7299L175.026 62.73L174.998 62.7301L174.97 62.7303L174.941 62.7304L174.913 62.7305L174.884 62.7307L174.856 62.7308L174.827 62.731L174.799 62.7311L174.77 62.7313L174.741 62.7314L174.712 62.7315L174.684 62.7317L174.655 62.7318L174.626 62.732L174.597 62.7321L174.568 62.7322L174.539 62.7324L174.51 62.7325L174.481 62.7327L174.452 62.7328L174.423 62.733L174.394 62.7331L174.364 62.7332L174.335 62.7334L174.306 62.7335L174.277 62.7337L174.247 62.7338L174.218 62.734L174.189 62.7341L174.159 62.7343L174.13 62.7344L174.1 62.7345L174.071 62.7347L174.041 62.7348L174.012 62.735L173.982 62.7351L173.953 62.7353L173.923 62.7354L173.894 62.7356L173.864 62.7357L173.834 62.7359L173.805 62.736L173.775 62.7361L173.745 62.7363L173.715 62.7364L173.686 62.7366L173.656 62.7367L173.626 62.7369L173.596 62.737L173.566 62.7372L173.537 62.7373L173.507 62.7375L173.477 62.7376L173.447 62.7378L173.417 62.7379L173.387 62.7381L173.357 62.7382L173.327 62.7383L173.297 62.7385L173.267 62.7386L173.237 62.7388L173.207 62.7389L173.177 62.7391L173.147 62.7392L173.117 62.7394L173.087 62.7395L173.057 62.7397L173.027 62.7398L172.997 62.74L172.967 62.7401L172.937 62.7403L172.907 62.7404L172.877 62.7406L172.847 62.7407L172.816 62.7409L172.786 62.741L172.756 62.7412L172.726 62.7413L172.696 62.7415L172.666 62.7416L172.636 62.7417L172.606 62.7419L172.576 62.742L172.546 62.7422L172.516 62.7423L172.485 62.7425L172.455 62.7426L172.425 62.7428L172.395 62.7429L172.365 62.7431L172.335 62.7432L172.305 62.7434L172.275 62.7435L172.245 62.7437L172.215 62.7438L172.185 62.744L172.155 62.7441L172.125 62.7443L172.095 62.7444L172.065 62.7446L172.035 62.7447L172.005 62.7449L171.975 62.745L171.945 62.7451L171.915 62.7453L171.885 62.7454L171.855 62.7456L171.826 62.7457L171.796 62.7459L171.766 62.746L171.736 62.7462L171.706 62.7463L171.677 62.7465L171.647 62.7466L171.617 62.7468L171.587 62.7469L171.558 62.7471L171.528 62.7472L171.498 62.7473L171.469 62.7475L171.439 62.7476L171.409 62.7478L171.38 62.7479L171.35 62.7481L171.321 62.7482L171.291 62.7484L171.262 62.7485L171.232 62.7487L171.203 62.7488L171.174 62.7489L171.144 62.7491L171.115 62.7492L171.086 62.7494L171.056 62.7495L171.027 62.7497L170.998 62.7498L170.969 62.75L170.94 62.7501L170.911 62.7502L170.881 62.7504L170.852 62.7505L170.823 62.7507L170.794 62.7508L170.766 62.751L170.737 62.7511L170.708 62.7512L170.679 62.7514L170.65 62.7515L170.621 62.7517L170.593 62.7518L170.564 62.7519L170.535 62.7521L170.507 62.7522L170.478 62.7524L170.45 62.7525L170.421 62.7526L170.393 62.7528L170.365 62.7529L170.336 62.7531L170.308 62.7532L170.28 62.7533L170.252 62.7535L170.224 62.7536L170.195 62.7538L170.167 62.7539L170.139 62.754L170.111 62.7542L170.084 62.7543L170.056 62.7544L170.028 62.7546L170 62.7547L169.972 62.7549L169.945 62.755L169.917 62.7551L169.89 62.7553L169.862 62.7554L169.835 62.7555L169.807 62.7557L169.78 62.7558L169.753 62.7559L169.726 62.7561L169.699 62.7562L169.671 62.7563L169.644 62.7565L169.617 62.7566L169.591 62.7567L169.564 62.7569L169.537 62.757L169.51 62.7571L169.484 62.7573L169.457 62.7574L169.43 62.7575L169.404 62.7576L169.378 62.7578L169.351 62.7579L169.325 62.758L169.299 62.7582L169.273 62.7583L169.247 62.7584L169.221 62.7586L169.195 62.7587L169.169 62.7588L169.143 62.7589L169.117 62.7591L169.092 62.7592L169.066 62.7593L169.04 62.7594L169.015 62.7596L168.99 62.7597L168.964 62.7598L168.939 62.7599L168.914 62.7601L168.889 62.7602L168.864 62.7603L168.839 62.7604L168.814 62.7605L168.789 62.7607L168.765 62.7608L168.74 62.7609L168.715 62.761L168.691 62.7612L168.667 62.7613L168.642 62.7614L168.618 62.7615L168.594 62.7616L168.57 62.7618L168.546 62.7619L168.522 62.762L168.498 62.7621L168.475 62.7622L168.451 62.7623L168.427 62.7625L168.404 62.7626L168.381 62.7627L168.357 62.7628L168.334 62.7629L168.311 62.763L168.288 62.7631L168.265 62.7633L168.242 62.7634L168.219 62.7635L168.197 62.7636L168.174 62.7637L168.152 62.7638L168.129 62.7639L168.107 62.764L168.085 62.7641L168.063 62.7642L168.041 62.7644L168.019 62.7645L167.997 62.7646L167.975 62.7647L167.954 62.7648L167.932 62.7649L167.911 62.765L167.889 62.7651L167.868 62.7652L167.847 62.7653L167.826 62.7654L167.805 62.7655L167.784 62.7656L167.764 62.7657L167.743 62.7658L167.723 62.7659L167.702 62.766C165.584 62.7764 164.484 64.7109 164.451 66.4416C164.433 67.3285 164.683 68.2443 165.263 68.9468C165.855 69.6626 166.757 70.1139 167.942 70.1081L167.967 70.108L167.991 70.1079L168.016 70.1078L168.04 70.1076L168.064 70.1075L168.088 70.1074L168.112 70.1073L168.136 70.1072L168.16 70.107L168.184 70.1069L168.208 70.1068L168.231 70.1067L168.255 70.1066L168.278 70.1065L168.302 70.1063L168.325 70.1062L168.348 70.1061L168.372 70.106L168.395 70.1059L168.418 70.1058L168.441 70.1057L168.464 70.1055L168.487 70.1054L168.51 70.1053L168.532 70.1052L168.555 70.1051L168.578 70.105L168.6 70.1049L168.623 70.1048L168.645 70.1047L168.667 70.1045L168.69 70.1044L168.712 70.1043L168.734 70.1042L168.756 70.1041L168.778 70.104L168.8 70.1039L168.822 70.1038L168.844 70.1037L168.865 70.1036L168.887 70.1035L168.909 70.1034L168.93 70.1033L168.952 70.1031L168.973 70.103L168.994 70.1029L169.016 70.1028L169.037 70.1027L169.058 70.1026L169.079 70.1025L169.1 70.1024L169.121 70.1023L169.142 70.1022L169.163 70.1021L169.184 70.102L169.205 70.1019L169.226 70.1018L169.246 70.1017L169.267 70.1016L169.287 70.1015L169.308 70.1014L169.328 70.1013L169.349 70.1012L169.369 70.1011L169.389 70.101L169.41 70.1009L169.43 70.1008L169.45 70.1007L169.47 70.1006L169.49 70.1005L169.51 70.1004L169.53 70.1003L169.55 70.1002L169.569 70.1001L169.589 70.1L169.609 70.0999L169.629 70.0998L169.648 70.0997L169.668 70.0996L169.687 70.0995L169.707 70.0994L169.726 70.0993L169.745 70.0992L169.765 70.0991L169.784 70.0991L169.803 70.099L169.822 70.0989L169.842 70.0988L169.861 70.0987L169.88 70.0986L169.899 70.0985L169.918 70.0984L169.937 70.0983L169.955 70.0982L169.974 70.0981L169.993 70.098L170.012 70.0979L170.03 70.0978L170.049 70.0977L170.068 70.0977L170.086 70.0976L170.105 70.0975L170.123 70.0974L170.142 70.0973L170.16 70.0972L170.178 70.0971L170.197 70.097L170.215 70.0969L170.233 70.0968L170.251 70.0968L170.27 70.0967L170.288 70.0966L170.306 70.0965L170.324 70.0964L170.342 70.0963L170.36 70.0962L170.378 70.0961L170.396 70.096L170.414 70.096L170.432 70.0959L170.449 70.0958L170.467 70.0957L170.485 70.0956L170.503 70.0955L170.52 70.0954L170.538 70.0953L170.555 70.0953L170.573 70.0952L170.591 70.0951L170.608 70.095L170.626 70.0949L170.643 70.0948L170.661 70.0947L170.678 70.0947L170.695 70.0946L170.713 70.0945L170.73 70.0944L170.747 70.0943L170.765 70.0942L170.782 70.0941L170.799 70.0941L170.816 70.094L170.833 70.0939L170.85 70.0938L170.868 70.0937L170.885 70.0936L170.902 70.0936L170.919 70.0935L170.936 70.0934L170.953 70.0933L170.97 70.0932L170.987 70.0931L171.004 70.0931L171.02 70.093L171.037 70.0929L171.054 70.0928L171.071 70.0927L171.088 70.0926L171.105 70.0926L171.121 70.0925L171.138 70.0924L171.155 70.0923L171.172 70.0922L171.188 70.0921L171.205 70.0921L171.222 70.092L171.238 70.0919L171.255 70.0918L171.271 70.0917L171.288 70.0917L171.305 70.0916L171.321 70.0915L171.338 70.0914L171.354 70.0913L171.371 70.0912L171.387 70.0912L171.404 70.0911L171.42 70.091L171.437 70.0909L171.453 70.0908L171.47 70.0908L171.486 70.0907L171.502 70.0906L171.519 70.0905L171.535 70.0904L171.552 70.0904L171.568 70.0903L171.584 70.0902L171.601 70.0901L171.617 70.09L171.633 70.09L171.65 70.0899L171.666 70.0898L171.682 70.0897L171.699 70.0896L171.715 70.0896L171.731 70.0895L171.747 70.0894L171.764 70.0893L171.78 70.0892L171.796 70.0892L171.813 70.0891L171.829 70.089L171.845 70.0889L171.861 70.0888L171.878 70.0888L171.894 70.0887L171.91 70.0886L171.926 70.0885L171.943 70.0884L171.959 70.0884L171.975 70.0883L171.991 70.0882L172.007 70.0881L172.024 70.088L172.04 70.088L172.056 70.0879L172.072 70.0878L172.089 70.0877L172.105 70.0876L172.121 70.0876L172.137 70.0875L172.154 70.0874L172.17 70.0873L172.186 70.0872L172.202 70.0872L172.219 70.0871L172.235 70.087L172.251 70.0869L172.268 70.0868L172.284 70.0868L172.3 70.0867L172.316 70.0866L172.333 70.0865L172.349 70.0864L172.365 70.0864L172.382 70.0863L172.398 70.0862L172.414 70.0861L172.431 70.086L172.447 70.086L172.463 70.0859L172.48 70.0858L172.496 70.0857L172.513 70.0856L172.529 70.0855L172.546 70.0855L172.562 70.0854L172.578 70.0853L172.595 70.0852L172.611 70.0851L172.628 70.0851L172.644 70.085L172.661 70.0849L172.677 70.0848L172.694 70.0847L172.711 70.0847L172.727 70.0846L172.744 70.0845L172.76 70.0844L172.777 70.0843L172.794 70.0842L172.81 70.0842L172.827 70.0841L172.844 70.084L172.86 70.0839L172.877 70.0838L172.894 70.0838L172.911 70.0837L172.928 70.0836L172.944 70.0835L172.961 70.0834L172.978 70.0833L172.995 70.0833L173.012 70.0832L173.029 70.0831L173.046 70.083L173.063 70.0829L173.08 70.0828L173.097 70.0828L173.114 70.0827L173.131 70.0826L173.148 70.0825L173.165 70.0824L173.182 70.0823L173.199 70.0823L173.217 70.0822L173.234 70.0821L173.251 70.082L173.268 70.0819L173.286 70.0818L173.303 70.0817L173.32 70.0817L173.338 70.0816L173.355 70.0815L173.373 70.0814L173.39 70.0813L173.408 70.0812L173.425 70.0811L173.443 70.0811L173.46 70.081L173.478 70.0809L173.496 70.0808L173.513 70.0807L173.531 70.0806L173.549 70.0805L173.567 70.0804L173.585 70.0804L173.603 70.0803L173.62 70.0802L173.638 70.0801L173.656 70.08L173.674 70.0799L173.692 70.0798L173.71 70.0797L173.729 70.0796L173.747 70.0796L173.765 70.0795L173.783 70.0794L173.801 70.0793L173.82 70.0792L173.838 70.0791L173.857 70.079L173.875 70.0789L173.893 70.0788L173.912 70.0787L173.93 70.0787L173.949 70.0786L173.968 70.0785L173.986 70.0784L174.005 70.0783L174.024 70.0782L174.043 70.0781L174.062 70.078L174.08 70.0779L174.099 70.0778L174.118 70.0777L174.137 70.0776L174.156 70.0775L174.176 70.0775L174.195 70.0774L174.214 70.0773L174.233 70.0772L174.252 70.0771L174.272 70.077L174.291 70.0769L174.311 70.0768L174.33 70.0767L174.35 70.0766L174.369 70.0765L174.389 70.0764L174.409 70.0763L174.428 70.0762L174.448 70.0761L174.468 70.076L174.488 70.0759L174.508 70.0758L174.528 70.0757L174.548 70.0756L174.568 70.0755L174.588 70.0754L174.608 70.0753L174.629 70.0752L174.649 70.0751L174.669 70.075L174.69 70.0749L174.71 70.0748L174.731 70.0747L174.751 70.0746L174.772 70.0745L174.793 70.0744L174.813 70.0743L174.834 70.0742L174.855 70.0741L174.876 70.074L174.897 70.0739L174.918 70.0738L174.939 70.0737L174.96 70.0736L174.982 70.0735L175.003 70.0734L175.024 70.0733L175.046 70.0732L175.067 70.0731L175.089 70.073L175.11 70.0729L175.132 70.0727L175.154 70.0726L175.176 70.0725L175.197 70.0724L175.219 70.0723L175.241 70.0722L175.263 70.0721L175.285 70.072L175.308 70.0719L175.33 70.0718L175.352 70.0717L175.375 70.0716L175.397 70.0714L175.42 70.0713L175.442 70.0712L175.465 70.0711L175.488 70.071L175.51 70.0709L175.533 70.0708L175.556 70.0707L175.579 70.0705L175.602 70.0704L175.625 70.0703L175.648 70.0702L175.672 70.0701L175.695 70.07L175.719 70.0699L175.742 70.0697L175.766 70.0696L175.789 70.0695L175.813 70.0694L175.837 70.0693L175.861 70.0692L175.885 70.069L175.909 70.0689L175.933 70.0688L175.957 70.0687L175.981 70.0686L176.005 70.0684L176.03 70.0683L176.054 70.0682L176.079 70.0681L176.103 70.068L176.128 70.0678L176.153 70.0677L176.178 70.0676L176.203 70.0675L176.228 70.0674L176.253 70.0672L176.278 70.0671L176.303 70.067L176.329 70.0669L176.354 70.0667L176.38 70.0666L176.405 70.0665L176.431 70.0664L176.457 70.0662L176.482 70.0661L176.508 70.066L176.534 70.0658L176.56 70.0657L176.587 70.0656L176.613 70.0655L176.639 70.0653L176.666 70.0652L176.692 70.0651L176.719 70.0649L176.745 70.0648L176.772 70.0647L176.799 70.0645L176.826 70.0644L176.853 70.0643L176.88 70.0641L176.907 70.064L176.935 70.0639L176.962 70.0637L176.99 70.0636L177.017 70.0635L177.045 70.0633L177.073 70.0632L177.1 70.0631L177.128 70.0629L177.156 70.0628L177.185 70.0626L177.213 70.0625L177.241 70.0624L177.27 70.0622L177.298 70.0621L177.327 70.062L177.355 70.0618L177.384 70.0617L177.413 70.0615L177.442 70.0614L177.471 70.0612L177.5 70.0611L177.53 70.061L177.559 70.0608L177.588 70.0607L177.618 70.0605L177.648 70.0604L177.677 70.0602L177.707 70.0601L177.737 70.0599L177.767 70.0598L177.797 70.0596L177.828 70.0595L177.858 70.0593L177.888 70.0592L177.919 70.059L177.95 70.0589L177.981 70.0587L178.011 70.0586L178.042 70.0584L178.073 70.0583L178.105 70.0581L178.136 70.058L178.167 70.0578L178.199 70.0577L178.23 70.0575L178.262 70.0573L178.294 70.0572L178.326 70.057L178.358 70.0569L178.39 70.0567L178.422 70.0566L178.455 70.0564C178.862 70.0544 179.269 70.0563 179.673 70.0582C181.035 70.0646 182.37 70.0708 183.61 69.927C185.235 69.7385 186.764 69.288 188.094 68.2106C190.779 66.0954 191.559 62.4694 191.54 58.5957L191.426 35.4124L191.423 34.9124L190.923 34.9149L183.797 34.9499L183.297 34.9524L183.3 35.4524L183.306 36.6758C181.568 35.0753 179.343 34.2885 176.668 34.3017C173.087 34.3193 170.096 35.6072 167.734 38.1626C165.376 40.647 164.207 43.6902 164.225 47.2602C164.243 50.8313 165.442 53.8785 167.823 56.3715L167.826 56.3741C170.245 58.871 173.246 60.1131 176.795 60.0956ZM174.061 50.9426L174.061 50.9422C173.07 50.0478 172.554 48.8266 172.546 47.2192C172.538 45.6118 173.042 44.3856 174.024 43.4816L174.025 43.4811C175.057 42.5274 176.346 42.0388 177.926 42.031C179.507 42.0232 180.8 42.4992 181.842 43.4426L181.843 43.4431C182.833 44.3374 183.35 45.5586 183.357 47.166C183.365 48.7734 182.861 49.9997 181.879 50.9037L181.879 50.9042C180.846 51.8578 179.557 52.3465 177.977 52.3543C176.397 52.362 175.103 51.8861 174.061 50.9426Z" fill="black" stroke="black"/>
</svg>
